<?xml version="1.0" encoding="utf-8" standalone="no"?>
<!DOCTYPE svg PUBLIC "-//W3C//DTD SVG 1.1//EN"
  "http://www.w3.org/Graphics/SVG/1.1/DTD/svg11.dtd">
<!-- Created with matplotlib (http://matplotlib.org/) -->
<svg height="511pt" version="1.1" viewBox="0 0 504 511" width="504pt" xmlns="http://www.w3.org/2000/svg" xmlns:xlink="http://www.w3.org/1999/xlink">
 <defs>
  <style type="text/css">
*{stroke-linecap:butt;stroke-linejoin:round;}
  </style>
 </defs>
 <g id="figure_1">
  <g id="patch_1">
   <path d="
M0 511.2
L504 511.2
L504 0
L0 0
z
" style="fill:#ffffff;"/>
  </g>
  <g id="axes_1">
   <g id="patch_2">
    <path d="
M63 460.08
L453.6 460.08
L453.6 51.12
L63 51.12
z
" style="fill:#ffffff;"/>
   </g>
   <g id="Quiver_1">
    <path clip-path="url(#pc517c4227e)" d="
M63.5524 450.348
L62.7978 450.145
L62.2454 450.698
L62.4476 451.452
L63.2022 451.655
L63.7546 451.102
L63.5524 450.348
L62.7978 450.145"/>
    <path clip-path="url(#pc517c4227e)" d="
M91.3117 450.236
L90.5309 450.212
L90.1192 450.875
L90.4883 451.564
L91.2691 451.588
L91.6808 450.925
L91.3117 450.236
L90.5309 450.212"/>
    <path clip-path="url(#pc517c4227e)" d="
M119.023 450.151
L118.263 450.332
L118.04 451.081
L118.577 451.649
L119.337 451.468
L119.56 450.719
L119.023 450.151
L118.263 450.332"/>
    <path clip-path="url(#pc517c4227e)" d="
M146.689 450.119
L146.018 450.519
L146.029 451.3
L146.711 451.681
L147.382 451.281
L147.371 450.5
L146.689 450.119
L146.018 450.519"/>
    <path clip-path="url(#pc517c4227e)" d="
M174.432 450.962
L174.37 450.795
L174.097 451.087
L173.975 449.224
L175.103 450.713
L174.705 450.67
L174.768 450.838
L174.432 450.962"/>
    <path clip-path="url(#pc517c4227e)" d="
M202.348 451.037
L202.211 450.886
L202.045 451.312
L201.125 449.383
L202.955 450.488
L202.514 450.611
L202.652 450.763
L202.348 451.037"/>
    <path clip-path="url(#pc517c4227e)" d="
M230.308 451.103
L230.105 451.011
L230.124 451.51
L228.367 449.978
L230.676 450.29
L230.289 450.605
L230.492 450.697
L230.308 451.103"/>
    <path clip-path="url(#pc517c4227e)" d="
M258.3 451.13
L258.07 451.13
L258.3 451.59
L256 450.9
L258.3 450.21
L258.07 450.67
L258.3 450.67
L258.3 451.13"/>
    <path clip-path="url(#pc517c4227e)" d="
M286.292 451.103
L286.089 451.195
L286.476 451.51
L284.167 451.822
L285.924 450.29
L285.905 450.789
L286.108 450.697
L286.292 451.103"/>
    <path clip-path="url(#pc517c4227e)" d="
M314.252 451.037
L314.114 451.189
L314.555 451.312
L312.725 452.417
L313.645 450.488
L313.811 450.914
L313.948 450.763
L314.252 451.037"/>
    <path clip-path="url(#pc517c4227e)" d="
M342.168 450.962
L342.105 451.13
L342.503 451.087
L341.375 452.576
L341.497 450.713
L341.77 451.005
L341.832 450.838
L342.168 450.962"/>
    <path clip-path="url(#pc517c4227e)" d="
M369.889 451.681
L370.571 451.3
L370.582 450.519
L369.911 450.119
L369.229 450.5
L369.218 451.281
L369.889 451.681
L370.571 451.3"/>
    <path clip-path="url(#pc517c4227e)" d="
M398.023 451.649
L398.56 451.081
L398.337 450.332
L397.577 450.151
L397.04 450.719
L397.263 451.468
L398.023 451.649
L398.56 451.081"/>
    <path clip-path="url(#pc517c4227e)" d="
M426.112 451.564
L426.481 450.875
L426.069 450.212
L425.288 450.236
L424.919 450.925
L425.331 451.588
L426.112 451.564
L426.481 450.875"/>
    <path clip-path="url(#pc517c4227e)" d="
M454.152 451.452
L454.355 450.698
L453.802 450.145
L453.048 450.348
L452.845 451.102
L453.398 451.655
L454.152 451.452
L454.355 450.698"/>
    <path clip-path="url(#pc517c4227e)" d="
M63.6639 422.588
L62.9754 422.219
L62.3115 422.631
L62.3361 423.412
L63.0246 423.781
L63.6885 423.369
L63.6639 422.588
L62.9754 422.219"/>
    <path clip-path="url(#pc517c4227e)" d="
M91.4522 422.447
L90.6976 422.245
L90.1454 422.798
L90.3478 423.553
L91.1024 423.755
L91.6546 423.202
L91.4522 422.447
L90.6976 422.245"/>
    <path clip-path="url(#pc517c4227e)" d="
M118.655 422.919
L118.737 422.774
L118.366 422.756
L119.612 421.555
L119.234 423.244
L119.026 422.937
L118.945 423.081
L118.655 422.919"/>
    <path clip-path="url(#pc517c4227e)" d="
M146.493 422.96
L146.533 422.753
L146.079 422.881
L147.097 420.93
L147.321 423.119
L146.947 422.833
L146.907 423.04
L146.493 422.96"/>
    <path clip-path="url(#pc517c4227e)" d="
M174.342 423.048
L174.294 422.791
L173.827 423.145
L174.117 420.424
L175.373 422.855
L174.809 422.694
L174.858 422.952
L174.342 423.048"/>
    <path clip-path="url(#pc517c4227e)" d="
M202.244 423.179
L202.065 422.923
L201.732 423.536
L200.712 420.44
L203.268 422.464
L202.577 422.565
L202.756 422.821
L202.244 423.179"/>
    <path clip-path="url(#pc517c4227e)" d="
M230.234 423.307
L229.927 423.141
L229.903 423.921
L227.33 421.345
L230.897 422.079
L230.259 422.527
L230.566 422.693
L230.234 423.307"/>
    <path clip-path="url(#pc517c4227e)" d="
M258.3 423.362
L257.938 423.362
L258.3 424.086
L254.681 423
L258.3 421.914
L257.938 422.638
L258.3 422.638
L258.3 423.362"/>
    <path clip-path="url(#pc517c4227e)" d="
M286.366 423.307
L286.059 423.473
L286.697 423.921
L283.13 424.655
L285.703 422.079
L285.727 422.859
L286.034 422.693
L286.366 423.307"/>
    <path clip-path="url(#pc517c4227e)" d="
M314.356 423.179
L314.177 423.435
L314.868 423.536
L312.312 425.56
L313.332 422.464
L313.665 423.077
L313.844 422.821
L314.356 423.179"/>
    <path clip-path="url(#pc517c4227e)" d="
M342.258 423.048
L342.209 423.306
L342.773 423.145
L341.517 425.576
L341.227 422.855
L341.694 423.209
L341.742 422.952
L342.258 423.048"/>
    <path clip-path="url(#pc517c4227e)" d="
M370.107 422.96
L370.147 423.167
L370.521 422.881
L370.297 425.07
L369.279 423.119
L369.733 423.247
L369.693 423.04
L370.107 422.96"/>
    <path clip-path="url(#pc517c4227e)" d="
M397.945 422.919
L398.026 423.063
L398.234 422.756
L398.612 424.445
L397.366 423.244
L397.737 423.226
L397.655 423.081
L397.945 422.919"/>
    <path clip-path="url(#pc517c4227e)" d="
M426.252 423.553
L426.455 422.798
L425.902 422.245
L425.148 422.447
L424.945 423.202
L425.498 423.755
L426.252 423.553
L426.455 422.798"/>
    <path clip-path="url(#pc517c4227e)" d="
M454.264 423.412
L454.289 422.631
L453.625 422.219
L452.936 422.588
L452.911 423.369
L453.575 423.781
L454.264 423.412
L454.289 422.631"/>
    <path clip-path="url(#pc517c4227e)" d="
M63.7485 394.876
L63.1806 394.34
L62.4321 394.564
L62.2515 395.324
L62.8194 395.86
L63.5679 395.636
L63.7485 394.876
L63.1806 394.34"/>
    <path clip-path="url(#pc517c4227e)" d="
M90.8183 394.956
L90.9625 394.874
L90.655 394.668
L92.3415 394.283
L91.145 395.532
L91.1258 395.162
L90.9817 395.244
L90.8183 394.956"/>
    <path clip-path="url(#pc517c4227e)" d="
M118.641 394.944
L118.797 394.784
L118.323 394.631
L120.364 393.508
L119.277 395.569
L119.116 395.097
L118.959 395.256
L118.641 394.944"/>
    <path clip-path="url(#pc517c4227e)" d="
M146.426 394.974
L146.552 394.701
L145.879 394.723
L147.956 392.364
L147.521 395.477
L147.099 394.952
L146.974 395.226
L146.426 394.974"/>
    <path clip-path="url(#pc517c4227e)" d="
M174.2 395.094
L174.206 394.693
L173.399 395.082
L174.661 391.095
L175.801 395.118
L175.007 394.706
L175 395.106
L174.2 395.094"/>
    <path clip-path="url(#pc517c4227e)" d="
M202.047 395.322
L201.825 394.869
L201.142 395.766
L200.281 390.572
L203.858 394.434
L202.731 394.425
L202.953 394.878
L202.047 395.322"/>
    <path clip-path="url(#pc517c4227e)" d="
M230.082 395.579
L229.603 395.261
L229.446 396.536
L225.612 391.92
L231.354 393.664
L230.239 394.303
L230.718 394.621
L230.082 395.579"/>
    <path clip-path="url(#pc517c4227e)" d="
M258.3 395.696
L257.704 395.696
L258.3 396.888
L252.34 395.1
L258.3 393.312
L257.704 394.504
L258.3 394.504
L258.3 395.696"/>
    <path clip-path="url(#pc517c4227e)" d="
M286.518 395.579
L286.039 395.897
L287.154 396.536
L281.412 398.28
L285.246 393.664
L285.403 394.939
L285.882 394.621
L286.518 395.579"/>
    <path clip-path="url(#pc517c4227e)" d="
M314.553 395.322
L314.331 395.775
L315.458 395.766
L311.881 399.628
L312.742 394.434
L313.425 395.331
L313.647 394.878
L314.553 395.322"/>
    <path clip-path="url(#pc517c4227e)" d="
M342.4 395.094
L342.407 395.494
L343.201 395.082
L342.061 399.105
L340.799 395.118
L341.606 395.507
L341.6 395.106
L342.4 395.094"/>
    <path clip-path="url(#pc517c4227e)" d="
M370.174 394.974
L370.299 395.248
L370.721 394.723
L371.156 397.836
L369.079 395.477
L369.752 395.499
L369.626 395.226
L370.174 394.974"/>
    <path clip-path="url(#pc517c4227e)" d="
M397.959 394.944
L398.116 395.103
L398.277 394.631
L399.364 396.692
L397.323 395.569
L397.797 395.416
L397.641 395.256
L397.959 394.944"/>
    <path clip-path="url(#pc517c4227e)" d="
M425.782 394.956
L425.926 395.038
L425.945 394.668
L427.142 395.917
L425.455 395.532
L425.762 395.326
L425.618 395.244
L425.782 394.956"/>
    <path clip-path="url(#pc517c4227e)" d="
M454.349 395.324
L454.168 394.564
L453.419 394.34
L452.851 394.876
L453.032 395.636
L453.781 395.86
L454.349 395.324
L454.168 394.564"/>
    <path clip-path="url(#pc517c4227e)" d="
M63.7811 367.209
L63.3988 366.528
L62.6176 366.519
L62.2189 367.191
L62.6012 367.872
L63.3824 367.881
L63.7811 367.209
L63.3988 366.528"/>
    <path clip-path="url(#pc517c4227e)" d="
M90.858 366.995
L91.0635 366.953
L90.774 366.584
L92.9549 366.78
L91.026 367.816
L91.1475 367.364
L90.942 367.405
L90.858 366.995"/>
    <path clip-path="url(#pc517c4227e)" d="
M118.66 366.938
L118.922 366.798
L118.38 366.413
L121.422 365.801
L119.22 367.987
L119.202 367.322
L118.94 367.462
L118.66 366.938"/>
    <path clip-path="url(#pc517c4227e)" d="
M146.368 366.927
L146.64 366.595
L145.703 366.382
L149.427 363.876
L147.697 368.018
L147.305 367.14
L147.032 367.473
L146.368 366.927"/>
    <path clip-path="url(#pc517c4227e)" d="
M173.984 367.068
L174.116 366.452
L172.752 366.804
L175.92 361.038
L176.448 367.596
L175.348 366.716
L175.216 367.332
L173.984 367.068"/>
    <path clip-path="url(#pc517c4227e)" d="
M201.752 367.426
L201.309 365.959
L200.039 367.158
L200.026 359.002
L204.527 365.804
L202.805 365.508
L203.248 366.974
L201.752 367.426"/>
    <path clip-path="url(#pc517c4227e)" d="
M229.892 367.794
L227.843 366.042
L227.421 367.737
L223.007 360.879
L230.467 364.174
L228.858 364.854
L230.908 366.606
L229.892 367.794"/>
    <path clip-path="url(#pc517c4227e)" d="
M258.3 367.981
L255.564 367.981
L256.345 369.544
L248.533 367.2
L256.345 364.856
L255.564 366.419
L258.3 366.419
L258.3 367.981"/>
    <path clip-path="url(#pc517c4227e)" d="
M286.708 367.794
L284.658 369.546
L286.267 370.226
L278.807 373.521
L283.221 366.663
L283.643 368.358
L285.692 366.606
L286.708 367.794"/>
    <path clip-path="url(#pc517c4227e)" d="
M314.848 367.426
L314.405 368.892
L316.127 368.596
L311.626 375.398
L311.639 367.242
L312.909 368.441
L313.352 366.974
L314.848 367.426"/>
    <path clip-path="url(#pc517c4227e)" d="
M342.616 367.068
L342.748 367.684
L343.848 366.804
L343.32 373.362
L340.152 367.596
L341.516 367.948
L341.384 367.332
L342.616 367.068"/>
    <path clip-path="url(#pc517c4227e)" d="
M370.232 366.927
L370.505 367.26
L370.897 366.382
L372.627 370.524
L368.903 368.018
L369.84 367.805
L369.568 367.473
L370.232 366.927"/>
    <path clip-path="url(#pc517c4227e)" d="
M397.94 366.938
L398.202 367.078
L398.22 366.413
L400.422 368.599
L397.38 367.987
L397.922 367.602
L397.66 367.462
L397.94 366.938"/>
    <path clip-path="url(#pc517c4227e)" d="
M425.742 366.995
L425.947 367.036
L425.826 366.584
L427.755 367.62
L425.574 367.816
L425.864 367.447
L425.658 367.405
L425.742 366.995"/>
    <path clip-path="url(#pc517c4227e)" d="
M454.381 367.191
L453.982 366.519
L453.201 366.528
L452.819 367.209
L453.218 367.881
L453.999 367.872
L454.381 367.191
L453.982 366.519"/>
    <path clip-path="url(#pc517c4227e)" d="
M63.0616 339.133
L63.2288 339.194
L63.1847 338.798
L64.6721 339.916
L62.8153 339.802
L63.1056 339.529
L62.9384 339.467
L63.0616 339.133"/>
    <path clip-path="url(#pc517c4227e)" d="
M90.9401 339.047
L91.1936 339.087
L91.0203 338.54
L93.4349 339.701
L90.7797 340.06
L91.1134 339.594
L90.8599 339.553
L90.9401 339.047"/>
    <path clip-path="url(#pc517c4227e)" d="
M118.742 338.931
L119.112 338.873
L118.627 338.192
L122.494 338.722
L118.973 340.408
L119.227 339.612
L118.858 339.669
L118.742 338.931"/>
    <path clip-path="url(#pc517c4227e)" d="
M146.352 338.846
L146.806 338.498
L145.656 337.938
L151.242 335.82
L147.744 340.662
L147.502 339.406
L147.048 339.754
L146.352 338.846"/>
    <path clip-path="url(#pc517c4227e)" d="
M173.864 339.039
L174.739 336.576
L173.005 336.789
L177.828 330.212
L177.422 338.358
L176.211 337.099
L175.336 339.561
L173.864 339.039"/>
    <path clip-path="url(#pc517c4227e)" d="
M201.728 339.423
L200.543 331.964
L199.123 332.981
L200.212 324.898
L203.752 332.245
L202.086 331.719
L203.272 339.177
L201.728 339.423"/>
    <path clip-path="url(#pc517c4227e)" d="
M229.806 339.807
L224.035 333.052
L223.355 334.661
L220.063 327.199
L226.919 331.616
L225.223 332.037
L230.994 338.793
L229.806 339.807"/>
    <path clip-path="url(#pc517c4227e)" d="
M258.3 340.081
L250.939 340.081
L251.72 341.644
L243.908 339.3
L251.72 336.956
L250.939 338.519
L258.3 338.519
L258.3 340.081"/>
    <path clip-path="url(#pc517c4227e)" d="
M286.794 339.807
L281.023 346.563
L282.719 346.984
L275.863 351.401
L279.155 343.939
L279.835 345.548
L285.606 338.793
L286.794 339.807"/>
    <path clip-path="url(#pc517c4227e)" d="
M314.872 339.423
L313.686 346.881
L315.352 346.355
L311.812 353.702
L310.723 345.619
L312.143 346.636
L313.328 339.177
L314.872 339.423"/>
    <path clip-path="url(#pc517c4227e)" d="
M342.736 339.039
L343.611 341.501
L344.822 340.242
L345.228 348.388
L340.405 341.811
L342.139 342.024
L341.264 339.561
L342.736 339.039"/>
    <path clip-path="url(#pc517c4227e)" d="
M370.248 338.846
L370.702 339.194
L370.944 337.938
L374.442 342.78
L368.856 340.662
L370.006 340.102
L369.552 339.754
L370.248 338.846"/>
    <path clip-path="url(#pc517c4227e)" d="
M397.858 338.931
L398.227 338.988
L397.973 338.192
L401.494 339.878
L397.627 340.408
L398.112 339.727
L397.742 339.669
L397.858 338.931"/>
    <path clip-path="url(#pc517c4227e)" d="
M425.66 339.047
L425.913 339.006
L425.58 338.54
L428.235 338.899
L425.82 340.06
L425.994 339.513
L425.74 339.553
L425.66 339.047"/>
    <path clip-path="url(#pc517c4227e)" d="
M453.538 339.133
L453.706 339.071
L453.415 338.798
L455.272 338.684
L453.785 339.802
L453.829 339.406
L453.662 339.467
L453.538 339.133"/>
    <path clip-path="url(#pc517c4227e)" d="
M63.1353 311.249
L63.2863 311.384
L63.4058 310.947
L64.5103 312.753
L62.5942 311.853
L63.0158 311.686
L62.8647 311.551
L63.1353 311.249"/>
    <path clip-path="url(#pc517c4227e)" d="
M91.0582 311.151
L91.3073 311.309
L91.3746 310.653
L93.391 312.982
L90.4254 312.147
L90.9909 311.807
L90.7418 311.649
L91.0582 311.151"/>
    <path clip-path="url(#pc517c4227e)" d="
M118.892 310.999
L119.293 311.091
L119.077 310.197
L122.81 312.324
L118.523 312.603
L119.109 311.893
L118.708 311.801
L118.892 310.999"/>
    <path clip-path="url(#pc517c4227e)" d="
M146.406 310.851
L146.955 310.557
L145.819 309.752
L152.192 308.463
L147.581 313.048
L147.543 311.655
L146.994 311.949
L146.406 310.851"/>
    <path clip-path="url(#pc517c4227e)" d="
M173.868 311.127
L176.029 305.324
L174.293 305.511
L179.215 299.008
L178.685 307.147
L177.493 305.869
L175.332 311.673
L173.868 311.127"/>
    <path clip-path="url(#pc517c4227e)" d="
M201.721 311.454
L200.61 295.551
L199.106 296.439
L200.899 288.482
L203.782 296.112
L202.168 295.442
L203.279 311.346
L201.721 311.454"/>
    <path clip-path="url(#pc517c4227e)" d="
M229.718 311.781
L221.678 297.386
L220.695 298.83
L218.932 290.867
L224.787 296.544
L223.042 296.624
L231.082 311.019
L229.718 311.781"/>
    <path clip-path="url(#pc517c4227e)" d="
M258.3 312.181
L248.751 312.181
L249.532 313.744
L241.72 311.4
L249.532 309.056
L248.751 310.619
L258.3 310.619
L258.3 312.181"/>
    <path clip-path="url(#pc517c4227e)" d="
M286.882 311.781
L278.842 326.176
L280.587 326.256
L274.732 331.933
L276.495 323.97
L277.478 325.414
L285.518 311.019
L286.882 311.781"/>
    <path clip-path="url(#pc517c4227e)" d="
M314.879 311.454
L313.768 327.358
L315.382 326.688
L312.499 334.318
L310.706 326.361
L312.21 327.249
L313.321 311.346
L314.879 311.454"/>
    <path clip-path="url(#pc517c4227e)" d="
M342.732 311.127
L344.893 316.931
L346.085 315.653
L346.615 323.792
L341.693 317.289
L343.429 317.476
L341.268 311.673
L342.732 311.127"/>
    <path clip-path="url(#pc517c4227e)" d="
M370.194 310.851
L370.743 311.145
L370.781 309.752
L375.392 314.337
L369.019 313.048
L370.155 312.243
L369.606 311.949
L370.194 310.851"/>
    <path clip-path="url(#pc517c4227e)" d="
M397.708 310.999
L398.109 310.907
L397.523 310.197
L401.81 310.476
L398.077 312.603
L398.293 311.709
L397.892 311.801
L397.708 310.999"/>
    <path clip-path="url(#pc517c4227e)" d="
M425.542 311.151
L425.791 310.993
L425.225 310.653
L428.191 309.818
L426.175 312.147
L426.107 311.491
L425.858 311.649
L425.542 311.151"/>
    <path clip-path="url(#pc517c4227e)" d="
M453.465 311.249
L453.616 311.114
L453.194 310.947
L455.11 310.047
L454.006 311.853
L453.886 311.416
L453.735 311.551
L453.465 311.249"/>
    <path clip-path="url(#pc517c4227e)" d="
M63.1995 283.408
L63.2911 283.608
L63.5984 283.225
L63.9161 285.495
L62.4016 283.775
L62.8921 283.791
L62.8005 283.592
L63.1995 283.408"/>
    <path clip-path="url(#pc517c4227e)" d="
M91.1712 283.34
L91.3308 283.612
L91.7137 283.021
L92.4957 286.212
L90.0863 283.979
L90.7883 283.931
L90.6288 283.66
L91.1712 283.34"/>
    <path clip-path="url(#pc517c4227e)" d="
M119.054 283.227
L119.327 283.481
L119.562 282.681
L121.531 286.041
L118.038 284.319
L118.819 284.027
L118.546 283.773
L119.054 283.227"/>
    <path clip-path="url(#pc517c4227e)" d="
M146.5 283.103
L146.898 282.903
L146.101 282.308
L150.674 281.504
L147.299 284.692
L147.297 283.698
L146.9 283.897
L146.5 283.103"/>
    <path clip-path="url(#pc517c4227e)" d="
M173.84 283.319
L175.819 275.024
L174.118 275.421
L178.211 268.366
L178.678 276.509
L177.339 275.386
L175.36 283.681
L173.84 283.319"/>
    <path clip-path="url(#pc517c4227e)" d="
M201.719 283.519
L201.149 259.476
L199.606 260.294
L201.763 252.428
L204.292 260.182
L202.711 259.438
L203.281 283.481
L201.719 283.519"/>
    <path clip-path="url(#pc517c4227e)" d="
M229.647 283.708
L223.534 261.566
L222.236 262.735
L222.416 254.581
L226.754 261.487
L225.04 261.15
L231.153 283.292
L229.647 283.708"/>
    <path clip-path="url(#pc517c4227e)" d="
M258.3 284.281
L253.534 284.281
L254.315 285.844
L246.503 283.5
L254.315 281.156
L253.534 282.719
L258.3 282.719
L258.3 284.281"/>
    <path clip-path="url(#pc517c4227e)" d="
M286.953 283.708
L280.84 305.85
L282.554 305.513
L278.216 312.419
L278.036 304.265
L279.334 305.434
L285.447 283.292
L286.953 283.708"/>
    <path clip-path="url(#pc517c4227e)" d="
M314.881 283.519
L314.311 307.562
L315.892 306.818
L313.363 314.572
L311.206 306.706
L312.749 307.524
L313.319 283.481
L314.881 283.519"/>
    <path clip-path="url(#pc517c4227e)" d="
M342.76 283.319
L344.739 291.614
L346.078 290.491
L345.611 298.634
L341.518 291.579
L343.219 291.976
L341.24 283.681
L342.76 283.319"/>
    <path clip-path="url(#pc517c4227e)" d="
M370.1 283.103
L370.497 283.302
L370.499 282.308
L373.874 285.496
L369.301 284.692
L370.098 284.097
L369.7 283.897
L370.1 283.103"/>
    <path clip-path="url(#pc517c4227e)" d="
M397.546 283.227
L397.819 282.973
L397.038 282.681
L400.531 280.959
L398.562 284.319
L398.327 283.519
L398.054 283.773
L397.546 283.227"/>
    <path clip-path="url(#pc517c4227e)" d="
M425.429 283.34
L425.588 283.069
L424.886 283.021
L427.296 280.788
L426.514 283.979
L426.131 283.388
L425.971 283.66
L425.429 283.34"/>
    <path clip-path="url(#pc517c4227e)" d="
M453.401 283.408
L453.492 283.209
L453.002 283.225
L454.516 281.505
L454.198 283.775
L453.891 283.392
L453.799 283.592
L453.401 283.408"/>
    <path clip-path="url(#pc517c4227e)" d="
M63.2254 255.6
L63.2254 255.825
L63.6761 255.6
L63 257.854
L62.3239 255.6
L62.7746 255.825
L62.7746 255.6
L63.2254 255.6"/>
    <path clip-path="url(#pc517c4227e)" d="
M91.2189 255.6
L91.2189 255.919
L91.8567 255.6
L90.9 258.789
L89.9433 255.6
L90.5811 255.919
L90.5811 255.6
L91.2189 255.6"/>
    <path clip-path="url(#pc517c4227e)" d="
M119.126 255.6
L119.126 255.926
L119.778 255.6
L118.8 258.86
L117.822 255.6
L118.474 255.926
L118.474 255.6
L119.126 255.6"/>
    <path clip-path="url(#pc517c4227e)" d="
M146.7 254.819
L146.023 255.209
L146.023 255.991
L146.7 256.381
L147.377 255.991
L147.377 255.209
L146.7 254.819
L146.023 255.209"/>
    <path clip-path="url(#pc517c4227e)" d="
M173.819 255.6
L173.819 246.416
L172.256 247.198
L174.6 239.386
L176.944 247.198
L175.381 246.416
L175.381 255.6
L173.819 255.6"/>
    <path clip-path="url(#pc517c4227e)" d="
M201.719 255.6
L201.719 228.094
L200.156 228.875
L202.5 221.063
L204.844 228.875
L203.281 228.094
L203.281 255.6
L201.719 255.6"/>
    <path clip-path="url(#pc517c4227e)" d="
M229.619 255.6
L229.619 230.084
L228.056 230.865
L230.4 223.053
L232.744 230.865
L231.181 230.084
L231.181 255.6
L229.619 255.6"/>
    <path clip-path="url(#pc517c4227e)" d="
M259.081 255.6
L258.691 254.923
L257.909 254.923
L257.519 255.6
L257.909 256.277
L258.691 256.277
L259.081 255.6
L258.691 254.923"/>
    <path clip-path="url(#pc517c4227e)" d="
M286.981 255.6
L286.981 281.116
L288.544 280.335
L286.2 288.147
L283.856 280.335
L285.419 281.116
L285.419 255.6
L286.981 255.6"/>
    <path clip-path="url(#pc517c4227e)" d="
M314.881 255.6
L314.881 283.106
L316.444 282.325
L314.1 290.137
L311.756 282.325
L313.319 283.106
L313.319 255.6
L314.881 255.6"/>
    <path clip-path="url(#pc517c4227e)" d="
M342.781 255.6
L342.781 264.784
L344.344 264.002
L342 271.814
L339.656 264.002
L341.219 264.784
L341.219 255.6
L342.781 255.6"/>
    <path clip-path="url(#pc517c4227e)" d="
M369.9 256.381
L370.577 255.991
L370.577 255.209
L369.9 254.819
L369.223 255.209
L369.223 255.991
L369.9 256.381
L370.577 255.991"/>
    <path clip-path="url(#pc517c4227e)" d="
M397.474 255.6
L397.474 255.274
L396.822 255.6
L397.8 252.34
L398.778 255.6
L398.126 255.274
L398.126 255.6
L397.474 255.6"/>
    <path clip-path="url(#pc517c4227e)" d="
M425.381 255.6
L425.381 255.281
L424.743 255.6
L425.7 252.411
L426.657 255.6
L426.019 255.281
L426.019 255.6
L425.381 255.6"/>
    <path clip-path="url(#pc517c4227e)" d="
M453.375 255.6
L453.375 255.375
L452.924 255.6
L453.6 253.346
L454.276 255.6
L453.825 255.375
L453.825 255.6
L453.375 255.6"/>
    <path clip-path="url(#pc517c4227e)" d="
M63.1995 227.792
L63.1079 227.991
L63.5984 227.975
L62.0839 229.695
L62.4016 227.425
L62.7089 227.808
L62.8005 227.608
L63.1995 227.792"/>
    <path clip-path="url(#pc517c4227e)" d="
M91.1712 227.86
L91.0117 228.131
L91.7137 228.179
L89.3043 230.412
L90.0863 227.221
L90.4692 227.812
L90.6288 227.54
L91.1712 227.86"/>
    <path clip-path="url(#pc517c4227e)" d="
M119.054 227.973
L118.781 228.227
L119.562 228.519
L116.069 230.241
L118.038 226.881
L118.273 227.681
L118.546 227.427
L119.054 227.973"/>
    <path clip-path="url(#pc517c4227e)" d="
M146.5 228.097
L146.103 227.898
L146.101 228.892
L142.726 225.704
L147.299 226.508
L146.502 227.103
L146.9 227.303
L146.5 228.097"/>
    <path clip-path="url(#pc517c4227e)" d="
M173.84 227.881
L171.861 219.586
L170.522 220.709
L170.989 212.566
L175.082 219.621
L173.381 219.224
L175.36 227.519
L173.84 227.881"/>
    <path clip-path="url(#pc517c4227e)" d="
M201.719 227.681
L202.289 203.638
L200.708 204.382
L203.237 196.628
L205.394 204.494
L203.851 203.676
L203.281 227.719
L201.719 227.681"/>
    <path clip-path="url(#pc517c4227e)" d="
M229.647 227.492
L235.76 205.35
L234.046 205.687
L238.384 198.781
L238.564 206.935
L237.266 205.766
L231.153 227.908
L229.647 227.492"/>
    <path clip-path="url(#pc517c4227e)" d="
M258.3 226.919
L263.066 226.919
L262.285 225.356
L270.097 227.7
L262.285 230.044
L263.066 228.481
L258.3 228.481
L258.3 226.919"/>
    <path clip-path="url(#pc517c4227e)" d="
M286.953 227.492
L293.066 249.634
L294.364 248.465
L294.184 256.619
L289.846 249.713
L291.56 250.05
L285.447 227.908
L286.953 227.492"/>
    <path clip-path="url(#pc517c4227e)" d="
M314.881 227.681
L315.451 251.724
L316.994 250.906
L314.837 258.772
L312.308 251.018
L313.889 251.762
L313.319 227.719
L314.881 227.681"/>
    <path clip-path="url(#pc517c4227e)" d="
M342.76 227.881
L340.781 236.176
L342.482 235.779
L338.389 242.834
L337.922 234.691
L339.261 235.814
L341.24 227.519
L342.76 227.881"/>
    <path clip-path="url(#pc517c4227e)" d="
M370.1 228.097
L369.702 228.297
L370.499 228.892
L365.926 229.696
L369.301 226.508
L369.303 227.502
L369.7 227.303
L370.1 228.097"/>
    <path clip-path="url(#pc517c4227e)" d="
M397.546 227.973
L397.273 227.719
L397.038 228.519
L395.069 225.159
L398.562 226.881
L397.781 227.173
L398.054 227.427
L397.546 227.973"/>
    <path clip-path="url(#pc517c4227e)" d="
M425.429 227.86
L425.269 227.588
L424.886 228.179
L424.104 224.988
L426.514 227.221
L425.812 227.269
L425.971 227.54
L425.429 227.86"/>
    <path clip-path="url(#pc517c4227e)" d="
M453.401 227.792
L453.309 227.592
L453.002 227.975
L452.684 225.705
L454.198 227.425
L453.708 227.409
L453.799 227.608
L453.401 227.792"/>
    <path clip-path="url(#pc517c4227e)" d="
M63.1353 199.951
L62.9842 200.086
L63.4058 200.253
L61.4897 201.153
L62.5942 199.347
L62.7137 199.784
L62.8647 199.649
L63.1353 199.951"/>
    <path clip-path="url(#pc517c4227e)" d="
M91.0582 200.049
L90.8091 200.207
L91.3746 200.547
L88.409 201.382
L90.4254 199.053
L90.4927 199.709
L90.7418 199.551
L91.0582 200.049"/>
    <path clip-path="url(#pc517c4227e)" d="
M118.892 200.201
L118.491 200.293
L119.077 201.003
L114.79 200.724
L118.523 198.597
L118.307 199.491
L118.708 199.399
L118.892 200.201"/>
    <path clip-path="url(#pc517c4227e)" d="
M146.406 200.349
L145.857 200.055
L145.819 201.448
L141.208 196.863
L147.581 198.152
L146.445 198.957
L146.994 199.251
L146.406 200.349"/>
    <path clip-path="url(#pc517c4227e)" d="
M173.868 200.073
L171.707 194.269
L170.515 195.547
L169.985 187.408
L174.907 193.911
L173.171 193.724
L175.332 199.527
L173.868 200.073"/>
    <path clip-path="url(#pc517c4227e)" d="
M201.721 199.746
L202.832 183.842
L201.218 184.512
L204.101 176.882
L205.894 184.839
L204.39 183.951
L203.279 199.854
L201.721 199.746"/>
    <path clip-path="url(#pc517c4227e)" d="
M229.718 199.419
L237.758 185.024
L236.013 184.944
L241.868 179.267
L240.105 187.23
L239.122 185.786
L231.082 200.181
L229.718 199.419"/>
    <path clip-path="url(#pc517c4227e)" d="
M258.3 199.019
L267.849 199.019
L267.068 197.456
L274.88 199.8
L267.068 202.144
L267.849 200.581
L258.3 200.581
L258.3 199.019"/>
    <path clip-path="url(#pc517c4227e)" d="
M286.882 199.419
L294.922 213.814
L295.905 212.37
L297.668 220.333
L291.813 214.656
L293.558 214.576
L285.518 200.181
L286.882 199.419"/>
    <path clip-path="url(#pc517c4227e)" d="
M314.879 199.746
L315.99 215.649
L317.494 214.761
L315.701 222.718
L312.818 215.088
L314.432 215.758
L313.321 199.854
L314.879 199.746"/>
    <path clip-path="url(#pc517c4227e)" d="
M342.732 200.073
L340.571 205.876
L342.307 205.689
L337.385 212.192
L337.915 204.053
L339.107 205.331
L341.268 199.527
L342.732 200.073"/>
    <path clip-path="url(#pc517c4227e)" d="
M370.194 200.349
L369.645 200.643
L370.781 201.448
L364.408 202.737
L369.019 198.152
L369.057 199.545
L369.606 199.251
L370.194 200.349"/>
    <path clip-path="url(#pc517c4227e)" d="
M397.708 200.201
L397.307 200.109
L397.523 201.003
L393.79 198.876
L398.077 198.597
L397.491 199.307
L397.892 199.399
L397.708 200.201"/>
    <path clip-path="url(#pc517c4227e)" d="
M425.542 200.049
L425.293 199.891
L425.225 200.547
L423.209 198.218
L426.175 199.053
L425.609 199.393
L425.858 199.551
L425.542 200.049"/>
    <path clip-path="url(#pc517c4227e)" d="
M453.465 199.951
L453.314 199.816
L453.194 200.253
L452.09 198.447
L454.006 199.347
L453.584 199.514
L453.735 199.649
L453.465 199.951"/>
    <path clip-path="url(#pc517c4227e)" d="
M63.0616 172.067
L62.8944 172.129
L63.1847 172.402
L61.3279 172.516
L62.8153 171.398
L62.7712 171.794
L62.9384 171.733
L63.0616 172.067"/>
    <path clip-path="url(#pc517c4227e)" d="
M90.9401 172.153
L90.6866 172.194
L91.0203 172.66
L88.3651 172.301
L90.7797 171.14
L90.6064 171.687
L90.8599 171.647
L90.9401 172.153"/>
    <path clip-path="url(#pc517c4227e)" d="
M118.742 172.269
L118.373 172.212
L118.627 173.008
L115.106 171.322
L118.973 170.792
L118.488 171.473
L118.858 171.531
L118.742 172.269"/>
    <path clip-path="url(#pc517c4227e)" d="
M146.352 172.354
L145.898 172.006
L145.656 173.262
L142.158 168.42
L147.744 170.538
L146.594 171.098
L147.048 171.446
L146.352 172.354"/>
    <path clip-path="url(#pc517c4227e)" d="
M173.864 172.161
L172.989 169.699
L171.778 170.958
L171.372 162.812
L176.195 169.389
L174.461 169.176
L175.336 171.639
L173.864 172.161"/>
    <path clip-path="url(#pc517c4227e)" d="
M201.728 171.777
L202.914 164.319
L201.248 164.845
L204.788 157.498
L205.877 165.581
L204.457 164.564
L203.272 172.023
L201.728 171.777"/>
    <path clip-path="url(#pc517c4227e)" d="
M229.806 171.393
L235.577 164.637
L233.881 164.216
L240.737 159.799
L237.445 167.261
L236.765 165.652
L230.994 172.407
L229.806 171.393"/>
    <path clip-path="url(#pc517c4227e)" d="
M258.3 171.119
L265.661 171.119
L264.88 169.556
L272.692 171.9
L264.88 174.244
L265.661 172.681
L258.3 172.681
L258.3 171.119"/>
    <path clip-path="url(#pc517c4227e)" d="
M286.794 171.393
L292.565 178.148
L293.245 176.539
L296.537 184.001
L289.681 179.584
L291.377 179.163
L285.606 172.407
L286.794 171.393"/>
    <path clip-path="url(#pc517c4227e)" d="
M314.872 171.777
L316.057 179.236
L317.477 178.219
L316.388 186.302
L312.848 178.955
L314.514 179.481
L313.328 172.023
L314.872 171.777"/>
    <path clip-path="url(#pc517c4227e)" d="
M342.736 172.161
L341.861 174.624
L343.595 174.411
L338.772 180.988
L339.178 172.842
L340.389 174.101
L341.264 171.639
L342.736 172.161"/>
    <path clip-path="url(#pc517c4227e)" d="
M370.248 172.354
L369.794 172.702
L370.944 173.262
L365.358 175.38
L368.856 170.538
L369.098 171.794
L369.552 171.446
L370.248 172.354"/>
    <path clip-path="url(#pc517c4227e)" d="
M397.858 172.269
L397.488 172.327
L397.973 173.008
L394.106 172.478
L397.627 170.792
L397.373 171.588
L397.742 171.531
L397.858 172.269"/>
    <path clip-path="url(#pc517c4227e)" d="
M425.66 172.153
L425.406 172.113
L425.58 172.66
L423.165 171.499
L425.82 171.14
L425.487 171.606
L425.74 171.647
L425.66 172.153"/>
    <path clip-path="url(#pc517c4227e)" d="
M453.538 172.067
L453.371 172.006
L453.415 172.402
L451.928 171.284
L453.785 171.398
L453.494 171.671
L453.662 171.733
L453.538 172.067"/>
    <path clip-path="url(#pc517c4227e)" d="
M62.2189 144.009
L62.6176 144.681
L63.3988 144.672
L63.7811 143.991
L63.3824 143.319
L62.6012 143.328
L62.2189 144.009
L62.6176 144.681"/>
    <path clip-path="url(#pc517c4227e)" d="
M90.858 144.205
L90.6525 144.164
L90.774 144.616
L88.8451 143.58
L91.026 143.384
L90.7365 143.753
L90.942 143.795
L90.858 144.205"/>
    <path clip-path="url(#pc517c4227e)" d="
M118.66 144.262
L118.398 144.122
L118.38 144.787
L116.178 142.601
L119.22 143.213
L118.678 143.598
L118.94 143.738
L118.66 144.262"/>
    <path clip-path="url(#pc517c4227e)" d="
M146.368 144.273
L146.095 143.94
L145.703 144.818
L143.973 140.676
L147.697 143.182
L146.76 143.395
L147.032 143.727
L146.368 144.273"/>
    <path clip-path="url(#pc517c4227e)" d="
M173.984 144.132
L173.852 143.516
L172.752 144.396
L173.28 137.838
L176.448 143.604
L175.084 143.252
L175.216 143.868
L173.984 144.132"/>
    <path clip-path="url(#pc517c4227e)" d="
M201.752 143.774
L202.195 142.308
L200.473 142.604
L204.974 135.802
L204.961 143.958
L203.691 142.759
L203.248 144.226
L201.752 143.774"/>
    <path clip-path="url(#pc517c4227e)" d="
M229.892 143.406
L231.942 141.654
L230.333 140.974
L237.793 137.679
L233.379 144.537
L232.957 142.842
L230.908 144.594
L229.892 143.406"/>
    <path clip-path="url(#pc517c4227e)" d="
M258.3 143.219
L261.036 143.219
L260.255 141.656
L268.067 144
L260.255 146.344
L261.036 144.781
L258.3 144.781
L258.3 143.219"/>
    <path clip-path="url(#pc517c4227e)" d="
M286.708 143.406
L288.757 145.158
L289.179 143.463
L293.593 150.321
L286.133 147.026
L287.742 146.346
L285.692 144.594
L286.708 143.406"/>
    <path clip-path="url(#pc517c4227e)" d="
M314.848 143.774
L315.291 145.241
L316.561 144.042
L316.574 152.198
L312.073 145.396
L313.795 145.692
L313.352 144.226
L314.848 143.774"/>
    <path clip-path="url(#pc517c4227e)" d="
M342.616 144.132
L342.484 144.748
L343.848 144.396
L340.68 150.162
L340.152 143.604
L341.252 144.484
L341.384 143.868
L342.616 144.132"/>
    <path clip-path="url(#pc517c4227e)" d="
M370.232 144.273
L369.96 144.605
L370.897 144.818
L367.173 147.324
L368.903 143.182
L369.295 144.06
L369.568 143.727
L370.232 144.273"/>
    <path clip-path="url(#pc517c4227e)" d="
M397.94 144.262
L397.678 144.402
L398.22 144.787
L395.178 145.399
L397.38 143.213
L397.398 143.878
L397.66 143.738
L397.94 144.262"/>
    <path clip-path="url(#pc517c4227e)" d="
M425.742 144.205
L425.536 144.247
L425.826 144.616
L423.645 144.42
L425.574 143.384
L425.453 143.836
L425.658 143.795
L425.742 144.205"/>
    <path clip-path="url(#pc517c4227e)" d="
M452.819 143.991
L453.201 144.672
L453.982 144.681
L454.381 144.009
L453.999 143.328
L453.218 143.319
L452.819 143.991
L453.201 144.672"/>
    <path clip-path="url(#pc517c4227e)" d="
M62.2515 115.876
L62.4321 116.636
L63.1806 116.86
L63.7485 116.324
L63.5679 115.564
L62.8194 115.34
L62.2515 115.876
L62.4321 116.636"/>
    <path clip-path="url(#pc517c4227e)" d="
M90.8183 116.244
L90.6742 116.162
L90.655 116.532
L89.4585 115.283
L91.145 115.668
L90.8375 115.874
L90.9817 115.956
L90.8183 116.244"/>
    <path clip-path="url(#pc517c4227e)" d="
M118.641 116.256
L118.484 116.097
L118.323 116.569
L117.236 114.508
L119.277 115.631
L118.803 115.784
L118.959 115.944
L118.641 116.256"/>
    <path clip-path="url(#pc517c4227e)" d="
M146.426 116.226
L146.301 115.952
L145.879 116.477
L145.444 113.364
L147.521 115.723
L146.848 115.701
L146.974 115.974
L146.426 116.226"/>
    <path clip-path="url(#pc517c4227e)" d="
M174.2 116.106
L174.193 115.706
L173.399 116.118
L174.539 112.095
L175.801 116.082
L174.994 115.693
L175 116.094
L174.2 116.106"/>
    <path clip-path="url(#pc517c4227e)" d="
M202.047 115.878
L202.269 115.425
L201.142 115.434
L204.719 111.572
L203.858 116.766
L203.175 115.869
L202.953 116.322
L202.047 115.878"/>
    <path clip-path="url(#pc517c4227e)" d="
M230.082 115.621
L230.561 115.303
L229.446 114.664
L235.188 112.92
L231.354 117.536
L231.197 116.261
L230.718 116.579
L230.082 115.621"/>
    <path clip-path="url(#pc517c4227e)" d="
M258.3 115.504
L258.896 115.504
L258.3 114.312
L264.26 116.1
L258.3 117.888
L258.896 116.696
L258.3 116.696
L258.3 115.504"/>
    <path clip-path="url(#pc517c4227e)" d="
M286.518 115.621
L286.997 115.939
L287.154 114.664
L290.988 119.28
L285.246 117.536
L286.361 116.897
L285.882 116.579
L286.518 115.621"/>
    <path clip-path="url(#pc517c4227e)" d="
M314.553 115.878
L314.775 116.331
L315.458 115.434
L316.319 120.628
L312.742 116.766
L313.869 116.775
L313.647 116.322
L314.553 115.878"/>
    <path clip-path="url(#pc517c4227e)" d="
M342.4 116.106
L342.394 116.507
L343.201 116.118
L341.939 120.105
L340.799 116.082
L341.593 116.494
L341.6 116.094
L342.4 116.106"/>
    <path clip-path="url(#pc517c4227e)" d="
M370.174 116.226
L370.048 116.499
L370.721 116.477
L368.644 118.836
L369.079 115.723
L369.501 116.248
L369.626 115.974
L370.174 116.226"/>
    <path clip-path="url(#pc517c4227e)" d="
M397.959 116.256
L397.803 116.416
L398.277 116.569
L396.236 117.692
L397.323 115.631
L397.484 116.103
L397.641 115.944
L397.959 116.256"/>
    <path clip-path="url(#pc517c4227e)" d="
M425.782 116.244
L425.638 116.326
L425.945 116.532
L424.258 116.917
L425.455 115.668
L425.474 116.038
L425.618 115.956
L425.782 116.244"/>
    <path clip-path="url(#pc517c4227e)" d="
M452.851 116.324
L453.419 116.86
L454.168 116.636
L454.349 115.876
L453.781 115.34
L453.032 115.564
L452.851 116.324
L453.419 116.86"/>
    <path clip-path="url(#pc517c4227e)" d="
M62.3361 87.7883
L62.3115 88.5691
L62.9754 88.9808
L63.6639 88.6117
L63.6885 87.8309
L63.0246 87.4192
L62.3361 87.7883
L62.3115 88.5691"/>
    <path clip-path="url(#pc517c4227e)" d="
M90.3478 87.6474
L90.1454 88.402
L90.6976 88.9545
L91.4522 88.7526
L91.6546 87.998
L91.1024 87.4455
L90.3478 87.6474
L90.1454 88.402"/>
    <path clip-path="url(#pc517c4227e)" d="
M118.655 88.2812
L118.574 88.1367
L118.366 88.4437
L117.988 86.7548
L119.234 87.9563
L118.863 87.9743
L118.945 88.1188
L118.655 88.2812"/>
    <path clip-path="url(#pc517c4227e)" d="
M146.493 88.2397
L146.453 88.0327
L146.079 88.3191
L146.303 86.13
L147.321 88.0809
L146.867 87.9533
L146.907 88.1603
L146.493 88.2397"/>
    <path clip-path="url(#pc517c4227e)" d="
M174.342 88.1517
L174.391 87.8941
L173.827 88.055
L175.083 85.624
L175.373 88.345
L174.906 87.9907
L174.858 88.2483
L174.342 88.1517"/>
    <path clip-path="url(#pc517c4227e)" d="
M202.244 88.0212
L202.423 87.7652
L201.732 87.6636
L204.288 85.6403
L203.268 88.7364
L202.935 88.1228
L202.756 88.3788
L202.244 88.0212"/>
    <path clip-path="url(#pc517c4227e)" d="
M230.234 87.893
L230.541 87.7275
L229.903 87.2791
L233.47 86.5447
L230.897 89.1209
L230.873 88.3414
L230.566 88.507
L230.234 87.893"/>
    <path clip-path="url(#pc517c4227e)" d="
M258.3 87.8381
L258.662 87.8381
L258.3 87.1144
L261.919 88.2
L258.3 89.2856
L258.662 88.5619
L258.3 88.5619
L258.3 87.8381"/>
    <path clip-path="url(#pc517c4227e)" d="
M286.366 87.893
L286.673 88.0586
L286.697 87.2791
L289.27 89.8553
L285.703 89.1209
L286.341 88.6725
L286.034 88.507
L286.366 87.893"/>
    <path clip-path="url(#pc517c4227e)" d="
M314.356 88.0212
L314.535 88.2772
L314.868 87.6636
L315.888 90.7597
L313.332 88.7364
L314.023 88.6348
L313.844 88.3788
L314.356 88.0212"/>
    <path clip-path="url(#pc517c4227e)" d="
M342.258 88.1517
L342.306 88.4093
L342.773 88.055
L342.483 90.776
L341.227 88.345
L341.791 88.5059
L341.742 88.2483
L342.258 88.1517"/>
    <path clip-path="url(#pc517c4227e)" d="
M370.107 88.2397
L370.067 88.4467
L370.521 88.3191
L369.503 90.27
L369.279 88.0809
L369.653 88.3673
L369.693 88.1603
L370.107 88.2397"/>
    <path clip-path="url(#pc517c4227e)" d="
M397.945 88.2812
L397.863 88.4257
L398.234 88.4437
L396.988 89.6452
L397.366 87.9563
L397.574 88.2633
L397.655 88.1188
L397.945 88.2812"/>
    <path clip-path="url(#pc517c4227e)" d="
M425.148 88.7526
L425.902 88.9545
L426.455 88.402
L426.252 87.6474
L425.498 87.4455
L424.945 87.998
L425.148 88.7526
L425.902 88.9545"/>
    <path clip-path="url(#pc517c4227e)" d="
M452.936 88.6117
L453.625 88.9808
L454.289 88.5691
L454.264 87.7883
L453.575 87.4192
L452.911 87.8309
L452.936 88.6117
L453.625 88.9808"/>
    <path clip-path="url(#pc517c4227e)" d="
M62.4476 59.7476
L62.2454 60.5022
L62.7978 61.0546
L63.5524 60.8524
L63.7546 60.0978
L63.2022 59.5454
L62.4476 59.7476
L62.2454 60.5022"/>
    <path clip-path="url(#pc517c4227e)" d="
M90.4883 59.6361
L90.1192 60.3246
L90.5309 60.9885
L91.3117 60.9639
L91.6808 60.2754
L91.2691 59.6115
L90.4883 59.6361
L90.1192 60.3246"/>
    <path clip-path="url(#pc517c4227e)" d="
M118.577 59.5514
L118.04 60.119
L118.263 60.8676
L119.023 61.0486
L119.56 60.481
L119.337 59.7324
L118.577 59.5514
L118.04 60.119"/>
    <path clip-path="url(#pc517c4227e)" d="
M146.711 59.5189
L146.029 59.9001
L146.018 60.6813
L146.689 61.0811
L147.371 60.6999
L147.382 59.9187
L146.711 59.5189
L146.029 59.9001"/>
    <path clip-path="url(#pc517c4227e)" d="
M174.432 60.2375
L174.495 60.07
L174.097 60.1126
L175.225 58.6242
L175.103 60.4874
L174.83 60.1949
L174.768 60.3625
L174.432 60.2375"/>
    <path clip-path="url(#pc517c4227e)" d="
M202.348 60.1625
L202.486 60.0109
L202.045 59.8876
L203.875 58.7834
L202.955 60.7124
L202.789 60.2858
L202.652 60.4375
L202.348 60.1625"/>
    <path clip-path="url(#pc517c4227e)" d="
M230.308 60.0967
L230.511 60.0045
L230.124 59.6901
L232.433 59.3784
L230.676 60.9099
L230.695 60.4111
L230.492 60.5033
L230.308 60.0967"/>
    <path clip-path="url(#pc517c4227e)" d="
M258.3 60.07
L258.53 60.07
L258.3 59.6101
L260.6 60.3
L258.3 60.9899
L258.53 60.53
L258.3 60.53
L258.3 60.07"/>
    <path clip-path="url(#pc517c4227e)" d="
M286.292 60.0967
L286.495 60.1889
L286.476 59.6901
L288.233 61.2216
L285.924 60.9099
L286.311 60.5955
L286.108 60.5033
L286.292 60.0967"/>
    <path clip-path="url(#pc517c4227e)" d="
M314.252 60.1625
L314.389 60.3142
L314.555 59.8876
L315.475 61.8166
L313.645 60.7124
L314.086 60.5891
L313.948 60.4375
L314.252 60.1625"/>
    <path clip-path="url(#pc517c4227e)" d="
M342.168 60.2375
L342.23 60.4051
L342.503 60.1126
L342.625 61.9758
L341.497 60.4874
L341.895 60.53
L341.832 60.3625
L342.168 60.2375"/>
    <path clip-path="url(#pc517c4227e)" d="
M369.911 61.0811
L370.582 60.6813
L370.571 59.9001
L369.889 59.5189
L369.218 59.9187
L369.229 60.6999
L369.911 61.0811
L370.582 60.6813"/>
    <path clip-path="url(#pc517c4227e)" d="
M397.577 61.0486
L398.337 60.8676
L398.56 60.119
L398.023 59.5514
L397.263 59.7324
L397.04 60.481
L397.577 61.0486
L398.337 60.8676"/>
    <path clip-path="url(#pc517c4227e)" d="
M425.288 60.9639
L426.069 60.9885
L426.481 60.3246
L426.112 59.6361
L425.331 59.6115
L424.919 60.2754
L425.288 60.9639
L426.069 60.9885"/>
    <path clip-path="url(#pc517c4227e)" d="
M453.048 60.8524
L453.802 61.0546
L454.355 60.5022
L454.152 59.7476
L453.398 59.5454
L452.845 60.0978
L453.048 60.8524
L453.802 61.0546"/>
   </g>
   <g id="LineCollection_1">
    <path clip-path="url(#pc517c4227e)" d="
M140.015 450.9
L140.705 442.929
L141.791 434.957
L142.714 430.176
L143.237 426.986
L144.978 419.014
L147.095 411.043
L149.617 403.071
L150.686 400.338
L152.36 395.1
L155.341 387.129
L158.657 379.288
L158.701 379.157
L161.9 371.186
L165.344 363.214
L166.629 360.586
L168.612 355.243
L171.728 347.271
L174.6 340.015
L174.811 339.3
L177.292 331.329
L179.62 323.357
L181.271 315.386
L182.571 312.229
L183.479 307.414
L184.822 299.443
L185.941 291.471
L185.769 283.5
L185.233 275.529
L184.605 267.557
L184.121 259.586
L184.121 251.614
L184.605 243.643
L185.233 235.671
L185.769 227.7
L185.941 219.729
L184.822 211.757
L183.479 203.786
L182.571 198.971
L181.271 195.814
L179.62 187.843
L177.292 179.871
L174.811 171.9
L174.6 171.185
L171.728 163.929
L168.612 155.957
L166.629 150.614
L165.344 147.986
L161.9 140.014
L158.701 132.043
L158.657 131.912
L155.341 124.071
L152.36 116.1
L150.686 110.862
L149.617 108.129
L147.095 100.157
L144.978 92.1857
L143.237 84.2143
L142.714 81.0243
L141.791 76.2429
L140.705 68.2714
L140.015 60.3" style="fill:none;stroke:#000000;"/>
    <path clip-path="url(#pc517c4227e)" d="
M376.585 450.9
L375.895 442.929
L374.809 434.957
L373.886 430.176
L373.363 426.986
L371.622 419.014
L369.505 411.043
L366.983 403.071
L365.914 400.338
L364.24 395.1
L361.259 387.129
L357.943 379.288
L357.899 379.157
L354.7 371.186
L351.256 363.214
L349.971 360.586
L347.988 355.243
L344.872 347.271
L342 340.015
L341.789 339.3
L339.308 331.329
L336.98 323.357
L335.329 315.386
L334.029 312.229
L333.121 307.414
L331.778 299.443
L330.659 291.471
L330.831 283.5
L331.367 275.529
L331.995 267.557
L332.479 259.586
L332.479 251.614
L331.995 243.643
L331.367 235.671
L330.831 227.7
L330.659 219.729
L331.778 211.757
L333.121 203.786
L334.029 198.971
L335.329 195.814
L336.98 187.843
L339.308 179.871
L341.789 171.9
L342 171.185
L344.872 163.929
L347.988 155.957
L349.971 150.614
L351.256 147.986
L354.7 140.014
L357.899 132.043
L357.943 131.912
L361.259 124.071
L364.24 116.1
L365.914 110.862
L366.983 108.129
L369.505 100.157
L371.622 92.1857
L373.363 84.2143
L373.886 81.0243
L374.809 76.2429
L375.895 68.2714
L376.585 60.3" style="fill:none;stroke:#000000;"/>
    <path clip-path="url(#pc517c4227e)" d="
M63 373.872
L70.9714 373.169
L78.9429 372.059
L83.3172 371.186
L86.9143 370.574
L94.8857 368.752
L102.857 366.483
L110.829 363.684
L111.854 363.214
L118.8 360.546
L126.771 356.739
L129.18 355.243
L134.743 352.314
L142.047 347.271
L142.714 346.874
L150.686 340.343
L151.609 339.3
L158.657 331.97
L159.095 331.329
L164.736 323.357
L166.629 320.689
L169.234 315.386
L172.88 307.414
L174.6 303.289
L176.869 299.443
L177.98 291.471
L179.385 283.5
L180.606 275.529
L181.421 267.557
L181.829 259.586
L181.829 251.614
L181.421 243.643
L180.606 235.671
L179.385 227.7
L177.98 219.729
L176.869 211.757
L174.6 207.911
L172.88 203.786
L169.234 195.814
L166.629 190.511
L164.736 187.843
L159.095 179.871
L158.657 179.23
L151.609 171.9
L150.686 170.857
L142.714 164.326
L142.047 163.929
L134.743 158.886
L129.18 155.957
L126.771 154.461
L118.8 150.654
L111.854 147.986
L110.829 147.516
L102.857 144.717
L94.8857 142.448
L86.9143 140.626
L83.3172 140.014
L78.9429 139.141
L70.9714 138.031
L63 137.328" style="fill:none;stroke:#000000;"/>
    <path clip-path="url(#pc517c4227e)" d="
M453.6 137.328
L445.629 138.031
L437.657 139.141
L433.283 140.014
L429.686 140.626
L421.714 142.448
L413.743 144.717
L405.771 147.516
L404.746 147.986
L397.8 150.654
L389.829 154.461
L387.42 155.957
L381.857 158.886
L374.553 163.929
L373.886 164.326
L365.914 170.857
L364.991 171.9
L357.943 179.23
L357.505 179.871
L351.864 187.843
L349.971 190.511
L347.366 195.814
L343.72 203.786
L342 207.911
L339.731 211.757
L338.62 219.729
L337.215 227.7
L335.994 235.671
L335.179 243.643
L334.771 251.614
L334.771 259.586
L335.179 267.557
L335.994 275.529
L337.215 283.5
L338.62 291.471
L339.731 299.443
L342 303.289
L343.72 307.414
L347.366 315.386
L349.971 320.689
L351.864 323.357
L357.505 331.329
L357.943 331.97
L364.991 339.3
L365.914 340.343
L373.886 346.874
L374.553 347.271
L381.857 352.314
L387.42 355.243
L389.829 356.739
L397.8 360.546
L404.746 363.214
L405.771 363.684
L413.743 366.483
L421.714 368.752
L429.686 370.574
L433.283 371.186
L437.657 372.059
L445.629 373.169
L453.6 373.872" style="fill:none;stroke:#000000;"/>
   </g>
   <g id="LineCollection_2">
    <path clip-path="url(#pc517c4227e)" d="
M187.523 450.9
L183.367 442.929
L182.571 441.162
L180.123 434.957
L177.665 426.986
L175.914 419.014
L174.798 411.043
L174.6 408.423
L174.222 403.071
L174.158 395.1
L174.565 387.129
L174.6 386.831
L175.314 379.157
L176.365 371.186
L177.661 363.214
L179.142 355.243
L180.751 347.271
L182.433 339.3
L182.571 338.715
L183.881 331.329
L185.242 323.357
L186.507 315.386
L187.652 307.414
L188.66 299.443
L189.515 291.471
L190.114 283.5
L190.543 278.527
L190.702 275.529
L190.991 267.557
L191.136 259.586
L191.136 251.614
L190.991 243.643
L190.702 235.671
L190.543 232.673
L190.114 227.7
L189.515 219.729
L188.66 211.757
L187.652 203.786
L186.507 195.814
L185.242 187.843
L183.881 179.871
L182.571 172.485
L182.433 171.9
L180.751 163.929
L179.142 155.957
L177.661 147.986
L176.365 140.014
L175.314 132.043
L174.6 124.369
L174.565 124.071
L174.158 116.1
L174.222 108.129
L174.6 102.777
L174.798 100.157
L175.914 92.1857
L177.665 84.2143
L180.123 76.2429
L182.571 70.0381
L183.367 68.2714
L187.523 60.3" style="fill:none;stroke:#000000;"/>
    <path clip-path="url(#pc517c4227e)" d="
M329.077 450.9
L333.233 442.929
L334.029 441.162
L336.477 434.957
L338.935 426.986
L340.686 419.014
L341.802 411.043
L342 408.423
L342.378 403.071
L342.442 395.1
L342.035 387.129
L342 386.831
L341.286 379.157
L340.235 371.186
L338.939 363.214
L337.458 355.243
L335.849 347.271
L334.167 339.3
L334.029 338.715
L332.719 331.329
L331.358 323.357
L330.093 315.386
L328.948 307.414
L327.94 299.443
L327.085 291.471
L326.486 283.5
L326.057 278.527
L325.898 275.529
L325.609 267.557
L325.464 259.586
L325.464 251.614
L325.609 243.643
L325.898 235.671
L326.057 232.673
L326.486 227.7
L327.085 219.729
L327.94 211.757
L328.948 203.786
L330.093 195.814
L331.358 187.843
L332.719 179.871
L334.029 172.485
L334.167 171.9
L335.849 163.929
L337.458 155.957
L338.939 147.986
L340.235 140.014
L341.286 132.043
L342 124.369
L342.035 124.071
L342.442 116.1
L342.378 108.129
L342 102.777
L341.802 100.157
L340.686 92.1857
L338.935 84.2143
L336.477 76.2429
L334.029 70.0381
L333.233 68.2714
L329.077 60.3" style="fill:none;stroke:#000000;"/>
    <path clip-path="url(#pc517c4227e)" d="
M63 326.284
L70.9714 330.388
L73.1338 331.329
L78.9429 333.55
L86.9143 335.879
L94.8857 337.435
L102.857 338.251
L110.829 338.342
L118.8 337.682
L126.771 336.197
L134.743 333.723
L139.711 331.329
L142.714 330.047
L150.686 324.852
L152.225 323.357
L158.657 317.396
L160.11 315.386
L165.745 307.414
L166.629 306.098
L169.615 299.443
L172.701 291.471
L174.6 285.533
L175.054 283.5
L176.436 275.529
L177.356 267.557
L177.816 259.586
L177.816 251.614
L177.356 243.643
L176.436 235.671
L175.054 227.7
L174.6 225.667
L172.701 219.729
L169.615 211.757
L166.629 205.102
L165.745 203.786
L160.11 195.814
L158.657 193.804
L152.225 187.843
L150.686 186.348
L142.714 181.153
L139.711 179.871
L134.743 177.477
L126.771 175.003
L118.8 173.518
L110.829 172.858
L102.857 172.949
L94.8857 173.765
L86.9143 175.321
L78.9429 177.65
L73.1338 179.871
L70.9714 180.812
L63 184.916" style="fill:none;stroke:#000000;"/>
    <path clip-path="url(#pc517c4227e)" d="
M453.6 184.916
L445.629 180.812
L443.466 179.871
L437.657 177.65
L429.686 175.321
L421.714 173.765
L413.743 172.949
L405.771 172.858
L397.8 173.518
L389.829 175.003
L381.857 177.477
L376.889 179.871
L373.886 181.153
L365.914 186.348
L364.375 187.843
L357.943 193.804
L356.49 195.814
L350.855 203.786
L349.971 205.102
L346.985 211.757
L343.899 219.729
L342 225.667
L341.546 227.7
L340.164 235.671
L339.244 243.643
L338.784 251.614
L338.784 259.586
L339.244 267.557
L340.164 275.529
L341.546 283.5
L342 285.533
L343.899 291.471
L346.985 299.443
L349.971 306.098
L350.855 307.414
L356.49 315.386
L357.943 317.396
L364.375 323.357
L365.914 324.852
L373.886 330.047
L376.889 331.329
L381.857 333.723
L389.829 336.197
L397.8 337.682
L405.771 338.342
L413.743 338.251
L421.714 337.435
L429.686 335.879
L437.657 333.55
L443.466 331.329
L445.629 330.388
L453.6 326.284" style="fill:none;stroke:#000000;"/>
   </g>
   <g id="LineCollection_3">
    <path clip-path="url(#pc517c4227e)" d="
M238.371 446.128
L246.343 448.158
L254.314 449.127
L262.286 449.127
L270.257 448.158
L278.229 446.128
L286.2 442.852
L294.171 438.469
L302.143 432.327
L307.356 426.986
L310.114 423.922
L313.643 419.014
L318.406 411.043
L321.975 403.071
L324.614 395.1
L326.475 387.129
L327.726 379.157
L328.428 371.186
L328.683 363.214
L328.585 355.243
L328.221 347.271
L327.668 339.3
L324.971 307.414
L323.933 291.471
L323.233 275.529
L322.926 259.586
L323.029 243.643
L323.537 227.7
L324.415 211.757
L326.057 189.789
L326.994 179.871
L327.668 171.9
L328.221 163.929
L328.585 155.957
L328.683 147.986
L328.428 140.014
L327.726 132.043
L326.057 122.114
L324.614 116.1
L321.975 108.129
L318.086 99.524
L313.643 92.1857
L310.114 87.2778
L307.356 84.2143
L302.143 78.8726
L294.171 72.7309
L286.003 68.2714
L278.229 65.0721
L270.257 63.0425
L262.286 62.0728
L254.314 62.0728
L246.343 63.0425
L238.371 65.0721
L230.4 68.3485
L222.429 72.7309
L214.457 78.8726
L209.244 84.2143
L206.486 87.2778
L202.957 92.1857
L198.194 100.157
L194.625 108.129
L191.986 116.1
L190.125 124.071
L188.874 132.043
L188.172 140.014
L187.917 147.986
L188.015 155.957
L188.379 163.929
L188.932 171.9
L191.629 203.786
L192.667 219.729
L193.367 235.671
L193.674 251.614
L193.571 267.557
L193.063 283.5
L192.185 299.443
L190.543 321.411
L189.606 331.329
L188.932 339.3
L188.379 347.271
L188.015 355.243
L187.917 363.214
L188.172 371.186
L188.874 379.157
L190.543 389.086
L191.986 395.1
L194.625 403.071
L198.514 411.676
L202.957 419.014
L206.486 423.922
L209.244 426.986
L214.457 432.327
L222.429 438.469
L230.597 442.929
L238.371 446.128
L238.371 446.128" style="fill:none;stroke:#000000;"/>
    <path clip-path="url(#pc517c4227e)" d="
M110.829 316.709
L118.8 318.318
L126.771 318.704
L134.743 317.782
L142.5 315.386
L142.714 315.325
L150.686 310.937
L154.567 307.414
L158.657 303.659
L161.531 299.443
L166.436 291.471
L166.629 291.11
L169.254 283.5
L171.352 275.529
L172.766 267.557
L173.479 259.586
L173.479 251.614
L172.766 243.643
L171.352 235.671
L169.254 227.7
L166.629 220.09
L166.436 219.729
L161.531 211.757
L158.657 207.541
L154.567 203.786
L150.686 200.263
L142.714 195.875
L142.5 195.814
L134.743 193.418
L126.771 192.496
L118.8 192.882
L110.829 194.491
L106.846 195.814
L102.857 197.36
L94.8857 201.608
L91.5743 203.786
L86.9143 207.584
L82.4209 211.757
L78.9429 215.969
L75.9902 219.729
L71.4217 227.7
L70.9714 228.814
L68.1043 235.671
L66.0252 243.643
L65.0314 251.614
L65.0314 259.586
L66.0252 267.557
L68.1043 275.529
L70.9714 282.386
L71.4217 283.5
L75.9902 291.471
L78.9429 295.231
L82.4209 299.443
L86.9143 303.616
L91.5743 307.414
L94.8857 309.592
L102.857 313.84
L106.846 315.386
L110.829 316.709" style="fill:none;stroke:#000000;"/>
    <path clip-path="url(#pc517c4227e)" d="
M381.857 317.782
L389.829 318.704
L397.8 318.318
L405.771 316.709
L409.754 315.386
L413.743 313.84
L421.714 309.592
L425.026 307.414
L429.686 303.616
L434.179 299.443
L437.657 295.231
L440.61 291.471
L445.178 283.5
L445.629 282.386
L448.496 275.529
L450.575 267.557
L451.569 259.586
L451.569 251.614
L450.575 243.643
L448.496 235.671
L445.629 228.814
L445.178 227.7
L440.61 219.729
L437.657 215.969
L434.179 211.757
L429.686 207.584
L425.026 203.786
L421.714 201.608
L413.743 197.36
L409.754 195.814
L405.771 194.491
L397.8 192.882
L389.829 192.496
L381.857 193.418
L374.1 195.814
L373.886 195.875
L365.914 200.263
L362.033 203.786
L357.943 207.541
L355.069 211.757
L350.164 219.729
L349.971 220.09
L347.346 227.7
L345.248 235.671
L343.834 243.643
L343.121 251.614
L343.121 259.586
L343.834 267.557
L345.248 275.529
L347.346 283.5
L349.971 291.11
L350.164 291.471
L355.069 299.443
L357.943 303.659
L362.033 307.414
L365.914 310.937
L373.886 315.325
L374.1 315.386
L381.857 317.782" style="fill:none;stroke:#000000;"/>
   </g>
   <g id="LineCollection_4">
    <path clip-path="url(#pc517c4227e)" d="
M238.371 419.495
L246.343 421.962
L254.314 423.125
L262.286 423.125
L270.257 421.962
L278.229 419.495
L279.238 419.014
L286.2 415.839
L293.138 411.043
L294.171 410.325
L301.669 403.071
L302.143 402.578
L307.656 395.1
L310.114 391.118
L312.121 387.129
L315.41 379.157
L317.796 371.186
L318.086 369.974
L319.514 363.214
L320.67 355.243
L321.379 347.271
L321.748 339.3
L321.87 331.329
L321.819 323.357
L321.658 315.386
L321.437 307.414
L321.192 299.443
L320.953 291.471
L320.74 283.5
L320.568 275.529
L320.449 267.557
L320.388 259.586
L320.388 251.614
L320.449 243.643
L320.568 235.671
L320.74 227.7
L320.953 219.729
L321.192 211.757
L321.437 203.786
L321.658 195.814
L321.819 187.843
L321.87 179.871
L321.748 171.9
L321.379 163.929
L320.67 155.957
L319.514 147.986
L318.086 141.226
L317.796 140.014
L315.41 132.043
L312.121 124.071
L310.114 120.082
L307.656 116.1
L302.143 108.622
L301.669 108.129
L294.171 100.875
L293.138 100.157
L286.2 95.3606
L279.238 92.1857
L278.229 91.7048
L270.257 89.2384
L262.286 88.0745
L254.314 88.0745
L246.343 89.2384
L238.371 91.7048
L237.362 92.1857
L230.4 95.3606
L223.462 100.157
L222.429 100.875
L214.931 108.129
L214.457 108.622
L208.944 116.1
L206.486 120.082
L204.479 124.071
L201.19 132.043
L198.804 140.014
L198.514 141.226
L197.086 147.986
L195.93 155.957
L195.221 163.929
L194.852 171.9
L194.73 179.871
L194.781 187.843
L194.942 195.814
L195.163 203.786
L195.408 211.757
L195.647 219.729
L195.86 227.7
L196.032 235.671
L196.151 243.643
L196.212 251.614
L196.212 259.586
L196.151 267.557
L196.032 275.529
L195.86 283.5
L195.647 291.471
L195.408 299.443
L195.163 307.414
L194.942 315.386
L194.781 323.357
L194.73 331.329
L194.852 339.3
L195.221 347.271
L195.93 355.243
L197.086 363.214
L198.514 369.974
L198.804 371.186
L201.19 379.157
L204.479 387.129
L206.486 391.118
L208.944 395.1
L214.457 402.578
L214.931 403.071
L222.429 410.325
L223.462 411.043
L230.4 415.839
L237.362 419.014
L238.371 419.495" style="fill:none;stroke:#000000;"/>
    <path clip-path="url(#pc517c4227e)" d="
M126.771 301.505
L134.743 302.204
L142.714 300.858
L145.581 299.443
L150.686 296.875
L156.27 291.471
L158.657 288.892
L161.57 283.5
L164.971 275.529
L166.629 269.915
L167.073 267.557
L167.84 259.586
L167.84 251.614
L167.073 243.643
L166.629 241.285
L164.971 235.671
L161.57 227.7
L158.657 222.308
L156.27 219.729
L150.686 214.325
L145.581 211.757
L142.714 210.342
L134.743 208.996
L126.771 209.695
L120.274 211.757
L118.8 212.335
L110.829 217.275
L107.844 219.729
L102.857 225.278
L100.944 227.7
L96.5458 235.671
L94.8857 240.599
L93.8566 243.643
L92.5414 251.614
L92.5414 259.586
L93.8566 267.557
L94.8857 270.601
L96.5458 275.529
L100.944 283.5
L102.857 285.922
L107.844 291.471
L110.829 293.925
L118.8 298.865
L120.274 299.443
L126.771 301.505" style="fill:none;stroke:#000000;"/>
    <path clip-path="url(#pc517c4227e)" d="
M373.886 300.858
L381.857 302.204
L389.829 301.505
L396.326 299.443
L397.8 298.865
L405.771 293.925
L408.756 291.471
L413.743 285.922
L415.656 283.5
L420.054 275.529
L421.714 270.601
L422.743 267.557
L424.059 259.586
L424.059 251.614
L422.743 243.643
L421.714 240.599
L420.054 235.671
L415.656 227.7
L413.743 225.278
L408.756 219.729
L405.771 217.275
L397.8 212.335
L396.326 211.757
L389.829 209.695
L381.857 208.996
L373.886 210.342
L371.019 211.757
L365.914 214.325
L360.33 219.729
L357.943 222.308
L355.03 227.7
L351.629 235.671
L349.971 241.285
L349.527 243.643
L348.76 251.614
L348.76 259.586
L349.527 267.557
L349.971 269.915
L351.629 275.529
L355.03 283.5
L357.943 288.892
L360.33 291.471
L365.914 296.875
L371.019 299.443
L373.886 300.858" style="fill:none;stroke:#000000;"/>
   </g>
   <g id="LineCollection_5">
    <path clip-path="url(#pc517c4227e)" d="
M246.343 403.751
L254.314 405.108
L262.286 405.108
L270.257 403.751
L272.214 403.071
L278.229 401.131
L286.2 396.819
L288.406 395.1
L294.171 390.478
L297.189 387.129
L302.143 380.964
L303.271 379.157
L307.634 371.186
L310.114 365.358
L310.879 363.214
L313.262 355.243
L314.976 347.271
L316.168 339.3
L316.965 331.329
L317.471 323.357
L317.769 315.386
L317.922 307.414
L317.982 299.443
L317.985 291.471
L317.96 283.5
L317.926 275.529
L317.896 267.557
L317.879 259.586
L317.879 251.614
L317.896 243.643
L317.926 235.671
L317.96 227.7
L317.985 219.729
L317.982 211.757
L317.922 203.786
L317.769 195.814
L317.471 187.843
L316.965 179.871
L316.168 171.9
L314.976 163.929
L313.262 155.957
L310.879 147.986
L310.114 145.842
L307.634 140.014
L303.271 132.043
L302.143 130.236
L297.189 124.071
L294.171 120.722
L288.406 116.1
L286.2 114.381
L278.229 110.069
L272.214 108.129
L270.257 107.449
L262.286 106.092
L254.314 106.092
L246.343 107.449
L244.386 108.129
L238.371 110.069
L230.4 114.381
L228.194 116.1
L222.429 120.722
L219.411 124.071
L214.457 130.236
L213.329 132.043
L208.966 140.014
L206.486 145.842
L205.721 147.986
L203.338 155.957
L201.624 163.929
L200.432 171.9
L199.635 179.871
L199.129 187.843
L198.831 195.814
L198.678 203.786
L198.618 211.757
L198.615 219.729
L198.64 227.7
L198.674 235.671
L198.704 243.643
L198.721 251.614
L198.721 259.586
L198.704 267.557
L198.674 275.529
L198.64 283.5
L198.615 291.471
L198.618 299.443
L198.678 307.414
L198.831 315.386
L199.129 323.357
L199.635 331.329
L200.432 339.3
L201.624 347.271
L203.338 355.243
L205.721 363.214
L206.486 365.358
L208.966 371.186
L213.329 379.157
L214.457 380.964
L219.411 387.129
L222.429 390.478
L228.194 395.1
L230.4 396.819
L238.371 401.131
L244.386 403.071
L246.343 403.751" style="fill:none;stroke:#000000;"/>
    <path clip-path="url(#pc517c4227e)" d="
M134.743 284.249
L142.714 284.233
L144.237 283.5
L150.686 279.878
L153.985 275.529
L158.338 267.557
L158.657 266.444
L159.72 259.586
L159.72 251.614
L158.657 244.756
L158.338 243.643
L153.985 235.671
L150.686 231.322
L144.237 227.7
L142.714 226.967
L134.743 226.951
L132.7 227.7
L126.771 230.749
L121.585 235.671
L118.8 240.012
L116.941 243.643
L114.987 251.614
L114.987 259.586
L116.941 267.557
L118.8 271.188
L121.585 275.529
L126.771 280.451
L132.7 283.5
L134.743 284.249" style="fill:none;stroke:#000000;"/>
    <path clip-path="url(#pc517c4227e)" d="
M373.886 284.233
L381.857 284.249
L383.9 283.5
L389.829 280.451
L395.015 275.529
L397.8 271.188
L399.659 267.557
L401.613 259.586
L401.613 251.614
L399.659 243.643
L397.8 240.012
L395.015 235.671
L389.829 230.749
L383.9 227.7
L381.857 226.951
L373.886 226.967
L372.363 227.7
L365.914 231.322
L362.615 235.671
L358.262 243.643
L357.943 244.756
L356.88 251.614
L356.88 259.586
L357.943 266.444
L358.262 267.557
L362.615 275.529
L365.914 279.878
L372.363 283.5
L373.886 284.233" style="fill:none;stroke:#000000;"/>
   </g>
   <g id="LineCollection_6">
    <path clip-path="url(#pc517c4227e)" d="
M246.343 390.138
L254.314 391.574
L262.286 391.574
L270.257 390.138
L277.984 387.129
L278.229 387.039
L286.2 382.332
L289.775 379.157
L294.171 375.011
L297.136 371.186
L302.143 363.561
L302.323 363.214
L306.042 355.243
L308.813 347.271
L310.114 342.457
L310.861 339.3
L312.379 331.329
L313.468 323.357
L314.235 315.386
L314.763 307.414
L315.119 299.443
L315.352 291.471
L315.5 283.5
L315.589 275.529
L315.639 267.557
L315.661 259.586
L315.661 251.614
L315.639 243.643
L315.589 235.671
L315.5 227.7
L315.352 219.729
L315.119 211.757
L314.763 203.786
L314.235 195.814
L313.468 187.843
L312.379 179.871
L310.861 171.9
L310.114 168.743
L308.813 163.929
L306.042 155.957
L302.323 147.986
L302.143 147.639
L297.136 140.014
L294.171 136.189
L289.775 132.043
L286.2 128.868
L278.229 124.161
L277.984 124.071
L270.257 121.062
L262.286 119.626
L254.314 119.626
L246.343 121.062
L238.616 124.071
L238.371 124.161
L230.4 128.868
L226.825 132.043
L222.429 136.189
L219.464 140.014
L214.457 147.639
L214.277 147.986
L210.558 155.957
L207.787 163.929
L206.486 168.743
L205.739 171.9
L204.221 179.871
L203.132 187.843
L202.365 195.814
L201.837 203.786
L201.481 211.757
L201.248 219.729
L201.1 227.7
L201.011 235.671
L200.961 243.643
L200.939 251.614
L200.939 259.586
L200.961 267.557
L201.011 275.529
L201.1 283.5
L201.248 291.471
L201.481 299.443
L201.837 307.414
L202.365 315.386
L203.132 323.357
L204.221 331.329
L205.739 339.3
L206.486 342.457
L207.787 347.271
L210.558 355.243
L214.277 363.214
L214.457 363.561
L219.464 371.186
L222.429 375.011
L226.825 379.157
L230.4 382.332
L238.371 387.039
L238.616 387.129
L246.343 390.138" style="fill:none;stroke:#000000;"/>
   </g>
   <g id="LineCollection_7">
    <path clip-path="url(#pc517c4227e)" d="
M254.314 380.635
L262.286 380.635
L269.465 379.157
L270.257 379.01
L278.229 375.869
L285.118 371.186
L286.2 370.441
L293.249 363.214
L294.171 362.168
L298.719 355.243
L302.143 348.699
L302.748 347.271
L305.684 339.3
L307.876 331.329
L309.492 323.357
L310.114 319.417
L310.701 315.386
L311.605 307.414
L312.257 299.443
L312.719 291.471
L313.04 283.5
L313.252 275.529
L313.382 267.557
L313.443 259.586
L313.443 251.614
L313.382 243.643
L313.252 235.671
L313.04 227.7
L312.719 219.729
L312.257 211.757
L311.605 203.786
L310.701 195.814
L310.114 191.783
L309.492 187.843
L307.876 179.871
L305.684 171.9
L302.748 163.929
L302.143 162.501
L298.719 155.957
L294.171 149.032
L293.249 147.986
L286.2 140.759
L285.118 140.014
L278.229 135.331
L270.257 132.19
L269.465 132.043
L262.286 130.565
L254.314 130.565
L247.135 132.043
L246.343 132.19
L238.371 135.331
L231.482 140.014
L230.4 140.759
L223.351 147.986
L222.429 149.032
L217.881 155.957
L214.457 162.501
L213.852 163.929
L210.916 171.9
L208.724 179.871
L207.108 187.843
L206.486 191.783
L205.899 195.814
L204.995 203.786
L204.343 211.757
L203.881 219.729
L203.56 227.7
L203.348 235.671
L203.218 243.643
L203.157 251.614
L203.157 259.586
L203.218 267.557
L203.348 275.529
L203.56 283.5
L203.881 291.471
L204.343 299.443
L204.995 307.414
L205.899 315.386
L206.486 319.417
L207.108 323.357
L208.724 331.329
L210.916 339.3
L213.852 347.271
L214.457 348.699
L217.881 355.243
L222.429 362.168
L223.351 363.214
L230.4 370.441
L231.482 371.186
L238.371 375.869
L246.343 379.01
L247.135 379.157
L254.314 380.635" style="fill:none;stroke:#000000;"/>
   </g>
   <g id="LineCollection_8">
    <path clip-path="url(#pc517c4227e)" d="
M254.314 371.456
L262.286 371.456
L263.516 371.186
L270.257 369.836
L278.229 366.337
L282.513 363.214
L286.2 360.449
L290.898 355.243
L294.171 351.139
L296.493 347.271
L300.484 339.3
L302.143 335.207
L303.455 331.329
L305.661 323.357
L307.312 315.386
L308.537 307.414
L309.437 299.443
L310.088 291.471
L310.114 291.043
L310.579 283.5
L310.916 275.529
L311.125 267.557
L311.225 259.586
L311.225 251.614
L311.125 243.643
L310.916 235.671
L310.579 227.7
L310.114 220.157
L310.088 219.729
L309.437 211.757
L308.537 203.786
L307.312 195.814
L305.661 187.843
L303.455 179.871
L302.143 175.993
L300.484 171.9
L296.493 163.929
L294.171 160.061
L290.898 155.957
L286.2 150.751
L282.513 147.986
L278.229 144.863
L270.257 141.364
L263.516 140.014
L262.286 139.744
L254.314 139.744
L253.084 140.014
L246.343 141.364
L238.371 144.863
L234.087 147.986
L230.4 150.751
L225.702 155.957
L222.429 160.061
L220.107 163.929
L216.116 171.9
L214.457 175.993
L213.145 179.871
L210.939 187.843
L209.288 195.814
L208.063 203.786
L207.163 211.757
L206.512 219.729
L206.486 220.157
L206.021 227.7
L205.684 235.671
L205.475 243.643
L205.375 251.614
L205.375 259.586
L205.475 267.557
L205.684 275.529
L206.021 283.5
L206.486 291.043
L206.512 291.471
L207.163 299.443
L208.063 307.414
L209.288 315.386
L210.939 323.357
L213.145 331.329
L214.457 335.207
L216.116 339.3
L220.107 347.271
L222.429 351.139
L225.702 355.243
L230.4 360.449
L234.087 363.214
L238.371 366.337
L246.343 369.836
L253.084 371.186
L254.314 371.456" style="fill:none;stroke:#000000;"/>
   </g>
   <g id="LineCollection_9">
    <path clip-path="url(#pc517c4227e)" d="
M254.314 363.571
L262.286 363.571
L263.808 363.214
L270.257 361.818
L278.229 358.022
L281.771 355.243
L286.2 351.597
L289.796 347.271
L294.171 341.158
L295.186 339.3
L298.967 331.329
L301.825 323.357
L302.143 322.309
L303.953 315.386
L305.551 307.414
L306.743 299.443
L307.62 291.471
L308.251 283.5
L308.684 275.529
L308.954 267.557
L309.084 259.586
L309.084 251.614
L308.954 243.643
L308.684 235.671
L308.251 227.7
L307.62 219.729
L306.743 211.757
L305.551 203.786
L303.953 195.814
L302.143 188.891
L301.825 187.843
L298.967 179.871
L295.186 171.9
L294.171 170.042
L289.796 163.929
L286.2 159.603
L281.771 155.957
L278.229 153.178
L270.257 149.382
L263.808 147.986
L262.286 147.629
L254.314 147.629
L252.792 147.986
L246.343 149.382
L238.371 153.178
L234.829 155.957
L230.4 159.603
L226.804 163.929
L222.429 170.042
L221.414 171.9
L217.633 179.871
L214.775 187.843
L214.457 188.891
L212.647 195.814
L211.049 203.786
L209.857 211.757
L208.98 219.729
L208.349 227.7
L207.916 235.671
L207.646 243.643
L207.516 251.614
L207.516 259.586
L207.646 267.557
L207.916 275.529
L208.349 283.5
L208.98 291.471
L209.857 299.443
L211.049 307.414
L212.647 315.386
L214.457 322.309
L214.775 323.357
L217.633 331.329
L221.414 339.3
L222.429 341.158
L226.804 347.271
L230.4 351.597
L234.829 355.243
L238.371 358.022
L246.343 361.818
L252.792 363.214
L254.314 363.571" style="fill:none;stroke:#000000;"/>
   </g>
   <g id="LineCollection_10">
    <path clip-path="url(#pc517c4227e)" d="
M254.314 356.612
L262.286 356.612
L267.719 355.243
L270.257 354.644
L278.229 350.589
L282.137 347.271
L286.2 343.575
L289.455 339.3
L294.171 331.897
L294.452 331.329
L297.935 323.357
L300.576 315.386
L302.143 309.282
L302.565 307.414
L304.05 299.443
L305.153 291.471
L305.952 283.5
L306.506 275.529
L306.854 267.557
L307.022 259.586
L307.022 251.614
L306.854 243.643
L306.506 235.671
L305.952 227.7
L305.153 219.729
L304.05 211.757
L302.565 203.786
L302.143 201.918
L300.576 195.814
L297.935 187.843
L294.452 179.871
L294.171 179.303
L289.455 171.9
L286.2 167.625
L282.137 163.929
L278.229 160.611
L270.257 156.556
L267.719 155.957
L262.286 154.588
L254.314 154.588
L248.881 155.957
L246.343 156.556
L238.371 160.611
L234.463 163.929
L230.4 167.625
L227.145 171.9
L222.429 179.303
L222.148 179.871
L218.665 187.843
L216.024 195.814
L214.457 201.918
L214.035 203.786
L212.55 211.757
L211.447 219.729
L210.648 227.7
L210.094 235.671
L209.746 243.643
L209.578 251.614
L209.578 259.586
L209.746 267.557
L210.094 275.529
L210.648 283.5
L211.447 291.471
L212.55 299.443
L214.035 307.414
L214.457 309.282
L216.024 315.386
L218.665 323.357
L222.148 331.329
L222.429 331.897
L227.145 339.3
L230.4 343.575
L234.463 347.271
L238.371 350.589
L246.343 354.644
L248.881 355.243
L254.314 356.612" style="fill:none;stroke:#000000;"/>
   </g>
   <g id="LineCollection_11">
    <path clip-path="url(#pc517c4227e)" d="
M246.343 348.173
L254.314 350.298
L262.286 350.298
L270.257 348.173
L271.901 347.271
L278.229 343.784
L283.085 339.3
L286.2 336.14
L289.531 331.329
L294.032 323.357
L294.171 323.072
L297.181 315.386
L299.562 307.414
L301.355 299.443
L302.143 294.896
L302.686 291.471
L303.654 283.5
L304.329 275.529
L304.754 267.557
L304.96 259.586
L304.96 251.614
L304.754 243.643
L304.329 235.671
L303.654 227.7
L302.686 219.729
L302.143 216.304
L301.355 211.757
L299.562 203.786
L297.181 195.814
L294.171 188.128
L294.032 187.843
L289.531 179.871
L286.2 175.06
L283.085 171.9
L278.229 167.416
L271.901 163.929
L270.257 163.027
L262.286 160.902
L254.314 160.902
L246.343 163.027
L244.699 163.929
L238.371 167.416
L233.515 171.9
L230.4 175.06
L227.069 179.871
L222.568 187.843
L222.429 188.128
L219.419 195.814
L217.038 203.786
L215.245 211.757
L214.457 216.304
L213.914 219.729
L212.946 227.7
L212.271 235.671
L211.846 243.643
L211.64 251.614
L211.64 259.586
L211.846 267.557
L212.271 275.529
L212.946 283.5
L213.914 291.471
L214.457 294.896
L215.245 299.443
L217.038 307.414
L219.419 315.386
L222.429 323.072
L222.568 323.357
L227.069 331.329
L230.4 336.14
L233.515 339.3
L238.371 343.784
L244.699 347.271
L246.343 348.173" style="fill:none;stroke:#000000;"/>
   </g>
   <g id="LineCollection_12">
    <path clip-path="url(#pc517c4227e)" d="
M246.343 342.223
L254.314 344.433
L262.286 344.433
L270.257 342.223
L275.166 339.3
L278.229 337.426
L284.254 331.329
L286.2 329.105
L289.787 323.357
L293.752 315.386
L294.171 314.388
L296.558 307.414
L298.655 299.443
L300.219 291.471
L301.359 283.5
L302.143 275.618
L302.151 275.529
L302.654 267.557
L302.898 259.586
L302.898 251.614
L302.654 243.643
L302.151 235.671
L302.143 235.582
L301.359 227.7
L300.219 219.729
L298.655 211.757
L296.558 203.786
L294.171 196.812
L293.752 195.814
L289.787 187.843
L286.2 182.095
L284.254 179.871
L278.229 173.774
L275.166 171.9
L270.257 168.977
L262.286 166.767
L254.314 166.767
L246.343 168.977
L241.434 171.9
L238.371 173.774
L232.346 179.871
L230.4 182.095
L226.813 187.843
L222.848 195.814
L222.429 196.812
L220.042 203.786
L217.945 211.757
L216.381 219.729
L215.241 227.7
L214.457 235.582
L214.449 235.671
L213.946 243.643
L213.702 251.614
L213.702 259.586
L213.946 267.557
L214.449 275.529
L214.457 275.618
L215.241 283.5
L216.381 291.471
L217.945 299.443
L220.042 307.414
L222.429 314.388
L222.848 315.386
L226.813 323.357
L230.4 329.105
L232.346 331.329
L238.371 337.426
L241.434 339.3
L246.343 342.223" style="fill:none;stroke:#000000;"/>
   </g>
   <g id="LineCollection_13">
    <path clip-path="url(#pc517c4227e)" d="
M238.371 331.399
L246.343 336.586
L254.314 338.892
L262.286 338.892
L270.257 336.586
L278.229 331.399
L278.298 331.329
L285.41 323.357
L286.2 322.328
L290.062 315.386
L293.501 307.414
L294.171 305.52
L295.955 299.443
L297.753 291.471
L299.068 283.5
L299.984 275.529
L300.564 267.557
L300.845 259.586
L300.845 251.614
L300.564 243.643
L299.984 235.671
L299.068 227.7
L297.753 219.729
L295.955 211.757
L294.171 205.68
L293.501 203.786
L290.062 195.814
L286.2 188.872
L285.41 187.843
L278.298 179.871
L278.229 179.801
L270.257 174.614
L262.286 172.308
L254.314 172.308
L246.343 174.614
L238.371 179.801
L238.302 179.871
L231.19 187.843
L230.4 188.872
L226.538 195.814
L223.099 203.786
L222.429 205.68
L220.645 211.757
L218.847 219.729
L217.532 227.7
L216.616 235.671
L216.036 243.643
L215.755 251.614
L215.755 259.586
L216.036 267.557
L216.616 275.529
L217.532 283.5
L218.847 291.471
L220.645 299.443
L222.429 305.52
L223.099 307.414
L226.538 315.386
L230.4 322.328
L231.19 323.357
L238.302 331.329
L238.371 331.399" style="fill:none;stroke:#000000;"/>
   </g>
   <g id="LineCollection_14">
    <path clip-path="url(#pc517c4227e)" d="
M254.314 333.758
L262.286 333.758
L269.807 331.329
L270.257 331.184
L278.229 325.695
L280.317 323.357
L286.2 315.694
L286.371 315.386
L290.246 307.414
L293.181 299.443
L294.171 296.026
L295.287 291.471
L296.776 283.5
L297.817 275.529
L298.477 267.557
L298.796 259.586
L298.796 251.614
L298.477 243.643
L297.817 235.671
L296.776 227.7
L295.287 219.729
L294.171 215.174
L293.181 211.757
L290.246 203.786
L286.371 195.814
L286.2 195.506
L280.317 187.843
L278.229 185.505
L270.257 180.016
L269.807 179.871
L262.286 177.442
L254.314 177.442
L246.793 179.871
L246.343 180.016
L238.371 185.505
L236.283 187.843
L230.4 195.506
L230.229 195.814
L226.354 203.786
L223.419 211.757
L222.429 215.174
L221.313 219.729
L219.824 227.7
L218.783 235.671
L218.123 243.643
L217.804 251.614
L217.804 259.586
L218.123 267.557
L218.783 275.529
L219.824 283.5
L221.313 291.471
L222.429 296.026
L223.419 299.443
L226.354 307.414
L230.229 315.386
L230.4 315.694
L236.283 323.357
L238.371 325.695
L246.343 331.184
L246.793 331.329
L254.314 333.758" style="fill:none;stroke:#000000;"/>
   </g>
   <g id="LineCollection_15">
    <path clip-path="url(#pc517c4227e)" d="
M246.343 326.085
L254.314 328.784
L262.286 328.784
L270.257 326.085
L274.048 323.357
L278.229 320.095
L281.99 315.386
L286.2 309.034
L286.991 307.414
L290.264 299.443
L292.716 291.471
L294.171 285.096
L294.485 283.5
L295.65 275.529
L296.389 267.557
L296.748 259.586
L296.748 251.614
L296.389 243.643
L295.65 235.671
L294.485 227.7
L294.171 226.104
L292.716 219.729
L290.264 211.757
L286.991 203.786
L286.2 202.166
L281.99 195.814
L278.229 191.105
L274.048 187.843
L270.257 185.115
L262.286 182.416
L254.314 182.416
L246.343 185.115
L242.552 187.843
L238.371 191.105
L234.61 195.814
L230.4 202.166
L229.609 203.786
L226.336 211.757
L223.884 219.729
L222.429 226.104
L222.115 227.7
L220.95 235.671
L220.211 243.643
L219.852 251.614
L219.852 259.586
L220.211 267.557
L220.95 275.529
L222.115 283.5
L222.429 285.096
L223.884 291.471
L226.336 299.443
L229.609 307.414
L230.4 309.034
L234.61 315.386
L238.371 320.095
L242.552 323.357
L246.343 326.085" style="fill:none;stroke:#000000;"/>
   </g>
   <g id="LineCollection_16">
    <path clip-path="url(#pc517c4227e)" d="
M254.314 323.953
L262.286 323.953
L263.957 323.357
L270.257 321.065
L277.32 315.386
L278.229 314.567
L283.259 307.414
L286.2 302.169
L287.348 299.443
L290.059 291.471
L292.044 283.5
L293.432 275.529
L294.171 268.868
L294.302 267.557
L294.699 259.586
L294.699 251.614
L294.302 243.643
L294.171 242.332
L293.432 235.671
L292.044 227.7
L290.059 219.729
L287.348 211.757
L286.2 209.031
L283.259 203.786
L278.229 196.633
L277.32 195.814
L270.257 190.135
L263.957 187.843
L262.286 187.247
L254.314 187.247
L252.643 187.843
L246.343 190.135
L239.28 195.814
L238.371 196.633
L233.341 203.786
L230.4 209.031
L229.252 211.757
L226.541 219.729
L224.556 227.7
L223.168 235.671
L222.429 242.332
L222.298 243.643
L221.901 251.614
L221.901 259.586
L222.298 267.557
L222.429 268.868
L223.168 275.529
L224.556 283.5
L226.541 291.471
L229.252 299.443
L230.4 302.169
L233.341 307.414
L238.371 314.567
L239.28 315.386
L246.343 321.065
L252.643 323.357
L254.314 323.953" style="fill:none;stroke:#000000;"/>
   </g>
   <g id="LineCollection_17">
    <path clip-path="url(#pc517c4227e)" d="
M246.343 316.135
L254.314 319.269
L262.286 319.269
L270.257 316.135
L271.189 315.386
L278.229 309.043
L279.374 307.414
L284.093 299.443
L286.2 294.874
L287.401 291.471
L289.579 283.5
L291.104 275.529
L292.071 267.557
L292.54 259.586
L292.54 251.614
L292.071 243.643
L291.104 235.671
L289.579 227.7
L287.401 219.729
L286.2 216.326
L284.093 211.757
L279.374 203.786
L278.229 202.157
L271.189 195.814
L270.257 195.065
L262.286 191.931
L254.314 191.931
L246.343 195.065
L245.411 195.814
L238.371 202.157
L237.226 203.786
L232.507 211.757
L230.4 216.326
L229.199 219.729
L227.021 227.7
L225.496 235.671
L224.529 243.643
L224.06 251.614
L224.06 259.586
L224.529 267.557
L225.496 275.529
L227.021 283.5
L229.199 291.471
L230.4 294.874
L232.507 299.443
L237.226 307.414
L238.371 309.043
L245.411 315.386
L246.343 316.135" style="fill:none;stroke:#000000;"/>
   </g>
   <g id="LineCollection_18">
    <path clip-path="url(#pc517c4227e)" d="
M246.343 311.22
L254.314 314.61
L262.286 314.61
L270.257 311.22
L274.43 307.414
L278.229 303.379
L280.618 299.443
L284.467 291.471
L286.2 286.717
L287.114 283.5
L288.776 275.529
L289.83 267.557
L290.342 259.586
L290.342 251.614
L289.83 243.643
L288.776 235.671
L287.114 227.7
L286.2 224.483
L284.467 219.729
L280.618 211.757
L278.229 207.821
L274.43 203.786
L270.257 199.98
L262.286 196.59
L254.314 196.59
L246.343 199.98
L242.17 203.786
L238.371 207.821
L235.982 211.757
L232.133 219.729
L230.4 224.483
L229.486 227.7
L227.824 235.671
L226.77 243.643
L226.258 251.614
L226.258 259.586
L226.77 267.557
L227.824 275.529
L229.486 283.5
L230.4 286.717
L232.133 291.471
L235.982 299.443
L238.371 303.379
L242.17 307.414
L246.343 311.22" style="fill:none;stroke:#000000;"/>
   </g>
   <g id="LineCollection_19">
    <path clip-path="url(#pc517c4227e)" d="
M254.314 309.969
L262.286 309.969
L267.943 307.414
L270.257 306.271
L276.727 299.443
L278.229 297.508
L281.307 291.471
L284.359 283.5
L286.2 276.682
L286.448 275.529
L287.589 267.557
L288.144 259.586
L288.144 251.614
L287.589 243.643
L286.448 235.671
L286.2 234.518
L284.359 227.7
L281.307 219.729
L278.229 213.692
L276.727 211.757
L270.257 204.929
L267.943 203.786
L262.286 201.231
L254.314 201.231
L248.657 203.786
L246.343 204.929
L239.873 211.757
L238.371 213.692
L235.293 219.729
L232.241 227.7
L230.4 234.518
L230.152 235.671
L229.011 243.643
L228.456 251.614
L228.456 259.586
L229.011 267.557
L230.152 275.529
L230.4 276.682
L232.241 283.5
L235.293 291.471
L238.371 297.508
L239.873 299.443
L246.343 306.271
L248.657 307.414
L254.314 309.969" style="fill:none;stroke:#000000;"/>
   </g>
   <g id="LineCollection_20">
    <path clip-path="url(#pc517c4227e)" d="
M246.343 301.195
L254.314 305.261
L262.286 305.261
L270.257 301.195
L271.918 299.443
L278.115 291.471
L278.229 291.286
L281.431 283.5
L283.732 275.529
L285.191 267.557
L285.899 259.586
L285.899 251.614
L285.191 243.643
L283.732 235.671
L281.431 227.7
L278.229 219.914
L278.115 219.729
L271.918 211.757
L270.257 210.005
L262.286 205.939
L254.314 205.939
L246.343 210.005
L244.682 211.757
L238.485 219.729
L238.371 219.914
L235.169 227.7
L232.868 235.671
L231.409 243.643
L230.701 251.614
L230.701 259.586
L231.409 267.557
L232.868 275.529
L235.169 283.5
L238.371 291.286
L238.485 291.471
L244.682 299.443
L246.343 301.195" style="fill:none;stroke:#000000;"/>
   </g>
   <g id="LineCollection_21">
    <path clip-path="url(#pc517c4227e)" d="
M254.314 300.471
L262.286 300.471
L264.254 299.443
L270.257 295.85
L273.744 291.471
L278.229 284.17
L278.504 283.5
L280.97 275.529
L282.534 267.557
L283.293 259.586
L283.293 251.614
L282.534 243.643
L280.97 235.671
L278.504 227.7
L278.229 227.03
L273.744 219.729
L270.257 215.35
L264.254 211.757
L262.286 210.729
L254.314 210.729
L252.346 211.757
L246.343 215.35
L242.856 219.729
L238.371 227.03
L238.096 227.7
L235.63 235.671
L234.066 243.643
L233.307 251.614
L233.307 259.586
L234.066 267.557
L235.63 275.529
L238.096 283.5
L238.371 284.17
L242.856 291.471
L246.343 295.85
L252.346 299.443
L254.314 300.471" style="fill:none;stroke:#000000;"/>
   </g>
   <g id="LineCollection_22">
    <path clip-path="url(#pc517c4227e)" d="
M254.314 295.38
L262.286 295.38
L268.575 291.471
L270.257 290.201
L274.565 283.5
L278.2 275.529
L278.229 275.432
L279.878 267.557
L280.688 259.586
L280.688 251.614
L279.878 243.643
L278.229 235.768
L278.2 235.671
L274.565 227.7
L270.257 220.999
L268.575 219.729
L262.286 215.82
L254.314 215.82
L248.025 219.729
L246.343 220.999
L242.035 227.7
L238.4 235.671
L238.371 235.768
L236.722 243.643
L235.912 251.614
L235.912 259.586
L236.722 267.557
L238.371 275.432
L238.4 275.529
L242.035 283.5
L246.343 290.201
L248.025 291.471
L254.314 295.38" style="fill:none;stroke:#000000;"/>
   </g>
   <g id="LineCollection_23">
    <path clip-path="url(#pc517c4227e)" d="
M246.343 283.911
L254.314 290.022
L262.286 290.022
L270.257 283.911
L270.521 283.5
L274.386 275.529
L276.838 267.557
L278.028 259.586
L278.028 251.614
L276.838 243.643
L274.386 235.671
L270.521 227.7
L270.257 227.289
L262.286 221.178
L254.314 221.178
L246.343 227.289
L246.079 227.7
L242.214 235.671
L239.762 243.643
L238.572 251.614
L238.572 259.586
L239.762 267.557
L242.214 275.529
L246.079 283.5
L246.343 283.911" style="fill:none;stroke:#000000;"/>
   </g>
   <g id="LineCollection_24">
    <path clip-path="url(#pc517c4227e)" d="
M254.314 284.096
L262.286 284.096
L263.06 283.5
L270.257 276.177
L270.573 275.529
L273.172 267.557
L274.434 259.586
L274.434 251.614
L273.172 243.643
L270.573 235.671
L270.257 235.023
L263.06 227.7
L262.286 227.104
L254.314 227.104
L253.54 227.7
L246.343 235.023
L246.027 235.671
L243.428 243.643
L242.166 251.614
L242.166 259.586
L243.428 267.557
L246.027 275.529
L246.343 276.177
L253.54 283.5
L254.314 284.096" style="fill:none;stroke:#000000;"/>
   </g>
   <g id="LineCollection_25">
    <path clip-path="url(#pc517c4227e)" d="
M254.314 276.864
L262.286 276.864
L263.6 275.529
L268.828 267.557
L270.257 263.106
L270.839 259.586
L270.839 251.614
L270.257 248.094
L268.828 243.643
L263.6 235.671
L262.286 234.336
L254.314 234.336
L253 235.671
L247.772 243.643
L246.343 248.094
L245.761 251.614
L245.761 259.586
L246.343 263.106
L247.772 267.557
L253 275.529
L254.314 276.864" style="fill:none;stroke:#000000;"/>
   </g>
   <g id="LineCollection_26">
    <path clip-path="url(#pc517c4227e)" d="
M254.314 266.286
L262.286 266.286
L264.527 259.586
L264.527 251.614
L262.286 244.914
L254.314 244.914
L252.073 251.614
L252.073 259.586
L254.314 266.286" style="fill:none;stroke:#000000;"/>
   </g>
   <g id="patch_3">
    <path d="
M63 51.12
L453.6 51.12" style="fill:none;stroke:#000000;stroke-linecap:square;stroke-linejoin:miter;"/>
   </g>
   <g id="patch_4">
    <path d="
M453.6 460.08
L453.6 51.12" style="fill:none;stroke:#000000;stroke-linecap:square;stroke-linejoin:miter;"/>
   </g>
   <g id="patch_5">
    <path d="
M63 460.08
L453.6 460.08" style="fill:none;stroke:#000000;stroke-linecap:square;stroke-linejoin:miter;"/>
   </g>
   <g id="patch_6">
    <path d="
M63 460.08
L63 51.12" style="fill:none;stroke:#000000;stroke-linecap:square;stroke-linejoin:miter;"/>
   </g>
   <g id="matplotlib.axis_1">
    <g id="xtick_1">
     <g id="line2d_1">
      <defs>
       <path d="
M0 0
L0 -4" id="m93b0483c22" style="stroke:#000000;stroke-width:0.5;"/>
      </defs>
      <g>
       <use style="stroke:#000000;stroke-width:0.5;" x="63.0" xlink:href="#m93b0483c22" y="460.08"/>
      </g>
     </g>
     <g id="line2d_2">
      <defs>
       <path d="
M0 0
L0 4" id="m741efc42ff" style="stroke:#000000;stroke-width:0.5;"/>
      </defs>
      <g>
       <use style="stroke:#000000;stroke-width:0.5;" x="63.0" xlink:href="#m741efc42ff" y="51.12"/>
      </g>
     </g>
     <g id="text_1">
      <!-- 3 -->
      <defs>
       <path d="
M10.5938 35.5
L73.1875 35.5
L73.1875 27.2031
L10.5938 27.2031
z
" id="BitstreamVeraSans-Roman-2212"/>
       <path d="
M40.5781 39.3125
Q47.6562 37.7969 51.625 33
Q55.6094 28.2188 55.6094 21.1875
Q55.6094 10.4062 48.1875 4.48438
Q40.7656 -1.42188 27.0938 -1.42188
Q22.5156 -1.42188 17.6562 -0.515625
Q12.7969 0.390625 7.625 2.20312
L7.625 11.7188
Q11.7188 9.32812 16.5938 8.10938
Q21.4844 6.89062 26.8125 6.89062
Q36.0781 6.89062 40.9375 10.5469
Q45.7969 14.2031 45.7969 21.1875
Q45.7969 27.6406 41.2812 31.2656
Q36.7656 34.9062 28.7188 34.9062
L20.2188 34.9062
L20.2188 43.0156
L29.1094 43.0156
Q36.375 43.0156 40.2344 45.9219
Q44.0938 48.8281 44.0938 54.2969
Q44.0938 59.9062 40.1094 62.9062
Q36.1406 65.9219 28.7188 65.9219
Q24.6562 65.9219 20.0156 65.0312
Q15.375 64.1562 9.8125 62.3125
L9.8125 71.0938
Q15.4375 72.6562 20.3438 73.4375
Q25.25 74.2188 29.5938 74.2188
Q40.8281 74.2188 47.3594 69.1094
Q53.9062 64.0156 53.9062 55.3281
Q53.9062 49.2656 50.4375 45.0938
Q46.9688 40.9219 40.5781 39.3125" id="BitstreamVeraSans-Roman-33"/>
      </defs>
      <g transform="translate(55.27125 473.198125)scale(0.12 -0.12)">
       <use xlink:href="#BitstreamVeraSans-Roman-2212"/>
       <use x="83.7890625" xlink:href="#BitstreamVeraSans-Roman-33"/>
      </g>
     </g>
    </g>
    <g id="xtick_2">
     <g id="line2d_3">
      <g>
       <use style="stroke:#000000;stroke-width:0.5;" x="128.1" xlink:href="#m93b0483c22" y="460.08"/>
      </g>
     </g>
     <g id="line2d_4">
      <g>
       <use style="stroke:#000000;stroke-width:0.5;" x="128.1" xlink:href="#m741efc42ff" y="51.12"/>
      </g>
     </g>
     <g id="text_2">
      <!-- 2 -->
      <defs>
       <path d="
M19.1875 8.29688
L53.6094 8.29688
L53.6094 0
L7.32812 0
L7.32812 8.29688
Q12.9375 14.1094 22.625 23.8906
Q32.3281 33.6875 34.8125 36.5312
Q39.5469 41.8438 41.4219 45.5312
Q43.3125 49.2188 43.3125 52.7812
Q43.3125 58.5938 39.2344 62.25
Q35.1562 65.9219 28.6094 65.9219
Q23.9688 65.9219 18.8125 64.3125
Q13.6719 62.7031 7.8125 59.4219
L7.8125 69.3906
Q13.7656 71.7812 18.9375 73
Q24.125 74.2188 28.4219 74.2188
Q39.75 74.2188 46.4844 68.5469
Q53.2188 62.8906 53.2188 53.4219
Q53.2188 48.9219 51.5312 44.8906
Q49.8594 40.875 45.4062 35.4062
Q44.1875 33.9844 37.6406 27.2188
Q31.1094 20.4531 19.1875 8.29688" id="BitstreamVeraSans-Roman-32"/>
      </defs>
      <g transform="translate(120.49125 473.198125)scale(0.12 -0.12)">
       <use xlink:href="#BitstreamVeraSans-Roman-2212"/>
       <use x="83.7890625" xlink:href="#BitstreamVeraSans-Roman-32"/>
      </g>
     </g>
    </g>
    <g id="xtick_3">
     <g id="line2d_5">
      <g>
       <use style="stroke:#000000;stroke-width:0.5;" x="193.2" xlink:href="#m93b0483c22" y="460.08"/>
      </g>
     </g>
     <g id="line2d_6">
      <g>
       <use style="stroke:#000000;stroke-width:0.5;" x="193.2" xlink:href="#m741efc42ff" y="51.12"/>
      </g>
     </g>
     <g id="text_3">
      <!-- 1 -->
      <defs>
       <path d="
M12.4062 8.29688
L28.5156 8.29688
L28.5156 63.9219
L10.9844 60.4062
L10.9844 69.3906
L28.4219 72.9062
L38.2812 72.9062
L38.2812 8.29688
L54.3906 8.29688
L54.3906 0
L12.4062 0
z
" id="BitstreamVeraSans-Roman-31"/>
      </defs>
      <g transform="translate(185.544375 473.198125)scale(0.12 -0.12)">
       <use xlink:href="#BitstreamVeraSans-Roman-2212"/>
       <use x="83.7890625" xlink:href="#BitstreamVeraSans-Roman-31"/>
      </g>
     </g>
    </g>
    <g id="xtick_4">
     <g id="line2d_7">
      <g>
       <use style="stroke:#000000;stroke-width:0.5;" x="258.3" xlink:href="#m93b0483c22" y="460.08"/>
      </g>
     </g>
     <g id="line2d_8">
      <g>
       <use style="stroke:#000000;stroke-width:0.5;" x="258.3" xlink:href="#m741efc42ff" y="51.12"/>
      </g>
     </g>
     <g id="text_4">
      <!-- 0 -->
      <defs>
       <path d="
M31.7812 66.4062
Q24.1719 66.4062 20.3281 58.9062
Q16.5 51.4219 16.5 36.375
Q16.5 21.3906 20.3281 13.8906
Q24.1719 6.39062 31.7812 6.39062
Q39.4531 6.39062 43.2812 13.8906
Q47.125 21.3906 47.125 36.375
Q47.125 51.4219 43.2812 58.9062
Q39.4531 66.4062 31.7812 66.4062
M31.7812 74.2188
Q44.0469 74.2188 50.5156 64.5156
Q56.9844 54.8281 56.9844 36.375
Q56.9844 17.9688 50.5156 8.26562
Q44.0469 -1.42188 31.7812 -1.42188
Q19.5312 -1.42188 13.0625 8.26562
Q6.59375 17.9688 6.59375 36.375
Q6.59375 54.8281 13.0625 64.5156
Q19.5312 74.2188 31.7812 74.2188" id="BitstreamVeraSans-Roman-30"/>
      </defs>
      <g transform="translate(255.2765625 473.198125)scale(0.12 -0.12)">
       <use xlink:href="#BitstreamVeraSans-Roman-30"/>
      </g>
     </g>
    </g>
    <g id="xtick_5">
     <g id="line2d_9">
      <g>
       <use style="stroke:#000000;stroke-width:0.5;" x="323.4" xlink:href="#m93b0483c22" y="460.08"/>
      </g>
     </g>
     <g id="line2d_10">
      <g>
       <use style="stroke:#000000;stroke-width:0.5;" x="323.4" xlink:href="#m741efc42ff" y="51.12"/>
      </g>
     </g>
     <g id="text_5">
      <!-- 1 -->
      <g transform="translate(320.795625 473.198125)scale(0.12 -0.12)">
       <use xlink:href="#BitstreamVeraSans-Roman-31"/>
      </g>
     </g>
    </g>
    <g id="xtick_6">
     <g id="line2d_11">
      <g>
       <use style="stroke:#000000;stroke-width:0.5;" x="388.5" xlink:href="#m93b0483c22" y="460.08"/>
      </g>
     </g>
     <g id="line2d_12">
      <g>
       <use style="stroke:#000000;stroke-width:0.5;" x="388.5" xlink:href="#m741efc42ff" y="51.12"/>
      </g>
     </g>
     <g id="text_6">
      <!-- 2 -->
      <g transform="translate(385.723125 473.198125)scale(0.12 -0.12)">
       <use xlink:href="#BitstreamVeraSans-Roman-32"/>
      </g>
     </g>
    </g>
    <g id="xtick_7">
     <g id="line2d_13">
      <g>
       <use style="stroke:#000000;stroke-width:0.5;" x="453.6" xlink:href="#m93b0483c22" y="460.08"/>
      </g>
     </g>
     <g id="line2d_14">
      <g>
       <use style="stroke:#000000;stroke-width:0.5;" x="453.6" xlink:href="#m741efc42ff" y="51.12"/>
      </g>
     </g>
     <g id="text_7">
      <!-- 3 -->
      <g transform="translate(450.7209375 473.198125)scale(0.12 -0.12)">
       <use xlink:href="#BitstreamVeraSans-Roman-33"/>
      </g>
     </g>
    </g>
   </g>
   <g id="matplotlib.axis_2">
    <g id="ytick_1">
     <g id="line2d_15">
      <defs>
       <path d="
M0 0
L4 0" id="m728421d6d4" style="stroke:#000000;stroke-width:0.5;"/>
      </defs>
      <g>
       <use style="stroke:#000000;stroke-width:0.5;" x="63.0" xlink:href="#m728421d6d4" y="450.9"/>
      </g>
     </g>
     <g id="line2d_16">
      <defs>
       <path d="
M0 0
L-4 0" id="mcb0005524f" style="stroke:#000000;stroke-width:0.5;"/>
      </defs>
      <g>
       <use style="stroke:#000000;stroke-width:0.5;" x="453.6" xlink:href="#mcb0005524f" y="450.9"/>
      </g>
     </g>
     <g id="text_8">
      <!-- 3 -->
      <g transform="translate(43.5425 454.21125)scale(0.12 -0.12)">
       <use xlink:href="#BitstreamVeraSans-Roman-2212"/>
       <use x="83.7890625" xlink:href="#BitstreamVeraSans-Roman-33"/>
      </g>
     </g>
    </g>
    <g id="ytick_2">
     <g id="line2d_17">
      <g>
       <use style="stroke:#000000;stroke-width:0.5;" x="63.0" xlink:href="#m728421d6d4" y="385.8"/>
      </g>
     </g>
     <g id="line2d_18">
      <g>
       <use style="stroke:#000000;stroke-width:0.5;" x="453.6" xlink:href="#mcb0005524f" y="385.8"/>
      </g>
     </g>
     <g id="text_9">
      <!-- 2 -->
      <g transform="translate(43.7825 389.11125)scale(0.12 -0.12)">
       <use xlink:href="#BitstreamVeraSans-Roman-2212"/>
       <use x="83.7890625" xlink:href="#BitstreamVeraSans-Roman-32"/>
      </g>
     </g>
    </g>
    <g id="ytick_3">
     <g id="line2d_19">
      <g>
       <use style="stroke:#000000;stroke-width:0.5;" x="63.0" xlink:href="#m728421d6d4" y="320.7"/>
      </g>
     </g>
     <g id="line2d_20">
      <g>
       <use style="stroke:#000000;stroke-width:0.5;" x="453.6" xlink:href="#mcb0005524f" y="320.7"/>
      </g>
     </g>
     <g id="text_10">
      <!-- 1 -->
      <g transform="translate(43.68875 324.01125)scale(0.12 -0.12)">
       <use xlink:href="#BitstreamVeraSans-Roman-2212"/>
       <use x="83.7890625" xlink:href="#BitstreamVeraSans-Roman-31"/>
      </g>
     </g>
    </g>
    <g id="ytick_4">
     <g id="line2d_21">
      <g>
       <use style="stroke:#000000;stroke-width:0.5;" x="63.0" xlink:href="#m728421d6d4" y="255.6"/>
      </g>
     </g>
     <g id="line2d_22">
      <g>
       <use style="stroke:#000000;stroke-width:0.5;" x="453.6" xlink:href="#mcb0005524f" y="255.6"/>
      </g>
     </g>
     <g id="text_11">
      <!-- 0 -->
      <g transform="translate(52.953125 258.91125)scale(0.12 -0.12)">
       <use xlink:href="#BitstreamVeraSans-Roman-30"/>
      </g>
     </g>
    </g>
    <g id="ytick_5">
     <g id="line2d_23">
      <g>
       <use style="stroke:#000000;stroke-width:0.5;" x="63.0" xlink:href="#m728421d6d4" y="190.5"/>
      </g>
     </g>
     <g id="line2d_24">
      <g>
       <use style="stroke:#000000;stroke-width:0.5;" x="453.6" xlink:href="#mcb0005524f" y="190.5"/>
      </g>
     </g>
     <g id="text_12">
      <!-- 1 -->
      <g transform="translate(53.79125 193.81125)scale(0.12 -0.12)">
       <use xlink:href="#BitstreamVeraSans-Roman-31"/>
      </g>
     </g>
    </g>
    <g id="ytick_6">
     <g id="line2d_25">
      <g>
       <use style="stroke:#000000;stroke-width:0.5;" x="63.0" xlink:href="#m728421d6d4" y="125.4"/>
      </g>
     </g>
     <g id="line2d_26">
      <g>
       <use style="stroke:#000000;stroke-width:0.5;" x="453.6" xlink:href="#mcb0005524f" y="125.4"/>
      </g>
     </g>
     <g id="text_13">
      <!-- 2 -->
      <g transform="translate(53.44625 128.71125)scale(0.12 -0.12)">
       <use xlink:href="#BitstreamVeraSans-Roman-32"/>
      </g>
     </g>
    </g>
    <g id="ytick_7">
     <g id="line2d_27">
      <g>
       <use style="stroke:#000000;stroke-width:0.5;" x="63.0" xlink:href="#m728421d6d4" y="60.3"/>
      </g>
     </g>
     <g id="line2d_28">
      <g>
       <use style="stroke:#000000;stroke-width:0.5;" x="453.6" xlink:href="#mcb0005524f" y="60.3"/>
      </g>
     </g>
     <g id="text_14">
      <!-- 3 -->
      <g transform="translate(53.241875 63.61125)scale(0.12 -0.12)">
       <use xlink:href="#BitstreamVeraSans-Roman-33"/>
      </g>
     </g>
    </g>
   </g>
  </g>
 </g>
 <defs>
  <clipPath id="pc517c4227e">
   <rect height="408.96" width="390.6" x="63.0" y="51.12"/>
  </clipPath>
 </defs>
</svg>
