<?xml version="1.0" encoding="utf-8" standalone="no"?>
<!DOCTYPE svg PUBLIC "-//W3C//DTD SVG 1.1//EN"
  "http://www.w3.org/Graphics/SVG/1.1/DTD/svg11.dtd">
<!-- Created with matplotlib (http://matplotlib.org/) -->
<svg height="511pt" version="1.1" viewBox="0 0 504 511" width="504pt" xmlns="http://www.w3.org/2000/svg" xmlns:xlink="http://www.w3.org/1999/xlink">
 <defs>
  <style type="text/css">
*{stroke-linecap:butt;stroke-linejoin:round;}
  </style>
 </defs>
 <g id="figure_1">
  <g id="patch_1">
   <path d="
M0 511.2
L504 511.2
L504 0
L0 0
z
" style="fill:#ffffff;"/>
  </g>
  <g id="axes_1">
   <g id="patch_2">
    <path d="
M63 460.08
L453.6 460.08
L453.6 51.12
L63 51.12
z
" style="fill:#ffffff;"/>
   </g>
   <g id="Quiver_1">
    <path clip-path="url(#pc517c4227e)" d="
M62.4476 450.348
L62.2454 451.102
L62.7978 451.655
L63.5524 451.452
L63.7546 450.698
L63.2022 450.145
L62.4476 450.348
L62.2454 451.102"/>
    <path clip-path="url(#pc517c4227e)" d="
M90.3069 450.392
L90.1631 451.159
L90.7563 451.668
L91.4931 451.408
L91.6369 450.641
L91.0437 450.132
L90.3069 450.392
L90.1631 451.159"/>
    <path clip-path="url(#pc517c4227e)" d="
M118.164 450.446
L118.089 451.223
L118.725 451.678
L119.436 451.354
L119.511 450.577
L118.875 450.122
L118.164 450.446
L118.089 451.223"/>
    <path clip-path="url(#pc517c4227e)" d="
M146.022 450.512
L146.025 451.294
L146.703 451.681
L147.378 451.288
L147.375 450.506
L146.697 450.119
L146.022 450.512
L146.025 451.294"/>
    <path clip-path="url(#pc517c4227e)" d="
M173.882 450.592
L173.974 451.368
L174.693 451.676
L175.318 451.208
L175.226 450.432
L174.507 450.124
L173.882 450.592
L173.974 451.368"/>
    <path clip-path="url(#pc517c4227e)" d="
M201.749 450.685
L201.939 451.443
L202.69 451.658
L203.251 451.115
L203.061 450.357
L202.31 450.142
L201.749 450.685
L201.939 451.443"/>
    <path clip-path="url(#pc517c4227e)" d="
M229.627 450.79
L229.918 451.515
L230.691 451.625
L231.173 451.01
L230.882 450.285
L230.109 450.175
L229.627 450.79
L229.918 451.515"/>
    <path clip-path="url(#pc517c4227e)" d="
M257.519 450.9
L257.909 451.577
L258.691 451.577
L259.081 450.9
L258.691 450.223
L257.909 450.223
L257.519 450.9
L257.909 451.577"/>
    <path clip-path="url(#pc517c4227e)" d="
M285.427 451.01
L285.909 451.625
L286.682 451.515
L286.973 450.79
L286.491 450.175
L285.718 450.285
L285.427 451.01
L285.909 451.625"/>
    <path clip-path="url(#pc517c4227e)" d="
M313.349 451.115
L313.91 451.658
L314.661 451.443
L314.851 450.685
L314.29 450.142
L313.539 450.357
L313.349 451.115
L313.91 451.658"/>
    <path clip-path="url(#pc517c4227e)" d="
M341.282 451.208
L341.907 451.676
L342.626 451.368
L342.718 450.592
L342.093 450.124
L341.374 450.432
L341.282 451.208
L341.907 451.676"/>
    <path clip-path="url(#pc517c4227e)" d="
M369.222 451.288
L369.897 451.681
L370.575 451.294
L370.578 450.512
L369.903 450.119
L369.225 450.506
L369.222 451.288
L369.897 451.681"/>
    <path clip-path="url(#pc517c4227e)" d="
M397.164 451.354
L397.875 451.678
L398.511 451.223
L398.436 450.446
L397.725 450.122
L397.089 450.577
L397.164 451.354
L397.875 451.678"/>
    <path clip-path="url(#pc517c4227e)" d="
M425.107 451.408
L425.844 451.668
L426.437 451.159
L426.293 450.392
L425.556 450.132
L424.963 450.641
L425.107 451.408
L425.844 451.668"/>
    <path clip-path="url(#pc517c4227e)" d="
M453.048 451.452
L453.802 451.655
L454.355 451.102
L454.152 450.348
L453.398 450.145
L452.845 450.698
L453.048 451.452
L453.802 451.655"/>
    <path clip-path="url(#pc517c4227e)" d="
M62.4916 422.407
L62.2321 423.144
L62.7405 423.737
L63.5084 423.593
L63.7679 422.856
L63.2595 422.263
L62.4916 422.407
L62.2321 423.144"/>
    <path clip-path="url(#pc517c4227e)" d="
M90.3476 422.448
L90.1454 423.202
L90.6978 423.755
L91.4524 423.552
L91.6546 422.798
L91.1022 422.245
L90.3476 422.448
L90.1454 423.202"/>
    <path clip-path="url(#pc517c4227e)" d="
M118.2 422.5
L118.067 423.27
L118.667 423.77
L119.4 423.5
L119.533 422.73
L118.933 422.23
L118.2 422.5
L118.067 423.27"/>
    <path clip-path="url(#pc517c4227e)" d="
M146.05 422.567
L146 423.346
L146.65 423.78
L147.35 423.433
L147.4 422.654
L146.75 422.22
L146.05 422.567
L146 423.346"/>
    <path clip-path="url(#pc517c4227e)" d="
M173.901 422.651
L173.948 423.43
L174.647 423.78
L175.299 423.349
L175.252 422.57
L174.553 422.22
L173.901 422.651
L173.948 423.43"/>
    <path clip-path="url(#pc517c4227e)" d="
M201.759 422.753
L201.916 423.518
L202.657 423.765
L203.241 423.247
L203.084 422.482
L202.343 422.235
L201.759 422.753
L201.916 423.518"/>
    <path clip-path="url(#pc517c4227e)" d="
M229.629 422.872
L229.903 423.603
L230.674 423.732
L231.171 423.128
L230.897 422.397
L230.126 422.268
L229.629 422.872
L229.903 423.603"/>
    <path clip-path="url(#pc517c4227e)" d="
M257.519 423
L257.909 423.677
L258.691 423.677
L259.081 423
L258.691 422.323
L257.909 422.323
L257.519 423
L257.909 423.677"/>
    <path clip-path="url(#pc517c4227e)" d="
M285.429 423.128
L285.926 423.732
L286.697 423.603
L286.971 422.872
L286.474 422.268
L285.703 422.397
L285.429 423.128
L285.926 423.732"/>
    <path clip-path="url(#pc517c4227e)" d="
M313.359 423.247
L313.943 423.765
L314.684 423.518
L314.841 422.753
L314.257 422.235
L313.516 422.482
L313.359 423.247
L313.943 423.765"/>
    <path clip-path="url(#pc517c4227e)" d="
M341.301 423.349
L341.953 423.78
L342.652 423.43
L342.699 422.651
L342.047 422.22
L341.348 422.57
L341.301 423.349
L341.953 423.78"/>
    <path clip-path="url(#pc517c4227e)" d="
M369.25 423.433
L369.95 423.78
L370.6 423.346
L370.55 422.567
L369.85 422.22
L369.2 422.654
L369.25 423.433
L369.95 423.78"/>
    <path clip-path="url(#pc517c4227e)" d="
M397.2 423.5
L397.933 423.77
L398.533 423.27
L398.4 422.5
L397.667 422.23
L397.067 422.73
L397.2 423.5
L397.933 423.77"/>
    <path clip-path="url(#pc517c4227e)" d="
M425.148 423.552
L425.902 423.755
L426.455 423.202
L426.252 422.448
L425.498 422.245
L424.945 422.798
L425.148 423.552
L425.902 423.755"/>
    <path clip-path="url(#pc517c4227e)" d="
M453.092 423.593
L453.859 423.737
L454.368 423.144
L454.108 422.407
L453.341 422.263
L452.832 422.856
L453.092 423.593
L453.859 423.737"/>
    <path clip-path="url(#pc517c4227e)" d="
M62.5459 394.464
L62.2224 395.175
L62.6765 395.811
L63.4541 395.736
L63.7776 395.025
L63.3235 394.389
L62.5459 394.464
L62.2224 395.175"/>
    <path clip-path="url(#pc517c4227e)" d="
M90.3999 394.5
L90.1302 395.233
L90.6303 395.833
L91.4001 395.7
L91.6698 394.967
L91.1697 394.367
L90.3999 394.5
L90.1302 395.233"/>
    <path clip-path="url(#pc517c4227e)" d="
M118.248 394.548
L118.045 395.302
L118.598 395.855
L119.352 395.652
L119.555 394.898
L119.002 394.345
L118.248 394.548
L118.045 395.302"/>
    <path clip-path="url(#pc517c4227e)" d="
M146.09 394.612
L145.972 395.384
L146.582 395.872
L147.31 395.588
L147.428 394.816
L146.818 394.328
L146.09 394.612
L145.972 395.384"/>
    <path clip-path="url(#pc517c4227e)" d="
M173.93 394.698
L173.917 395.479
L174.587 395.881
L175.27 395.502
L175.283 394.721
L174.613 394.319
L173.93 394.698
L173.917 395.479"/>
    <path clip-path="url(#pc517c4227e)" d="
M201.775 394.81
L201.886 395.583
L202.611 395.873
L203.225 395.39
L203.114 394.617
L202.389 394.327
L201.775 394.81
L201.886 395.583"/>
    <path clip-path="url(#pc517c4227e)" d="
M230.355 395.325
L230.13 395.28
L230.265 395.774
L228.153 394.651
L230.535 394.426
L230.22 394.83
L230.445 394.875
L230.355 395.325"/>
    <path clip-path="url(#pc517c4227e)" d="
M258.3 395.37
L258.03 395.37
L258.3 395.91
L255.6 395.1
L258.3 394.29
L258.03 394.83
L258.3 394.83
L258.3 395.37"/>
    <path clip-path="url(#pc517c4227e)" d="
M286.245 395.325
L286.02 395.37
L286.335 395.774
L283.953 395.549
L286.065 394.426
L285.93 394.92
L286.155 394.875
L286.245 395.325"/>
    <path clip-path="url(#pc517c4227e)" d="
M313.375 395.39
L313.989 395.873
L314.714 395.583
L314.825 394.81
L314.211 394.327
L313.486 394.617
L313.375 395.39
L313.989 395.873"/>
    <path clip-path="url(#pc517c4227e)" d="
M341.33 395.502
L342.013 395.881
L342.683 395.479
L342.67 394.698
L341.987 394.319
L341.317 394.721
L341.33 395.502
L342.013 395.881"/>
    <path clip-path="url(#pc517c4227e)" d="
M369.29 395.588
L370.018 395.872
L370.628 395.384
L370.51 394.612
L369.782 394.328
L369.172 394.816
L369.29 395.588
L370.018 395.872"/>
    <path clip-path="url(#pc517c4227e)" d="
M397.248 395.652
L398.002 395.855
L398.555 395.302
L398.352 394.548
L397.598 394.345
L397.045 394.898
L397.248 395.652
L398.002 395.855"/>
    <path clip-path="url(#pc517c4227e)" d="
M425.2 395.7
L425.97 395.833
L426.47 395.233
L426.2 394.5
L425.43 394.367
L424.93 394.967
L425.2 395.7
L425.97 395.833"/>
    <path clip-path="url(#pc517c4227e)" d="
M453.146 395.736
L453.923 395.811
L454.378 395.175
L454.054 394.464
L453.277 394.389
L452.822 395.025
L453.146 395.736
L453.923 395.811"/>
    <path clip-path="url(#pc517c4227e)" d="
M62.6124 366.522
L62.2188 367.197
L62.6064 367.875
L63.3876 367.878
L63.7812 367.203
L63.3936 366.525
L62.6124 366.522
L62.2188 367.197"/>
    <path clip-path="url(#pc517c4227e)" d="
M90.4667 366.55
L90.1204 367.25
L90.5538 367.9
L91.3333 367.85
L91.6796 367.15
L91.2462 366.5
L90.4667 366.55
L90.1204 367.25"/>
    <path clip-path="url(#pc517c4227e)" d="
M118.312 366.59
L118.028 367.318
L118.516 367.928
L119.288 367.81
L119.572 367.082
L119.084 366.472
L118.312 366.59
L118.028 367.318"/>
    <path clip-path="url(#pc517c4227e)" d="
M146.148 366.648
L145.945 367.402
L146.498 367.955
L147.252 367.752
L147.455 366.998
L146.902 366.445
L146.148 366.648
L145.945 367.402"/>
    <path clip-path="url(#pc517c4227e)" d="
M174.438 367.416
L174.222 367.254
L174.114 367.848
L172.44 365.58
L175.086 366.552
L174.546 366.822
L174.762 366.984
L174.438 367.416"/>
    <path clip-path="url(#pc517c4227e)" d="
M202.229 367.741
L201.688 367.471
L201.688 368.823
L197.089 364.494
L203.312 365.577
L202.229 366.388
L202.771 366.659
L202.229 367.741"/>
    <path clip-path="url(#pc517c4227e)" d="
M230.211 367.958
L227.643 367.316
L228.022 369.021
L221.011 364.853
L229.159 364.474
L228.022 365.8
L230.589 366.442
L230.211 367.958"/>
    <path clip-path="url(#pc517c4227e)" d="
M258.3 367.981
L254.049 367.981
L254.83 369.544
L247.018 367.2
L254.83 364.856
L254.049 366.419
L258.3 366.419
L258.3 367.981"/>
    <path clip-path="url(#pc517c4227e)" d="
M286.389 367.958
L283.822 368.6
L284.959 369.926
L276.811 369.547
L283.822 365.379
L283.443 367.084
L286.011 366.442
L286.389 367.958"/>
    <path clip-path="url(#pc517c4227e)" d="
M314.371 367.741
L313.829 368.012
L314.912 368.823
L308.689 369.906
L313.288 365.577
L313.288 366.929
L313.829 366.659
L314.371 367.741"/>
    <path clip-path="url(#pc517c4227e)" d="
M342.162 367.416
L341.946 367.578
L342.486 367.848
L339.84 368.82
L341.514 366.552
L341.622 367.146
L341.838 366.984
L342.162 367.416"/>
    <path clip-path="url(#pc517c4227e)" d="
M369.348 367.752
L370.102 367.955
L370.655 367.402
L370.452 366.648
L369.698 366.445
L369.145 366.998
L369.348 367.752
L370.102 367.955"/>
    <path clip-path="url(#pc517c4227e)" d="
M397.312 367.81
L398.084 367.928
L398.572 367.318
L398.288 366.59
L397.516 366.472
L397.028 367.082
L397.312 367.81
L398.084 367.928"/>
    <path clip-path="url(#pc517c4227e)" d="
M425.267 367.85
L426.046 367.9
L426.48 367.25
L426.133 366.55
L425.354 366.5
L424.92 367.15
L425.267 367.85
L426.046 367.9"/>
    <path clip-path="url(#pc517c4227e)" d="
M453.212 367.878
L453.994 367.875
L454.381 367.197
L453.988 366.522
L453.206 366.525
L452.819 367.203
L453.212 367.878
L453.994 367.875"/>
    <path clip-path="url(#pc517c4227e)" d="
M62.6923 338.582
L62.2243 339.207
L62.532 339.926
L63.3077 340.018
L63.7757 339.393
L63.468 338.674
L62.6923 338.582
L62.2243 339.207"/>
    <path clip-path="url(#pc517c4227e)" d="
M90.5506 338.601
L90.1202 339.253
L90.4696 339.952
L91.2494 339.999
L91.6798 339.347
L91.3304 338.648
L90.5506 338.601
L90.1202 339.253"/>
    <path clip-path="url(#pc517c4227e)" d="
M118.398 338.63
L118.019 339.313
L118.421 339.983
L119.202 339.97
L119.581 339.287
L119.179 338.617
L118.398 338.63
L118.019 339.313"/>
    <path clip-path="url(#pc517c4227e)" d="
M146.484 339.462
L146.322 339.246
L146.052 339.786
L145.08 337.14
L147.348 338.814
L146.754 338.922
L146.916 339.138
L146.484 339.462"/>
    <path clip-path="url(#pc517c4227e)" d="
M174.048 339.852
L173.159 338.964
L172.607 340.621
L168.74 333.44
L175.921 337.307
L174.264 337.859
L175.152 338.748
L174.048 339.852"/>
    <path clip-path="url(#pc517c4227e)" d="
M202.067 339.95
L193.236 334.063
L193.02 335.796
L187.82 329.513
L195.62 331.896
L194.103 332.763
L202.933 338.65
L202.067 339.95"/>
    <path clip-path="url(#pc517c4227e)" d="
M230.153 340.041
L211.352 333.774
L211.599 335.503
L204.929 330.81
L213.081 331.057
L211.846 332.292
L230.647 338.559
L230.153 340.041"/>
    <path clip-path="url(#pc517c4227e)" d="
M258.3 340.081
L234.724 340.081
L235.506 341.644
L227.694 339.3
L235.506 336.956
L234.724 338.519
L258.3 338.519
L258.3 340.081"/>
    <path clip-path="url(#pc517c4227e)" d="
M286.447 340.041
L267.646 346.308
L268.881 347.543
L260.729 347.79
L267.399 343.097
L267.152 344.826
L285.953 338.559
L286.447 340.041"/>
    <path clip-path="url(#pc517c4227e)" d="
M314.533 339.95
L305.703 345.837
L307.22 346.704
L299.42 349.087
L304.62 342.804
L304.836 344.537
L313.667 338.65
L314.533 339.95"/>
    <path clip-path="url(#pc517c4227e)" d="
M342.552 339.852
L341.664 340.741
L343.321 341.293
L336.14 345.16
L340.007 337.979
L340.559 339.636
L341.448 338.748
L342.552 339.852"/>
    <path clip-path="url(#pc517c4227e)" d="
M370.116 339.462
L369.954 339.678
L370.548 339.786
L368.28 341.46
L369.252 338.814
L369.522 339.354
L369.684 339.138
L370.116 339.462"/>
    <path clip-path="url(#pc517c4227e)" d="
M397.398 339.97
L398.179 339.983
L398.581 339.313
L398.202 338.63
L397.421 338.617
L397.019 339.287
L397.398 339.97
L398.179 339.983"/>
    <path clip-path="url(#pc517c4227e)" d="
M425.351 339.999
L426.13 339.952
L426.48 339.253
L426.049 338.601
L425.27 338.648
L424.92 339.347
L425.351 339.999
L426.13 339.952"/>
    <path clip-path="url(#pc517c4227e)" d="
M453.292 340.018
L454.068 339.926
L454.376 339.207
L453.908 338.582
L453.132 338.674
L452.824 339.393
L453.292 340.018
L454.068 339.926"/>
    <path clip-path="url(#pc517c4227e)" d="
M62.7854 310.649
L62.2422 311.21
L62.4568 311.961
L63.2146 312.151
L63.7578 311.59
L63.5432 310.839
L62.7854 310.649
L62.2422 311.21"/>
    <path clip-path="url(#pc517c4227e)" d="
M90.653 310.659
L90.1347 311.243
L90.3817 311.984
L91.147 312.141
L91.6653 311.557
L91.4183 310.816
L90.653 310.659
L90.1347 311.243"/>
    <path clip-path="url(#pc517c4227e)" d="
M118.51 310.675
L118.027 311.289
L118.317 312.014
L119.09 312.125
L119.573 311.511
L119.283 310.786
L118.51 310.675
L118.027 311.289"/>
    <path clip-path="url(#pc517c4227e)" d="
M146.159 311.671
L145.888 311.129
L145.077 312.212
L143.994 305.989
L148.323 310.588
L146.971 310.588
L147.241 311.129
L146.159 311.671"/>
    <path clip-path="url(#pc517c4227e)" d="
M173.95 311.833
L168.063 303.003
L167.196 304.52
L164.813 296.72
L171.096 301.92
L169.363 302.136
L175.25 310.967
L173.95 311.833"/>
    <path clip-path="url(#pc517c4227e)" d="
M201.948 311.952
L182.401 292.406
L181.849 294.063
L177.982 286.882
L185.163 290.749
L183.506 291.301
L203.052 310.848
L201.948 311.952"/>
    <path clip-path="url(#pc517c4227e)" d="
M230.051 312.099
L193.8 293.973
L193.8 295.72
L187.86 290.13
L195.896 291.528
L194.498 292.576
L230.749 310.701
L230.051 312.099"/>
    <path clip-path="url(#pc517c4227e)" d="
M258.3 312.181
L214.214 312.181
L214.995 313.744
L207.183 311.4
L214.995 309.056
L214.214 310.619
L258.3 310.619
L258.3 312.181"/>
    <path clip-path="url(#pc517c4227e)" d="
M286.549 312.099
L250.298 330.224
L251.696 331.272
L243.66 332.67
L249.6 327.08
L249.6 328.827
L285.851 310.701
L286.549 312.099"/>
    <path clip-path="url(#pc517c4227e)" d="
M314.652 311.952
L295.106 331.499
L296.763 332.051
L289.582 335.918
L293.449 328.737
L294.001 330.394
L313.548 310.848
L314.652 311.952"/>
    <path clip-path="url(#pc517c4227e)" d="
M342.65 311.833
L336.763 320.664
L338.496 320.88
L332.213 326.08
L334.596 318.28
L335.463 319.797
L341.35 310.967
L342.65 311.833"/>
    <path clip-path="url(#pc517c4227e)" d="
M370.441 311.671
L370.171 312.212
L371.523 312.212
L367.194 316.811
L368.277 310.588
L369.088 311.671
L369.359 311.129
L370.441 311.671"/>
    <path clip-path="url(#pc517c4227e)" d="
M397.51 312.125
L398.283 312.014
L398.573 311.289
L398.09 310.675
L397.317 310.786
L397.027 311.511
L397.51 312.125
L398.283 312.014"/>
    <path clip-path="url(#pc517c4227e)" d="
M425.453 312.141
L426.218 311.984
L426.465 311.243
L425.947 310.659
L425.182 310.816
L424.935 311.557
L425.453 312.141
L426.218 311.984"/>
    <path clip-path="url(#pc517c4227e)" d="
M453.385 312.151
L454.143 311.961
L454.358 311.21
L453.815 310.649
L453.057 310.839
L452.842 311.59
L453.385 312.151
L454.143 311.961"/>
    <path clip-path="url(#pc517c4227e)" d="
M62.8895 282.727
L62.275 283.209
L62.3855 283.982
L63.1105 284.273
L63.725 283.791
L63.6145 283.018
L62.8895 282.727
L62.275 283.209"/>
    <path clip-path="url(#pc517c4227e)" d="
M90.7716 282.729
L90.1685 283.226
L90.2969 283.997
L91.0284 284.271
L91.6315 283.774
L91.5031 283.003
L90.7716 282.729
L90.1685 283.226"/>
    <path clip-path="url(#pc517c4227e)" d="
M118.575 283.545
L118.53 283.32
L118.126 283.635
L118.351 281.253
L119.474 283.365
L118.98 283.23
L119.025 283.455
L118.575 283.545"/>
    <path clip-path="url(#pc517c4227e)" d="
M145.942 283.689
L145.3 281.122
L143.974 282.259
L144.353 274.111
L148.521 281.122
L146.816 280.743
L147.458 283.311
L145.942 283.689"/>
    <path clip-path="url(#pc517c4227e)" d="
M173.859 283.747
L167.592 264.946
L166.357 266.181
L166.11 258.029
L170.803 264.699
L169.074 264.452
L175.341 283.253
L173.859 283.747"/>
    <path clip-path="url(#pc517c4227e)" d="
M201.801 283.849
L183.676 247.598
L182.628 248.996
L181.23 240.96
L186.82 246.9
L185.073 246.9
L203.199 283.151
L201.801 283.849"/>
    <path clip-path="url(#pc517c4227e)" d="
M229.848 284.052
L197.916 252.12
L197.363 253.777
L193.496 246.596
L200.677 250.463
L199.02 251.016
L230.952 282.948
L229.848 284.052"/>
    <path clip-path="url(#pc517c4227e)" d="
M258.3 284.281
L220.987 284.281
L221.768 285.844
L213.956 283.5
L221.768 281.156
L220.987 282.719
L258.3 282.719
L258.3 284.281"/>
    <path clip-path="url(#pc517c4227e)" d="
M286.752 284.052
L254.82 315.984
L256.477 316.537
L249.296 320.404
L253.163 313.223
L253.716 314.88
L285.648 282.948
L286.752 284.052"/>
    <path clip-path="url(#pc517c4227e)" d="
M314.799 283.849
L296.673 320.1
L298.42 320.1
L292.83 326.04
L294.228 318.004
L295.276 319.402
L313.401 283.151
L314.799 283.849"/>
    <path clip-path="url(#pc517c4227e)" d="
M342.741 283.747
L336.474 302.548
L338.203 302.301
L333.51 308.971
L333.757 300.819
L334.992 302.054
L341.259 283.253
L342.741 283.747"/>
    <path clip-path="url(#pc517c4227e)" d="
M370.658 283.689
L370.016 286.257
L371.721 285.878
L367.553 292.889
L367.174 284.741
L368.5 285.878
L369.142 283.311
L370.658 283.689"/>
    <path clip-path="url(#pc517c4227e)" d="
M398.025 283.545
L397.98 283.77
L398.474 283.635
L397.351 285.747
L397.126 283.365
L397.53 283.68
L397.575 283.455
L398.025 283.545"/>
    <path clip-path="url(#pc517c4227e)" d="
M425.572 284.271
L426.303 283.997
L426.432 283.226
L425.828 282.729
L425.097 283.003
L424.968 283.774
L425.572 284.271
L426.303 283.997"/>
    <path clip-path="url(#pc517c4227e)" d="
M453.49 284.273
L454.215 283.982
L454.325 283.209
L453.71 282.727
L452.985 283.018
L452.875 283.791
L453.49 284.273
L454.215 283.982"/>
    <path clip-path="url(#pc517c4227e)" d="
M63 254.819
L62.3235 255.209
L62.3235 255.991
L63 256.381
L63.6765 255.991
L63.6765 255.209
L63 254.819
L62.3235 255.209"/>
    <path clip-path="url(#pc517c4227e)" d="
M90.9 254.819
L90.2235 255.209
L90.2235 255.991
L90.9 256.381
L91.5765 255.991
L91.5765 255.209
L90.9 254.819
L90.2235 255.209"/>
    <path clip-path="url(#pc517c4227e)" d="
M118.53 255.6
L118.53 255.33
L117.99 255.6
L118.8 252.9
L119.61 255.6
L119.07 255.33
L119.07 255.6
L118.53 255.6"/>
    <path clip-path="url(#pc517c4227e)" d="
M145.919 255.6
L145.919 251.349
L144.356 252.13
L146.7 244.318
L149.044 252.13
L147.481 251.349
L147.481 255.6
L145.919 255.6"/>
    <path clip-path="url(#pc517c4227e)" d="
M173.819 255.6
L173.819 232.024
L172.256 232.806
L174.6 224.994
L176.944 232.806
L175.381 232.024
L175.381 255.6
L173.819 255.6"/>
    <path clip-path="url(#pc517c4227e)" d="
M201.719 255.6
L201.719 211.514
L200.156 212.295
L202.5 204.483
L204.844 212.295
L203.281 211.514
L203.281 255.6
L201.719 255.6"/>
    <path clip-path="url(#pc517c4227e)" d="
M229.619 255.6
L229.619 218.287
L228.056 219.068
L230.4 211.256
L232.744 219.068
L231.181 218.287
L231.181 255.6
L229.619 255.6"/>
    <path clip-path="url(#pc517c4227e)" d="
M259.081 255.6
L258.691 254.923
L257.909 254.923
L257.519 255.6
L257.909 256.277
L258.691 256.277
L259.081 255.6
L258.691 254.923"/>
    <path clip-path="url(#pc517c4227e)" d="
M286.981 255.6
L286.981 292.913
L288.544 292.132
L286.2 299.944
L283.856 292.132
L285.419 292.913
L285.419 255.6
L286.981 255.6"/>
    <path clip-path="url(#pc517c4227e)" d="
M314.881 255.6
L314.881 299.686
L316.444 298.905
L314.1 306.717
L311.756 298.905
L313.319 299.686
L313.319 255.6
L314.881 255.6"/>
    <path clip-path="url(#pc517c4227e)" d="
M342.781 255.6
L342.781 279.176
L344.344 278.394
L342 286.206
L339.656 278.394
L341.219 279.176
L341.219 255.6
L342.781 255.6"/>
    <path clip-path="url(#pc517c4227e)" d="
M370.681 255.6
L370.681 259.851
L372.244 259.07
L369.9 266.882
L367.556 259.07
L369.119 259.851
L369.119 255.6
L370.681 255.6"/>
    <path clip-path="url(#pc517c4227e)" d="
M398.07 255.6
L398.07 255.87
L398.61 255.6
L397.8 258.3
L396.99 255.6
L397.53 255.87
L397.53 255.6
L398.07 255.6"/>
    <path clip-path="url(#pc517c4227e)" d="
M425.7 256.381
L426.377 255.991
L426.377 255.209
L425.7 254.819
L425.023 255.209
L425.023 255.991
L425.7 256.381
L426.377 255.991"/>
    <path clip-path="url(#pc517c4227e)" d="
M453.6 256.381
L454.277 255.991
L454.277 255.209
L453.6 254.819
L452.923 255.209
L452.923 255.991
L453.6 256.381
L454.277 255.991"/>
    <path clip-path="url(#pc517c4227e)" d="
M63.1105 226.927
L62.3855 227.218
L62.275 227.991
L62.8895 228.473
L63.6145 228.182
L63.725 227.409
L63.1105 226.927
L62.3855 227.218"/>
    <path clip-path="url(#pc517c4227e)" d="
M91.0284 226.929
L90.2969 227.203
L90.1685 227.974
L90.7716 228.471
L91.5031 228.197
L91.6315 227.426
L91.0284 226.929
L90.2969 227.203"/>
    <path clip-path="url(#pc517c4227e)" d="
M118.575 227.655
L118.62 227.43
L118.126 227.565
L119.249 225.453
L119.474 227.835
L119.07 227.52
L119.025 227.745
L118.575 227.655"/>
    <path clip-path="url(#pc517c4227e)" d="
M145.942 227.511
L146.584 224.943
L144.879 225.322
L149.047 218.311
L149.426 226.459
L148.1 225.322
L147.458 227.889
L145.942 227.511"/>
    <path clip-path="url(#pc517c4227e)" d="
M173.859 227.453
L180.126 208.652
L178.397 208.899
L183.09 202.229
L182.843 210.381
L181.608 209.146
L175.341 227.947
L173.859 227.453"/>
    <path clip-path="url(#pc517c4227e)" d="
M201.801 227.351
L219.927 191.1
L218.18 191.1
L223.77 185.16
L222.372 193.196
L221.324 191.798
L203.199 228.049
L201.801 227.351"/>
    <path clip-path="url(#pc517c4227e)" d="
M229.848 227.148
L261.78 195.216
L260.123 194.663
L267.304 190.796
L263.437 197.977
L262.884 196.32
L230.952 228.252
L229.848 227.148"/>
    <path clip-path="url(#pc517c4227e)" d="
M258.3 226.919
L295.613 226.919
L294.832 225.356
L302.644 227.7
L294.832 230.044
L295.613 228.481
L258.3 228.481
L258.3 226.919"/>
    <path clip-path="url(#pc517c4227e)" d="
M286.752 227.148
L318.684 259.08
L319.237 257.423
L323.104 264.604
L315.923 260.737
L317.58 260.184
L285.648 228.252
L286.752 227.148"/>
    <path clip-path="url(#pc517c4227e)" d="
M314.799 227.351
L332.924 263.602
L333.972 262.204
L335.37 270.24
L329.78 264.3
L331.527 264.3
L313.401 228.049
L314.799 227.351"/>
    <path clip-path="url(#pc517c4227e)" d="
M342.741 227.453
L349.008 246.254
L350.243 245.019
L350.49 253.171
L345.797 246.501
L347.526 246.748
L341.259 227.947
L342.741 227.453"/>
    <path clip-path="url(#pc517c4227e)" d="
M370.658 227.511
L371.3 230.078
L372.626 228.941
L372.247 237.089
L368.079 230.078
L369.784 230.457
L369.142 227.889
L370.658 227.511"/>
    <path clip-path="url(#pc517c4227e)" d="
M398.025 227.655
L398.07 227.88
L398.474 227.565
L398.249 229.947
L397.126 227.835
L397.62 227.97
L397.575 227.745
L398.025 227.655"/>
    <path clip-path="url(#pc517c4227e)" d="
M425.828 228.471
L426.432 227.974
L426.303 227.203
L425.572 226.929
L424.968 227.426
L425.097 228.197
L425.828 228.471
L426.432 227.974"/>
    <path clip-path="url(#pc517c4227e)" d="
M453.71 228.473
L454.325 227.991
L454.215 227.218
L453.49 226.927
L452.875 227.409
L452.985 228.182
L453.71 228.473
L454.325 227.991"/>
    <path clip-path="url(#pc517c4227e)" d="
M63.2146 199.049
L62.4568 199.239
L62.2422 199.99
L62.7854 200.551
L63.5432 200.361
L63.7578 199.61
L63.2146 199.049
L62.4568 199.239"/>
    <path clip-path="url(#pc517c4227e)" d="
M91.147 199.059
L90.3817 199.216
L90.1347 199.957
L90.653 200.541
L91.4183 200.384
L91.6653 199.643
L91.147 199.059
L90.3817 199.216"/>
    <path clip-path="url(#pc517c4227e)" d="
M119.09 199.075
L118.317 199.186
L118.027 199.911
L118.51 200.525
L119.283 200.414
L119.573 199.689
L119.09 199.075
L118.317 199.186"/>
    <path clip-path="url(#pc517c4227e)" d="
M146.159 199.529
L146.429 198.988
L145.077 198.988
L149.406 194.389
L148.323 200.612
L147.512 199.529
L147.241 200.071
L146.159 199.529"/>
    <path clip-path="url(#pc517c4227e)" d="
M173.95 199.367
L179.837 190.536
L178.104 190.32
L184.387 185.12
L182.004 192.92
L181.137 191.403
L175.25 200.233
L173.95 199.367"/>
    <path clip-path="url(#pc517c4227e)" d="
M201.948 199.248
L221.494 179.701
L219.837 179.149
L227.018 175.282
L223.151 182.463
L222.599 180.806
L203.052 200.352
L201.948 199.248"/>
    <path clip-path="url(#pc517c4227e)" d="
M230.051 199.101
L266.302 180.976
L264.904 179.928
L272.94 178.53
L267 184.12
L267 182.373
L230.749 200.499
L230.051 199.101"/>
    <path clip-path="url(#pc517c4227e)" d="
M258.3 199.019
L302.386 199.019
L301.605 197.456
L309.417 199.8
L301.605 202.144
L302.386 200.581
L258.3 200.581
L258.3 199.019"/>
    <path clip-path="url(#pc517c4227e)" d="
M286.549 199.101
L322.8 217.227
L322.8 215.48
L328.74 221.07
L320.704 219.672
L322.102 218.624
L285.851 200.499
L286.549 199.101"/>
    <path clip-path="url(#pc517c4227e)" d="
M314.652 199.248
L334.199 218.794
L334.751 217.137
L338.618 224.318
L331.437 220.451
L333.094 219.899
L313.548 200.352
L314.652 199.248"/>
    <path clip-path="url(#pc517c4227e)" d="
M342.65 199.367
L348.537 208.197
L349.404 206.68
L351.787 214.48
L345.504 209.28
L347.237 209.064
L341.35 200.233
L342.65 199.367"/>
    <path clip-path="url(#pc517c4227e)" d="
M370.441 199.529
L370.712 200.071
L371.523 198.988
L372.606 205.211
L368.277 200.612
L369.629 200.612
L369.359 200.071
L370.441 199.529"/>
    <path clip-path="url(#pc517c4227e)" d="
M398.09 200.525
L398.573 199.911
L398.283 199.186
L397.51 199.075
L397.027 199.689
L397.317 200.414
L398.09 200.525
L398.573 199.911"/>
    <path clip-path="url(#pc517c4227e)" d="
M425.947 200.541
L426.465 199.957
L426.218 199.216
L425.453 199.059
L424.935 199.643
L425.182 200.384
L425.947 200.541
L426.465 199.957"/>
    <path clip-path="url(#pc517c4227e)" d="
M453.815 200.551
L454.358 199.99
L454.143 199.239
L453.385 199.049
L452.842 199.61
L453.057 200.361
L453.815 200.551
L454.358 199.99"/>
    <path clip-path="url(#pc517c4227e)" d="
M63.3077 171.182
L62.532 171.274
L62.2243 171.993
L62.6923 172.618
L63.468 172.526
L63.7757 171.807
L63.3077 171.182
L62.532 171.274"/>
    <path clip-path="url(#pc517c4227e)" d="
M91.2494 171.201
L90.4696 171.248
L90.1202 171.947
L90.5506 172.599
L91.3304 172.552
L91.6798 171.853
L91.2494 171.201
L90.4696 171.248"/>
    <path clip-path="url(#pc517c4227e)" d="
M119.202 171.23
L118.421 171.217
L118.019 171.887
L118.398 172.57
L119.179 172.583
L119.581 171.913
L119.202 171.23
L118.421 171.217"/>
    <path clip-path="url(#pc517c4227e)" d="
M146.484 171.738
L146.646 171.522
L146.052 171.414
L148.32 169.74
L147.348 172.386
L147.078 171.846
L146.916 172.062
L146.484 171.738"/>
    <path clip-path="url(#pc517c4227e)" d="
M174.048 171.348
L174.936 170.459
L173.279 169.907
L180.46 166.04
L176.593 173.221
L176.041 171.564
L175.152 172.452
L174.048 171.348"/>
    <path clip-path="url(#pc517c4227e)" d="
M202.067 171.25
L210.897 165.363
L209.38 164.496
L217.18 162.113
L211.98 168.396
L211.764 166.663
L202.933 172.55
L202.067 171.25"/>
    <path clip-path="url(#pc517c4227e)" d="
M230.153 171.159
L248.954 164.892
L247.719 163.657
L255.871 163.41
L249.201 168.103
L249.448 166.374
L230.647 172.641
L230.153 171.159"/>
    <path clip-path="url(#pc517c4227e)" d="
M258.3 171.119
L281.876 171.119
L281.094 169.556
L288.906 171.9
L281.094 174.244
L281.876 172.681
L258.3 172.681
L258.3 171.119"/>
    <path clip-path="url(#pc517c4227e)" d="
M286.447 171.159
L305.248 177.426
L305.001 175.697
L311.671 180.39
L303.519 180.143
L304.754 178.908
L285.953 172.641
L286.447 171.159"/>
    <path clip-path="url(#pc517c4227e)" d="
M314.533 171.25
L323.364 177.137
L323.58 175.404
L328.78 181.687
L320.98 179.304
L322.497 178.437
L313.667 172.55
L314.533 171.25"/>
    <path clip-path="url(#pc517c4227e)" d="
M342.552 171.348
L343.441 172.236
L343.993 170.579
L347.86 177.76
L340.679 173.893
L342.336 173.341
L341.448 172.452
L342.552 171.348"/>
    <path clip-path="url(#pc517c4227e)" d="
M370.116 171.738
L370.278 171.954
L370.548 171.414
L371.52 174.06
L369.252 172.386
L369.846 172.278
L369.684 172.062
L370.116 171.738"/>
    <path clip-path="url(#pc517c4227e)" d="
M398.202 172.57
L398.581 171.887
L398.179 171.217
L397.398 171.23
L397.019 171.913
L397.421 172.583
L398.202 172.57
L398.581 171.887"/>
    <path clip-path="url(#pc517c4227e)" d="
M426.049 172.599
L426.48 171.947
L426.13 171.248
L425.351 171.201
L424.92 171.853
L425.27 172.552
L426.049 172.599
L426.48 171.947"/>
    <path clip-path="url(#pc517c4227e)" d="
M453.908 172.618
L454.376 171.993
L454.068 171.274
L453.292 171.182
L452.824 171.807
L453.132 172.526
L453.908 172.618
L454.376 171.993"/>
    <path clip-path="url(#pc517c4227e)" d="
M63.3876 143.322
L62.6064 143.325
L62.2188 144.003
L62.6124 144.678
L63.3936 144.675
L63.7812 143.997
L63.3876 143.322
L62.6064 143.325"/>
    <path clip-path="url(#pc517c4227e)" d="
M91.3333 143.35
L90.5538 143.3
L90.1204 143.95
L90.4667 144.65
L91.2462 144.7
L91.6796 144.05
L91.3333 143.35
L90.5538 143.3"/>
    <path clip-path="url(#pc517c4227e)" d="
M119.288 143.39
L118.516 143.272
L118.028 143.882
L118.312 144.61
L119.084 144.728
L119.572 144.118
L119.288 143.39
L118.516 143.272"/>
    <path clip-path="url(#pc517c4227e)" d="
M147.252 143.448
L146.498 143.245
L145.945 143.798
L146.148 144.552
L146.902 144.755
L147.455 144.202
L147.252 143.448
L146.498 143.245"/>
    <path clip-path="url(#pc517c4227e)" d="
M174.438 143.784
L174.654 143.622
L174.114 143.352
L176.76 142.38
L175.086 144.648
L174.978 144.054
L174.762 144.216
L174.438 143.784"/>
    <path clip-path="url(#pc517c4227e)" d="
M202.229 143.459
L202.771 143.188
L201.688 142.377
L207.911 141.294
L203.312 145.623
L203.312 144.271
L202.771 144.541
L202.229 143.459"/>
    <path clip-path="url(#pc517c4227e)" d="
M230.211 143.242
L232.778 142.6
L231.641 141.274
L239.789 141.653
L232.778 145.821
L233.157 144.116
L230.589 144.758
L230.211 143.242"/>
    <path clip-path="url(#pc517c4227e)" d="
M258.3 143.219
L262.551 143.219
L261.77 141.656
L269.582 144
L261.77 146.344
L262.551 144.781
L258.3 144.781
L258.3 143.219"/>
    <path clip-path="url(#pc517c4227e)" d="
M286.389 143.242
L288.957 143.884
L288.578 142.179
L295.589 146.347
L287.441 146.726
L288.578 145.4
L286.011 144.758
L286.389 143.242"/>
    <path clip-path="url(#pc517c4227e)" d="
M314.371 143.459
L314.912 143.729
L314.912 142.377
L319.511 146.706
L313.288 145.623
L314.371 144.812
L313.829 144.541
L314.371 143.459"/>
    <path clip-path="url(#pc517c4227e)" d="
M342.162 143.784
L342.378 143.946
L342.486 143.352
L344.16 145.62
L341.514 144.648
L342.054 144.378
L341.838 144.216
L342.162 143.784"/>
    <path clip-path="url(#pc517c4227e)" d="
M370.452 144.552
L370.655 143.798
L370.102 143.245
L369.348 143.448
L369.145 144.202
L369.698 144.755
L370.452 144.552
L370.655 143.798"/>
    <path clip-path="url(#pc517c4227e)" d="
M398.288 144.61
L398.572 143.882
L398.084 143.272
L397.312 143.39
L397.028 144.118
L397.516 144.728
L398.288 144.61
L398.572 143.882"/>
    <path clip-path="url(#pc517c4227e)" d="
M426.133 144.65
L426.48 143.95
L426.046 143.3
L425.267 143.35
L424.92 144.05
L425.354 144.7
L426.133 144.65
L426.48 143.95"/>
    <path clip-path="url(#pc517c4227e)" d="
M453.988 144.678
L454.381 144.003
L453.994 143.325
L453.212 143.322
L452.819 143.997
L453.206 144.675
L453.988 144.678
L454.381 144.003"/>
    <path clip-path="url(#pc517c4227e)" d="
M63.4541 115.464
L62.6765 115.389
L62.2224 116.025
L62.5459 116.736
L63.3235 116.811
L63.7776 116.175
L63.4541 115.464
L62.6765 115.389"/>
    <path clip-path="url(#pc517c4227e)" d="
M91.4001 115.5
L90.6303 115.367
L90.1302 115.967
L90.3999 116.7
L91.1697 116.833
L91.6698 116.233
L91.4001 115.5
L90.6303 115.367"/>
    <path clip-path="url(#pc517c4227e)" d="
M119.352 115.548
L118.598 115.345
L118.045 115.898
L118.248 116.652
L119.002 116.855
L119.555 116.302
L119.352 115.548
L118.598 115.345"/>
    <path clip-path="url(#pc517c4227e)" d="
M147.31 115.612
L146.582 115.328
L145.972 115.816
L146.09 116.588
L146.818 116.872
L147.428 116.384
L147.31 115.612
L146.582 115.328"/>
    <path clip-path="url(#pc517c4227e)" d="
M175.27 115.698
L174.587 115.319
L173.917 115.721
L173.93 116.502
L174.613 116.881
L175.283 116.479
L175.27 115.698
L174.587 115.319"/>
    <path clip-path="url(#pc517c4227e)" d="
M203.225 115.81
L202.611 115.327
L201.886 115.617
L201.775 116.39
L202.389 116.873
L203.114 116.583
L203.225 115.81
L202.611 115.327"/>
    <path clip-path="url(#pc517c4227e)" d="
M230.355 115.875
L230.58 115.83
L230.265 115.426
L232.647 115.651
L230.535 116.774
L230.67 116.28
L230.445 116.325
L230.355 115.875"/>
    <path clip-path="url(#pc517c4227e)" d="
M258.3 115.83
L258.57 115.83
L258.3 115.29
L261 116.1
L258.3 116.91
L258.57 116.37
L258.3 116.37
L258.3 115.83"/>
    <path clip-path="url(#pc517c4227e)" d="
M286.245 115.875
L286.47 115.92
L286.335 115.426
L288.447 116.549
L286.065 116.774
L286.38 116.37
L286.155 116.325
L286.245 115.875"/>
    <path clip-path="url(#pc517c4227e)" d="
M314.825 116.39
L314.714 115.617
L313.989 115.327
L313.375 115.81
L313.486 116.583
L314.211 116.873
L314.825 116.39
L314.714 115.617"/>
    <path clip-path="url(#pc517c4227e)" d="
M342.67 116.502
L342.683 115.721
L342.013 115.319
L341.33 115.698
L341.317 116.479
L341.987 116.881
L342.67 116.502
L342.683 115.721"/>
    <path clip-path="url(#pc517c4227e)" d="
M370.51 116.588
L370.628 115.816
L370.018 115.328
L369.29 115.612
L369.172 116.384
L369.782 116.872
L370.51 116.588
L370.628 115.816"/>
    <path clip-path="url(#pc517c4227e)" d="
M398.352 116.652
L398.555 115.898
L398.002 115.345
L397.248 115.548
L397.045 116.302
L397.598 116.855
L398.352 116.652
L398.555 115.898"/>
    <path clip-path="url(#pc517c4227e)" d="
M426.2 116.7
L426.47 115.967
L425.97 115.367
L425.2 115.5
L424.93 116.233
L425.43 116.833
L426.2 116.7
L426.47 115.967"/>
    <path clip-path="url(#pc517c4227e)" d="
M454.054 116.736
L454.378 116.025
L453.923 115.389
L453.146 115.464
L452.822 116.175
L453.277 116.811
L454.054 116.736
L454.378 116.025"/>
    <path clip-path="url(#pc517c4227e)" d="
M63.5084 87.6069
L62.7405 87.4631
L62.2321 88.0563
L62.4916 88.7931
L63.2595 88.9369
L63.7679 88.3437
L63.5084 87.6069
L62.7405 87.4631"/>
    <path clip-path="url(#pc517c4227e)" d="
M91.4524 87.6476
L90.6978 87.4454
L90.1454 87.9978
L90.3476 88.7524
L91.1022 88.9546
L91.6546 88.4022
L91.4524 87.6476
L90.6978 87.4454"/>
    <path clip-path="url(#pc517c4227e)" d="
M119.4 87.6999
L118.667 87.4302
L118.067 87.9303
L118.2 88.7001
L118.933 88.9698
L119.533 88.4697
L119.4 87.6999
L118.667 87.4302"/>
    <path clip-path="url(#pc517c4227e)" d="
M147.35 87.7667
L146.65 87.4204
L146 87.8538
L146.05 88.6333
L146.75 88.9796
L147.4 88.5462
L147.35 87.7667
L146.65 87.4204"/>
    <path clip-path="url(#pc517c4227e)" d="
M175.299 87.8506
L174.647 87.4202
L173.948 87.7696
L173.901 88.5494
L174.553 88.9798
L175.252 88.6304
L175.299 87.8506
L174.647 87.4202"/>
    <path clip-path="url(#pc517c4227e)" d="
M203.241 87.953
L202.657 87.4347
L201.916 87.6817
L201.759 88.447
L202.343 88.9653
L203.084 88.7183
L203.241 87.953
L202.657 87.4347"/>
    <path clip-path="url(#pc517c4227e)" d="
M231.171 88.0716
L230.674 87.4685
L229.903 87.5969
L229.629 88.3284
L230.126 88.9315
L230.897 88.8031
L231.171 88.0716
L230.674 87.4685"/>
    <path clip-path="url(#pc517c4227e)" d="
M259.081 88.2
L258.691 87.5235
L257.909 87.5235
L257.519 88.2
L257.909 88.8765
L258.691 88.8765
L259.081 88.2
L258.691 87.5235"/>
    <path clip-path="url(#pc517c4227e)" d="
M286.971 88.3284
L286.697 87.5969
L285.926 87.4685
L285.429 88.0716
L285.703 88.8031
L286.474 88.9315
L286.971 88.3284
L286.697 87.5969"/>
    <path clip-path="url(#pc517c4227e)" d="
M314.841 88.447
L314.684 87.6817
L313.943 87.4347
L313.359 87.953
L313.516 88.7183
L314.257 88.9653
L314.841 88.447
L314.684 87.6817"/>
    <path clip-path="url(#pc517c4227e)" d="
M342.699 88.5494
L342.652 87.7696
L341.953 87.4202
L341.301 87.8506
L341.348 88.6304
L342.047 88.9798
L342.699 88.5494
L342.652 87.7696"/>
    <path clip-path="url(#pc517c4227e)" d="
M370.55 88.6333
L370.6 87.8538
L369.95 87.4204
L369.25 87.7667
L369.2 88.5462
L369.85 88.9796
L370.55 88.6333
L370.6 87.8538"/>
    <path clip-path="url(#pc517c4227e)" d="
M398.4 88.7001
L398.533 87.9303
L397.933 87.4302
L397.2 87.6999
L397.067 88.4697
L397.667 88.9698
L398.4 88.7001
L398.533 87.9303"/>
    <path clip-path="url(#pc517c4227e)" d="
M426.252 88.7524
L426.455 87.9978
L425.902 87.4454
L425.148 87.6476
L424.945 88.4022
L425.498 88.9546
L426.252 88.7524
L426.455 87.9978"/>
    <path clip-path="url(#pc517c4227e)" d="
M454.108 88.7931
L454.368 88.0563
L453.859 87.4631
L453.092 87.6069
L452.832 88.3437
L453.341 88.9369
L454.108 88.7931
L454.368 88.0563"/>
    <path clip-path="url(#pc517c4227e)" d="
M63.5524 59.7476
L62.7978 59.5454
L62.2454 60.0978
L62.4476 60.8524
L63.2022 61.0546
L63.7546 60.5022
L63.5524 59.7476
L62.7978 59.5454"/>
    <path clip-path="url(#pc517c4227e)" d="
M91.4931 59.7916
L90.7563 59.5321
L90.1631 60.0405
L90.3069 60.8084
L91.0437 61.0679
L91.6369 60.5595
L91.4931 59.7916
L90.7563 59.5321"/>
    <path clip-path="url(#pc517c4227e)" d="
M119.436 59.8459
L118.725 59.5224
L118.089 59.9765
L118.164 60.7541
L118.875 61.0776
L119.511 60.6235
L119.436 59.8459
L118.725 59.5224"/>
    <path clip-path="url(#pc517c4227e)" d="
M147.378 59.9124
L146.703 59.5188
L146.025 59.9064
L146.022 60.6876
L146.697 61.0812
L147.375 60.6936
L147.378 59.9124
L146.703 59.5188"/>
    <path clip-path="url(#pc517c4227e)" d="
M175.318 59.9923
L174.693 59.5243
L173.974 59.832
L173.882 60.6077
L174.507 61.0757
L175.226 60.768
L175.318 59.9923
L174.693 59.5243"/>
    <path clip-path="url(#pc517c4227e)" d="
M203.251 60.0854
L202.69 59.5422
L201.939 59.7568
L201.749 60.5146
L202.31 61.0578
L203.061 60.8432
L203.251 60.0854
L202.69 59.5422"/>
    <path clip-path="url(#pc517c4227e)" d="
M231.173 60.1895
L230.691 59.575
L229.918 59.6855
L229.627 60.4105
L230.109 61.025
L230.882 60.9145
L231.173 60.1895
L230.691 59.575"/>
    <path clip-path="url(#pc517c4227e)" d="
M259.081 60.3
L258.691 59.6235
L257.909 59.6235
L257.519 60.3
L257.909 60.9765
L258.691 60.9765
L259.081 60.3
L258.691 59.6235"/>
    <path clip-path="url(#pc517c4227e)" d="
M286.973 60.4105
L286.682 59.6855
L285.909 59.575
L285.427 60.1895
L285.718 60.9145
L286.491 61.025
L286.973 60.4105
L286.682 59.6855"/>
    <path clip-path="url(#pc517c4227e)" d="
M314.851 60.5146
L314.661 59.7568
L313.91 59.5422
L313.349 60.0854
L313.539 60.8432
L314.29 61.0578
L314.851 60.5146
L314.661 59.7568"/>
    <path clip-path="url(#pc517c4227e)" d="
M342.718 60.6077
L342.626 59.832
L341.907 59.5243
L341.282 59.9923
L341.374 60.768
L342.093 61.0757
L342.718 60.6077
L342.626 59.832"/>
    <path clip-path="url(#pc517c4227e)" d="
M370.578 60.6876
L370.575 59.9064
L369.897 59.5188
L369.222 59.9124
L369.225 60.6936
L369.903 61.0812
L370.578 60.6876
L370.575 59.9064"/>
    <path clip-path="url(#pc517c4227e)" d="
M398.436 60.7541
L398.511 59.9765
L397.875 59.5224
L397.164 59.8459
L397.089 60.6235
L397.725 61.0776
L398.436 60.7541
L398.511 59.9765"/>
    <path clip-path="url(#pc517c4227e)" d="
M426.293 60.8084
L426.437 60.0405
L425.844 59.5321
L425.107 59.7916
L424.963 60.5595
L425.556 61.0679
L426.293 60.8084
L426.437 60.0405"/>
    <path clip-path="url(#pc517c4227e)" d="
M454.152 60.8524
L454.355 60.0978
L453.802 59.5454
L453.048 59.7476
L452.845 60.5022
L453.398 61.0546
L454.152 60.8524
L454.355 60.0978"/>
   </g>
   <g id="LineCollection_1">
    <path clip-path="url(#pc517c4227e)" d="
M222.429 363.646
L230.4 366.225
L238.371 367.967
L246.343 369.044
L254.314 369.558
L262.286 369.558
L270.257 369.044
L278.229 367.967
L286.2 366.225
L294.171 363.646
L295.234 363.214
L302.143 360.87
L310.114 357.112
L313.301 355.243
L318.086 352.663
L325.725 347.271
L326.057 347.041
L334.029 340.649
L335.492 339.3
L342 332.792
L343.349 331.329
L349.741 323.357
L349.971 323.025
L355.363 315.386
L357.943 310.601
L359.812 307.414
L363.57 299.443
L365.914 292.534
L366.346 291.471
L368.925 283.5
L370.667 275.529
L371.744 267.557
L372.258 259.586
L372.258 251.614
L371.744 243.643
L370.667 235.671
L368.925 227.7
L366.346 219.729
L365.914 218.666
L363.57 211.757
L359.812 203.786
L357.943 200.599
L355.363 195.814
L349.971 188.175
L349.741 187.843
L343.349 179.871
L342 178.408
L335.492 171.9
L334.029 170.551
L326.057 164.159
L325.725 163.929
L318.086 158.537
L313.301 155.957
L310.114 154.088
L302.143 150.33
L295.234 147.986
L294.171 147.554
L286.2 144.975
L278.229 143.233
L270.257 142.156
L262.286 141.642
L254.314 141.642
L246.343 142.156
L238.371 143.233
L230.4 144.975
L222.429 147.554
L221.366 147.986
L214.457 150.33
L206.486 154.088
L203.299 155.957
L198.514 158.537
L190.875 163.929
L190.543 164.159
L182.571 170.551
L181.108 171.9
L174.6 178.408
L173.251 179.871
L166.859 187.843
L166.629 188.175
L161.237 195.814
L158.657 200.599
L156.788 203.786
L153.03 211.757
L150.686 218.666
L150.254 219.729
L147.675 227.7
L145.933 235.671
L144.856 243.643
L144.342 251.614
L144.342 259.586
L144.856 267.557
L145.933 275.529
L147.675 283.5
L150.254 291.471
L150.686 292.534
L153.03 299.443
L156.788 307.414
L158.657 310.601
L161.237 315.386
L166.629 323.025
L166.859 323.357
L173.251 331.329
L174.6 332.792
L181.108 339.3
L182.571 340.649
L190.543 347.041
L190.875 347.271
L198.514 352.663
L203.299 355.243
L206.486 357.112
L214.457 360.87
L221.366 363.214
L222.429 363.646" style="fill:none;stroke:#000000;"/>
   </g>
   <g id="LineCollection_2">
    <path clip-path="url(#pc517c4227e)" d="
M254.314 355.618
L262.286 355.618
L266.384 355.243
L270.257 354.971
L278.229 353.816
L286.2 351.949
L294.171 349.184
L298.323 347.271
L302.143 345.69
L310.114 341.357
L313.167 339.3
L318.086 336.015
L323.778 331.329
L326.057 329.334
L332.034 323.357
L334.029 321.078
L338.715 315.386
L342 310.467
L344.057 307.414
L348.39 299.443
L349.971 295.623
L351.884 291.471
L354.649 283.5
L356.516 275.529
L357.671 267.557
L357.943 263.684
L358.318 259.586
L358.318 251.614
L357.943 247.516
L357.671 243.643
L356.516 235.671
L354.649 227.7
L351.884 219.729
L349.971 215.577
L348.39 211.757
L344.057 203.786
L342 200.733
L338.715 195.814
L334.029 190.122
L332.034 187.843
L326.057 181.866
L323.778 179.871
L318.086 175.185
L313.167 171.9
L310.114 169.843
L302.143 165.51
L298.323 163.929
L294.171 162.016
L286.2 159.251
L278.229 157.384
L270.257 156.229
L266.384 155.957
L262.286 155.582
L254.314 155.582
L250.216 155.957
L246.343 156.229
L238.371 157.384
L230.4 159.251
L222.429 162.016
L218.277 163.929
L214.457 165.51
L206.486 169.843
L203.433 171.9
L198.514 175.185
L192.822 179.871
L190.543 181.866
L184.566 187.843
L182.571 190.122
L177.885 195.814
L174.6 200.733
L172.543 203.786
L168.21 211.757
L166.629 215.577
L164.716 219.729
L161.951 227.7
L160.084 235.671
L158.929 243.643
L158.657 247.516
L158.282 251.614
L158.282 259.586
L158.657 263.684
L158.929 267.557
L160.084 275.529
L161.951 283.5
L164.716 291.471
L166.629 295.623
L168.21 299.443
L172.543 307.414
L174.6 310.467
L177.885 315.386
L182.571 321.078
L184.566 323.357
L190.543 329.334
L192.822 331.329
L198.514 336.015
L203.433 339.3
L206.486 341.357
L214.457 345.69
L218.277 347.271
L222.429 349.184
L230.4 351.949
L238.371 353.816
L246.343 354.971
L250.216 355.243
L254.314 355.618" style="fill:none;stroke:#000000;"/>
   </g>
   <g id="LineCollection_3">
    <path clip-path="url(#pc517c4227e)" d="
M230.4 342.499
L238.371 344.664
L246.343 346.004
L254.314 346.644
L262.286 346.644
L270.257 346.004
L278.229 344.664
L286.2 342.499
L294.151 339.3
L294.171 339.293
L302.143 335.604
L308.87 331.329
L310.114 330.537
L318.086 324.342
L319.178 323.357
L326.057 316.478
L327.042 315.386
L333.237 307.414
L334.029 306.17
L338.304 299.443
L341.993 291.471
L342 291.451
L345.199 283.5
L347.364 275.529
L348.704 267.557
L349.344 259.586
L349.344 251.614
L348.704 243.643
L347.364 235.671
L345.199 227.7
L342 219.749
L341.993 219.729
L338.304 211.757
L334.029 205.03
L333.237 203.786
L327.042 195.814
L326.057 194.722
L319.178 187.843
L318.086 186.858
L310.114 180.663
L308.87 179.871
L302.143 175.596
L294.171 171.907
L294.151 171.9
L286.2 168.701
L278.229 166.536
L270.257 165.196
L262.286 164.556
L254.314 164.556
L246.343 165.196
L238.371 166.536
L230.4 168.701
L222.449 171.9
L222.429 171.907
L214.457 175.596
L207.73 179.871
L206.486 180.663
L198.514 186.858
L197.422 187.843
L190.543 194.722
L189.558 195.814
L183.363 203.786
L182.571 205.03
L178.296 211.757
L174.607 219.729
L174.6 219.749
L171.401 227.7
L169.236 235.671
L167.896 243.643
L167.256 251.614
L167.256 259.586
L167.896 267.557
L169.236 275.529
L171.401 283.5
L174.6 291.451
L174.607 291.471
L178.296 299.443
L182.571 306.17
L183.363 307.414
L189.558 315.386
L190.543 316.478
L197.422 323.357
L198.514 324.342
L206.486 330.537
L207.73 331.329
L214.457 335.604
L222.429 339.293
L222.449 339.3
L230.4 342.499" style="fill:none;stroke:#000000;"/>
   </g>
   <g id="LineCollection_4">
    <path clip-path="url(#pc517c4227e)" d="
M254.314 339.635
L262.286 339.635
L265.47 339.3
L270.257 338.883
L278.229 337.449
L286.2 335.128
L294.171 331.692
L294.847 331.329
L302.143 327.519
L308.122 323.357
L310.114 321.908
L317.462 315.386
L318.086 314.762
L324.608 307.414
L326.057 305.422
L330.219 299.443
L334.029 292.147
L334.392 291.471
L337.828 283.5
L340.149 275.529
L341.583 267.557
L342 262.77
L342.335 259.586
L342.335 251.614
L342 248.43
L341.583 243.643
L340.149 235.671
L337.828 227.7
L334.392 219.729
L334.029 219.053
L330.219 211.757
L326.057 205.778
L324.608 203.786
L318.086 196.438
L317.462 195.814
L310.114 189.292
L308.122 187.843
L302.143 183.681
L294.847 179.871
L294.171 179.508
L286.2 176.072
L278.229 173.751
L270.257 172.317
L265.47 171.9
L262.286 171.565
L254.314 171.565
L251.13 171.9
L246.343 172.317
L238.371 173.751
L230.4 176.072
L222.429 179.508
L221.753 179.871
L214.457 183.681
L208.478 187.843
L206.486 189.292
L199.138 195.814
L198.514 196.438
L191.992 203.786
L190.543 205.778
L186.381 211.757
L182.571 219.053
L182.208 219.729
L178.772 227.7
L176.451 235.671
L175.017 243.643
L174.6 248.43
L174.265 251.614
L174.265 259.586
L174.6 262.77
L175.017 267.557
L176.451 275.529
L178.772 283.5
L182.208 291.471
L182.571 292.147
L186.381 299.443
L190.543 305.422
L191.992 307.414
L198.514 314.762
L199.138 315.386
L206.486 321.908
L208.478 323.357
L214.457 327.519
L221.753 331.329
L222.429 331.692
L230.4 335.128
L238.371 337.449
L246.343 338.883
L251.13 339.3
L254.314 339.635" style="fill:none;stroke:#000000;"/>
   </g>
   <g id="LineCollection_5">
    <path clip-path="url(#pc517c4227e)" d="
M246.343 333.08
L254.314 333.937
L262.286 333.937
L270.257 333.08
L278.053 331.329
L278.229 331.294
L286.2 328.868
L294.171 325.276
L297.431 323.357
L302.143 320.546
L308.827 315.386
L310.114 314.299
L316.999 307.414
L318.086 306.127
L323.246 299.443
L326.057 294.731
L327.976 291.471
L331.568 283.5
L333.994 275.529
L334.029 275.353
L335.78 267.557
L336.637 259.586
L336.637 251.614
L335.78 243.643
L334.029 235.847
L333.994 235.671
L331.568 227.7
L327.976 219.729
L326.057 216.469
L323.246 211.757
L318.086 205.073
L316.999 203.786
L310.114 196.901
L308.827 195.814
L302.143 190.654
L297.431 187.843
L294.171 185.924
L286.2 182.332
L278.229 179.906
L278.053 179.871
L270.257 178.12
L262.286 177.263
L254.314 177.263
L246.343 178.12
L238.547 179.871
L238.371 179.906
L230.4 182.332
L222.429 185.924
L219.169 187.843
L214.457 190.654
L207.773 195.814
L206.486 196.901
L199.601 203.786
L198.514 205.073
L193.354 211.757
L190.543 216.469
L188.624 219.729
L185.032 227.7
L182.606 235.671
L182.571 235.847
L180.82 243.643
L179.963 251.614
L179.963 259.586
L180.82 267.557
L182.571 275.353
L182.606 275.529
L185.032 283.5
L188.624 291.471
L190.543 294.731
L193.354 299.443
L198.514 306.127
L199.601 307.414
L206.486 314.299
L207.773 315.386
L214.457 320.546
L219.169 323.357
L222.429 325.276
L230.4 328.868
L238.371 331.294
L238.547 331.329
L246.343 333.08" style="fill:none;stroke:#000000;"/>
   </g>
   <g id="LineCollection_6">
    <path clip-path="url(#pc517c4227e)" d="
M238.371 326.141
L246.343 327.94
L254.314 328.801
L262.286 328.801
L270.257 327.94
L278.229 326.141
L285.881 323.357
L286.2 323.246
L294.171 319.485
L300.452 315.386
L302.143 314.214
L309.962 307.414
L310.114 307.262
L316.914 299.443
L318.086 297.752
L322.185 291.471
L325.946 283.5
L326.057 283.181
L328.841 275.529
L330.64 267.557
L331.501 259.586
L331.501 251.614
L330.64 243.643
L328.841 235.671
L326.057 228.019
L325.946 227.7
L322.185 219.729
L318.086 213.448
L316.914 211.757
L310.114 203.938
L309.962 203.786
L302.143 196.986
L300.452 195.814
L294.171 191.715
L286.2 187.954
L285.881 187.843
L278.229 185.059
L270.257 183.26
L262.286 182.399
L254.314 182.399
L246.343 183.26
L238.371 185.059
L230.719 187.843
L230.4 187.954
L222.429 191.715
L216.148 195.814
L214.457 196.986
L206.638 203.786
L206.486 203.938
L199.686 211.757
L198.514 213.448
L194.415 219.729
L190.654 227.7
L190.543 228.019
L187.759 235.671
L185.96 243.643
L185.099 251.614
L185.099 259.586
L185.96 267.557
L187.759 275.529
L190.543 283.181
L190.654 283.5
L194.415 291.471
L198.514 297.752
L199.686 299.443
L206.486 307.262
L206.638 307.414
L214.457 314.214
L216.148 315.386
L222.429 319.485
L230.4 323.246
L230.719 323.357
L238.371 326.141" style="fill:none;stroke:#000000;"/>
   </g>
   <g id="LineCollection_7">
    <path clip-path="url(#pc517c4227e)" d="
M254.314 324.091
L262.286 324.091
L268.162 323.357
L270.257 323.122
L278.229 321.29
L286.2 318.328
L291.752 315.386
L294.171 314.065
L302.143 308.331
L303.197 307.414
L310.114 300.497
L311.031 299.443
L316.765 291.471
L318.086 289.052
L321.028 283.5
L323.99 275.529
L325.822 267.557
L326.057 265.462
L326.791 259.586
L326.791 251.614
L326.057 245.738
L325.822 243.643
L323.99 235.671
L321.028 227.7
L318.086 222.148
L316.765 219.729
L311.031 211.757
L310.114 210.703
L303.197 203.786
L302.143 202.869
L294.171 197.135
L291.752 195.814
L286.2 192.872
L278.229 189.91
L270.257 188.078
L268.162 187.843
L262.286 187.109
L254.314 187.109
L248.438 187.843
L246.343 188.078
L238.371 189.91
L230.4 192.872
L224.848 195.814
L222.429 197.135
L214.457 202.869
L213.403 203.786
L206.486 210.703
L205.569 211.757
L199.835 219.729
L198.514 222.148
L195.572 227.7
L192.61 235.671
L190.778 243.643
L190.543 245.738
L189.809 251.614
L189.809 259.586
L190.543 265.462
L190.778 267.557
L192.61 275.529
L195.572 283.5
L198.514 289.052
L199.835 291.471
L205.569 299.443
L206.486 300.497
L213.403 307.414
L214.457 308.331
L222.429 314.065
L224.848 315.386
L230.4 318.328
L238.371 321.29
L246.343 323.122
L248.438 323.357
L254.314 324.091" style="fill:none;stroke:#000000;"/>
   </g>
   <g id="LineCollection_8">
    <path clip-path="url(#pc517c4227e)" d="
M238.371 316.795
L246.343 318.888
L254.314 319.889
L262.286 319.889
L270.257 318.888
L278.229 316.795
L281.721 315.386
L286.2 313.581
L294.171 309.001
L296.329 307.414
L302.143 302.644
L305.344 299.443
L310.114 293.629
L311.701 291.471
L316.281 283.5
L318.086 279.021
L319.495 275.529
L321.588 267.557
L322.589 259.586
L322.589 251.614
L321.588 243.643
L319.495 235.671
L318.086 232.179
L316.281 227.7
L311.701 219.729
L310.114 217.571
L305.344 211.757
L302.143 208.556
L296.329 203.786
L294.171 202.199
L286.2 197.619
L281.721 195.814
L278.229 194.405
L270.257 192.312
L262.286 191.311
L254.314 191.311
L246.343 192.312
L238.371 194.405
L234.879 195.814
L230.4 197.619
L222.429 202.199
L220.271 203.786
L214.457 208.556
L211.256 211.757
L206.486 217.571
L204.899 219.729
L200.319 227.7
L198.514 232.179
L197.105 235.671
L195.012 243.643
L194.011 251.614
L194.011 259.586
L195.012 267.557
L197.105 275.529
L198.514 279.021
L200.319 283.5
L204.899 291.471
L206.486 293.629
L211.256 299.443
L214.457 302.644
L220.271 307.414
L222.429 309.001
L230.4 313.581
L234.879 315.386
L238.371 316.795" style="fill:none;stroke:#000000;"/>
   </g>
   <g id="LineCollection_9">
    <path clip-path="url(#pc517c4227e)" d="
M254.314 315.78
L262.286 315.78
L265.132 315.386
L270.257 314.718
L278.229 312.567
L286.2 309.089
L289.005 307.414
L294.171 304.074
L299.649 299.443
L302.143 296.949
L306.774 291.471
L310.114 286.305
L311.789 283.5
L315.267 275.529
L317.418 267.557
L318.086 262.432
L318.48 259.586
L318.48 251.614
L318.086 248.768
L317.418 243.643
L315.267 235.671
L311.789 227.7
L310.114 224.895
L306.774 219.729
L302.143 214.251
L299.649 211.757
L294.171 207.126
L289.005 203.786
L286.2 202.111
L278.229 198.633
L270.257 196.482
L265.132 195.814
L262.286 195.42
L254.314 195.42
L251.468 195.814
L246.343 196.482
L238.371 198.633
L230.4 202.111
L227.595 203.786
L222.429 207.126
L216.951 211.757
L214.457 214.251
L209.826 219.729
L206.486 224.895
L204.811 227.7
L201.333 235.671
L199.182 243.643
L198.514 248.768
L198.12 251.614
L198.12 259.586
L198.514 262.432
L199.182 267.557
L201.333 275.529
L204.811 283.5
L206.486 286.305
L209.826 291.471
L214.457 296.949
L216.951 299.443
L222.429 304.074
L227.595 307.414
L230.4 309.089
L238.371 312.567
L246.343 314.718
L251.468 315.386
L254.314 315.78" style="fill:none;stroke:#000000;"/>
   </g>
   <g id="LineCollection_10">
    <path clip-path="url(#pc517c4227e)" d="
M238.371 308.462
L246.343 310.851
L254.314 311.994
L262.286 311.994
L270.257 310.851
L278.229 308.462
L280.534 307.414
L286.2 304.708
L293.871 299.443
L294.171 299.206
L301.906 291.471
L302.143 291.171
L307.408 283.5
L310.114 277.834
L311.162 275.529
L313.551 267.557
L314.694 259.586
L314.694 251.614
L313.551 243.643
L311.162 235.671
L310.114 233.366
L307.408 227.7
L302.143 220.029
L301.906 219.729
L294.171 211.994
L293.871 211.757
L286.2 206.492
L280.534 203.786
L278.229 202.738
L270.257 200.349
L262.286 199.206
L254.314 199.206
L246.343 200.349
L238.371 202.738
L236.066 203.786
L230.4 206.492
L222.729 211.757
L222.429 211.994
L214.694 219.729
L214.457 220.029
L209.192 227.7
L206.486 233.366
L205.438 235.671
L203.049 243.643
L201.906 251.614
L201.906 259.586
L203.049 267.557
L205.438 275.529
L206.486 277.834
L209.192 283.5
L214.457 291.171
L214.694 291.471
L222.429 299.206
L222.729 299.443
L230.4 304.708
L236.066 307.414
L238.371 308.462" style="fill:none;stroke:#000000;"/>
   </g>
   <g id="LineCollection_11">
    <path clip-path="url(#pc517c4227e)" d="
M254.314 308.242
L262.286 308.242
L267.588 307.414
L270.257 307.002
L278.229 304.477
L286.2 300.394
L287.586 299.443
L294.171 294.254
L296.954 291.471
L302.143 284.886
L303.094 283.5
L307.177 275.529
L309.702 267.557
L310.114 264.888
L310.942 259.586
L310.942 251.614
L310.114 246.312
L309.702 243.643
L307.177 235.671
L303.094 227.7
L302.143 226.314
L296.954 219.729
L294.171 216.946
L287.586 211.757
L286.2 210.806
L278.229 206.723
L270.257 204.198
L267.588 203.786
L262.286 202.958
L254.314 202.958
L249.012 203.786
L246.343 204.198
L238.371 206.723
L230.4 210.806
L229.014 211.757
L222.429 216.946
L219.646 219.729
L214.457 226.314
L213.506 227.7
L209.423 235.671
L206.898 243.643
L206.486 246.312
L205.658 251.614
L205.658 259.586
L206.486 264.888
L206.898 267.557
L209.423 275.529
L213.506 283.5
L214.457 284.886
L219.646 291.471
L222.429 294.254
L229.014 299.443
L230.4 300.394
L238.371 304.477
L246.343 307.002
L249.012 307.414
L254.314 308.242" style="fill:none;stroke:#000000;"/>
   </g>
   <g id="LineCollection_12">
    <path clip-path="url(#pc517c4227e)" d="
M238.371 300.534
L246.343 303.288
L254.314 304.605
L262.286 304.605
L270.257 303.288
L278.229 300.534
L280.317 299.443
L286.2 296.019
L291.802 291.471
L294.171 289.102
L298.719 283.5
L302.143 277.617
L303.234 275.529
L305.988 267.557
L307.305 259.586
L307.305 251.614
L305.988 243.643
L303.234 235.671
L302.143 233.583
L298.719 227.7
L294.171 222.098
L291.802 219.729
L286.2 215.181
L280.317 211.757
L278.229 210.666
L270.257 207.912
L262.286 206.595
L254.314 206.595
L246.343 207.912
L238.371 210.666
L236.283 211.757
L230.4 215.181
L224.798 219.729
L222.429 222.098
L217.881 227.7
L214.457 233.583
L213.366 235.671
L210.612 243.643
L209.295 251.614
L209.295 259.586
L210.612 267.557
L213.366 275.529
L214.457 277.617
L217.881 283.5
L222.429 289.102
L224.798 291.471
L230.4 296.019
L236.283 299.443
L238.371 300.534" style="fill:none;stroke:#000000;"/>
   </g>
   <g id="LineCollection_13">
    <path clip-path="url(#pc517c4227e)" d="
M246.343 299.575
L254.314 301.001
L262.286 301.001
L270.257 299.575
L270.63 299.443
L278.229 296.54
L286.2 291.627
L286.392 291.471
L294.171 283.692
L294.327 283.5
L299.24 275.529
L302.143 267.93
L302.275 267.557
L303.701 259.586
L303.701 251.614
L302.275 243.643
L302.143 243.27
L299.24 235.671
L294.327 227.7
L294.171 227.508
L286.392 219.729
L286.2 219.573
L278.229 214.66
L270.63 211.757
L270.257 211.625
L262.286 210.199
L254.314 210.199
L246.343 211.625
L245.97 211.757
L238.371 214.66
L230.4 219.573
L230.208 219.729
L222.429 227.508
L222.273 227.7
L217.36 235.671
L214.457 243.27
L214.325 243.643
L212.899 251.614
L212.899 259.586
L214.325 267.557
L214.457 267.93
L217.36 275.529
L222.273 283.5
L222.429 283.692
L230.208 291.471
L230.4 291.627
L238.371 296.54
L245.97 299.443
L246.343 299.575" style="fill:none;stroke:#000000;"/>
   </g>
   <g id="LineCollection_14">
    <path clip-path="url(#pc517c4227e)" d="
M238.371 292.526
L246.343 295.797
L254.314 297.36
L262.286 297.36
L270.257 295.797
L278.229 292.526
L279.934 291.471
L286.2 286.843
L289.543 283.5
L294.171 277.234
L295.226 275.529
L298.497 267.557
L300.06 259.586
L300.06 251.614
L298.497 243.643
L295.226 235.671
L294.171 233.966
L289.543 227.7
L286.2 224.357
L279.934 219.729
L278.229 218.674
L270.257 215.403
L262.286 213.84
L254.314 213.84
L246.343 215.403
L238.371 218.674
L236.666 219.729
L230.4 224.357
L227.057 227.7
L222.429 233.966
L221.374 235.671
L218.103 243.643
L216.54 251.614
L216.54 259.586
L218.103 267.557
L221.374 275.529
L222.429 277.234
L227.057 283.5
L230.4 286.843
L236.666 291.471
L238.371 292.526" style="fill:none;stroke:#000000;"/>
   </g>
   <g id="LineCollection_15">
    <path clip-path="url(#pc517c4227e)" d="
M246.343 292.016
L254.314 293.692
L262.286 293.692
L270.257 292.016
L271.561 291.471
L278.229 288.237
L284.453 283.5
L286.2 281.753
L290.937 275.529
L294.171 268.861
L294.716 267.557
L296.392 259.586
L296.392 251.614
L294.716 243.643
L294.171 242.339
L290.937 235.671
L286.2 229.447
L284.453 227.7
L278.229 222.963
L271.561 219.729
L270.257 219.184
L262.286 217.508
L254.314 217.508
L246.343 219.184
L245.039 219.729
L238.371 222.963
L232.147 227.7
L230.4 229.447
L225.663 235.671
L222.429 242.339
L221.884 243.643
L220.208 251.614
L220.208 259.586
L221.884 267.557
L222.429 268.861
L225.663 275.529
L230.4 281.753
L232.147 283.5
L238.371 288.237
L245.039 291.471
L246.343 292.016" style="fill:none;stroke:#000000;"/>
   </g>
   <g id="LineCollection_16">
    <path clip-path="url(#pc517c4227e)" d="
M238.371 283.852
L246.343 287.937
L254.314 289.889
L262.286 289.889
L270.257 287.937
L278.229 283.852
L278.691 283.5
L286.2 275.991
L286.552 275.529
L290.637 267.557
L292.589 259.586
L292.589 251.614
L290.637 243.643
L286.552 235.671
L286.2 235.209
L278.691 227.7
L278.229 227.348
L270.257 223.263
L262.286 221.311
L254.314 221.311
L246.343 223.263
L238.371 227.348
L237.909 227.7
L230.4 235.209
L230.048 235.671
L225.963 243.643
L224.011 251.614
L224.011 259.586
L225.963 267.557
L230.048 275.529
L230.4 275.991
L237.909 283.5
L238.371 283.852" style="fill:none;stroke:#000000;"/>
   </g>
   <g id="LineCollection_17">
    <path clip-path="url(#pc517c4227e)" d="
M246.343 283.806
L254.314 285.881
L262.286 285.881
L270.257 283.806
L270.852 283.5
L278.229 278.656
L281.356 275.529
L286.2 268.152
L286.506 267.557
L288.581 259.586
L288.581 251.614
L286.506 243.643
L286.2 243.048
L281.356 235.671
L278.229 232.544
L270.852 227.7
L270.257 227.394
L262.286 225.319
L254.314 225.319
L246.343 227.394
L245.748 227.7
L238.371 232.544
L235.244 235.671
L230.4 243.048
L230.094 243.643
L228.019 251.614
L228.019 259.586
L230.094 267.557
L230.4 268.152
L235.244 275.529
L238.371 278.656
L245.748 283.5
L246.343 283.806" style="fill:none;stroke:#000000;"/>
   </g>
   <g id="LineCollection_18">
    <path clip-path="url(#pc517c4227e)" d="
M246.343 278.908
L254.314 281.545
L262.286 281.545
L270.257 278.908
L275.252 275.529
L278.229 272.552
L281.608 267.557
L284.245 259.586
L284.245 251.614
L281.608 243.643
L278.229 238.648
L275.252 235.671
L270.257 232.292
L262.286 229.655
L254.314 229.655
L246.343 232.292
L241.348 235.671
L238.371 238.648
L234.992 243.643
L232.355 251.614
L232.355 259.586
L234.992 267.557
L238.371 272.552
L241.348 275.529
L246.343 278.908" style="fill:none;stroke:#000000;"/>
   </g>
   <g id="LineCollection_19">
    <path clip-path="url(#pc517c4227e)" d="
M254.314 276.732
L262.286 276.732
L265.791 275.529
L270.257 273.329
L276.029 267.557
L278.229 263.091
L279.432 259.586
L279.432 251.614
L278.229 248.109
L276.029 243.643
L270.257 237.871
L265.791 235.671
L262.286 234.468
L254.314 234.468
L250.809 235.671
L246.343 237.871
L240.571 243.643
L238.371 248.109
L237.168 251.614
L237.168 259.586
L238.371 263.091
L240.571 267.557
L246.343 273.329
L250.809 275.529
L254.314 276.732" style="fill:none;stroke:#000000;"/>
   </g>
   <g id="LineCollection_20">
    <path clip-path="url(#pc517c4227e)" d="
M254.314 270.505
L262.286 270.505
L268.093 267.557
L270.257 265.393
L273.205 259.586
L273.205 251.614
L270.257 245.807
L268.093 243.643
L262.286 240.695
L254.314 240.695
L248.507 243.643
L246.343 245.807
L243.395 251.614
L243.395 259.586
L246.343 265.393
L248.507 267.557
L254.314 270.505" style="fill:none;stroke:#000000;"/>
   </g>
   <g id="LineCollection_21">
    <path clip-path="url(#pc517c4227e)" d="
M254.314 260.382
L262.286 260.382
L263.082 259.586
L263.082 251.614
L262.286 250.818
L254.314 250.818
L253.518 251.614
L253.518 259.586
L254.314 260.382" style="fill:none;stroke:#000000;"/>
   </g>
   <g id="patch_3">
    <path d="
M63 51.12
L453.6 51.12" style="fill:none;stroke:#000000;stroke-linecap:square;stroke-linejoin:miter;"/>
   </g>
   <g id="patch_4">
    <path d="
M453.6 460.08
L453.6 51.12" style="fill:none;stroke:#000000;stroke-linecap:square;stroke-linejoin:miter;"/>
   </g>
   <g id="patch_5">
    <path d="
M63 460.08
L453.6 460.08" style="fill:none;stroke:#000000;stroke-linecap:square;stroke-linejoin:miter;"/>
   </g>
   <g id="patch_6">
    <path d="
M63 460.08
L63 51.12" style="fill:none;stroke:#000000;stroke-linecap:square;stroke-linejoin:miter;"/>
   </g>
   <g id="matplotlib.axis_1">
    <g id="xtick_1">
     <g id="line2d_1">
      <defs>
       <path d="
M0 0
L0 -4" id="m93b0483c22" style="stroke:#000000;stroke-width:0.5;"/>
      </defs>
      <g>
       <use style="stroke:#000000;stroke-width:0.5;" x="63.0" xlink:href="#m93b0483c22" y="460.08"/>
      </g>
     </g>
     <g id="line2d_2">
      <defs>
       <path d="
M0 0
L0 4" id="m741efc42ff" style="stroke:#000000;stroke-width:0.5;"/>
      </defs>
      <g>
       <use style="stroke:#000000;stroke-width:0.5;" x="63.0" xlink:href="#m741efc42ff" y="51.12"/>
      </g>
     </g>
     <g id="text_1">
      <!-- 3 -->
      <defs>
       <path d="
M10.5938 35.5
L73.1875 35.5
L73.1875 27.2031
L10.5938 27.2031
z
" id="BitstreamVeraSans-Roman-2212"/>
       <path d="
M40.5781 39.3125
Q47.6562 37.7969 51.625 33
Q55.6094 28.2188 55.6094 21.1875
Q55.6094 10.4062 48.1875 4.48438
Q40.7656 -1.42188 27.0938 -1.42188
Q22.5156 -1.42188 17.6562 -0.515625
Q12.7969 0.390625 7.625 2.20312
L7.625 11.7188
Q11.7188 9.32812 16.5938 8.10938
Q21.4844 6.89062 26.8125 6.89062
Q36.0781 6.89062 40.9375 10.5469
Q45.7969 14.2031 45.7969 21.1875
Q45.7969 27.6406 41.2812 31.2656
Q36.7656 34.9062 28.7188 34.9062
L20.2188 34.9062
L20.2188 43.0156
L29.1094 43.0156
Q36.375 43.0156 40.2344 45.9219
Q44.0938 48.8281 44.0938 54.2969
Q44.0938 59.9062 40.1094 62.9062
Q36.1406 65.9219 28.7188 65.9219
Q24.6562 65.9219 20.0156 65.0312
Q15.375 64.1562 9.8125 62.3125
L9.8125 71.0938
Q15.4375 72.6562 20.3438 73.4375
Q25.25 74.2188 29.5938 74.2188
Q40.8281 74.2188 47.3594 69.1094
Q53.9062 64.0156 53.9062 55.3281
Q53.9062 49.2656 50.4375 45.0938
Q46.9688 40.9219 40.5781 39.3125" id="BitstreamVeraSans-Roman-33"/>
      </defs>
      <g transform="translate(55.27125 473.198125)scale(0.12 -0.12)">
       <use xlink:href="#BitstreamVeraSans-Roman-2212"/>
       <use x="83.7890625" xlink:href="#BitstreamVeraSans-Roman-33"/>
      </g>
     </g>
    </g>
    <g id="xtick_2">
     <g id="line2d_3">
      <g>
       <use style="stroke:#000000;stroke-width:0.5;" x="128.1" xlink:href="#m93b0483c22" y="460.08"/>
      </g>
     </g>
     <g id="line2d_4">
      <g>
       <use style="stroke:#000000;stroke-width:0.5;" x="128.1" xlink:href="#m741efc42ff" y="51.12"/>
      </g>
     </g>
     <g id="text_2">
      <!-- 2 -->
      <defs>
       <path d="
M19.1875 8.29688
L53.6094 8.29688
L53.6094 0
L7.32812 0
L7.32812 8.29688
Q12.9375 14.1094 22.625 23.8906
Q32.3281 33.6875 34.8125 36.5312
Q39.5469 41.8438 41.4219 45.5312
Q43.3125 49.2188 43.3125 52.7812
Q43.3125 58.5938 39.2344 62.25
Q35.1562 65.9219 28.6094 65.9219
Q23.9688 65.9219 18.8125 64.3125
Q13.6719 62.7031 7.8125 59.4219
L7.8125 69.3906
Q13.7656 71.7812 18.9375 73
Q24.125 74.2188 28.4219 74.2188
Q39.75 74.2188 46.4844 68.5469
Q53.2188 62.8906 53.2188 53.4219
Q53.2188 48.9219 51.5312 44.8906
Q49.8594 40.875 45.4062 35.4062
Q44.1875 33.9844 37.6406 27.2188
Q31.1094 20.4531 19.1875 8.29688" id="BitstreamVeraSans-Roman-32"/>
      </defs>
      <g transform="translate(120.49125 473.198125)scale(0.12 -0.12)">
       <use xlink:href="#BitstreamVeraSans-Roman-2212"/>
       <use x="83.7890625" xlink:href="#BitstreamVeraSans-Roman-32"/>
      </g>
     </g>
    </g>
    <g id="xtick_3">
     <g id="line2d_5">
      <g>
       <use style="stroke:#000000;stroke-width:0.5;" x="193.2" xlink:href="#m93b0483c22" y="460.08"/>
      </g>
     </g>
     <g id="line2d_6">
      <g>
       <use style="stroke:#000000;stroke-width:0.5;" x="193.2" xlink:href="#m741efc42ff" y="51.12"/>
      </g>
     </g>
     <g id="text_3">
      <!-- 1 -->
      <defs>
       <path d="
M12.4062 8.29688
L28.5156 8.29688
L28.5156 63.9219
L10.9844 60.4062
L10.9844 69.3906
L28.4219 72.9062
L38.2812 72.9062
L38.2812 8.29688
L54.3906 8.29688
L54.3906 0
L12.4062 0
z
" id="BitstreamVeraSans-Roman-31"/>
      </defs>
      <g transform="translate(185.544375 473.198125)scale(0.12 -0.12)">
       <use xlink:href="#BitstreamVeraSans-Roman-2212"/>
       <use x="83.7890625" xlink:href="#BitstreamVeraSans-Roman-31"/>
      </g>
     </g>
    </g>
    <g id="xtick_4">
     <g id="line2d_7">
      <g>
       <use style="stroke:#000000;stroke-width:0.5;" x="258.3" xlink:href="#m93b0483c22" y="460.08"/>
      </g>
     </g>
     <g id="line2d_8">
      <g>
       <use style="stroke:#000000;stroke-width:0.5;" x="258.3" xlink:href="#m741efc42ff" y="51.12"/>
      </g>
     </g>
     <g id="text_4">
      <!-- 0 -->
      <defs>
       <path d="
M31.7812 66.4062
Q24.1719 66.4062 20.3281 58.9062
Q16.5 51.4219 16.5 36.375
Q16.5 21.3906 20.3281 13.8906
Q24.1719 6.39062 31.7812 6.39062
Q39.4531 6.39062 43.2812 13.8906
Q47.125 21.3906 47.125 36.375
Q47.125 51.4219 43.2812 58.9062
Q39.4531 66.4062 31.7812 66.4062
M31.7812 74.2188
Q44.0469 74.2188 50.5156 64.5156
Q56.9844 54.8281 56.9844 36.375
Q56.9844 17.9688 50.5156 8.26562
Q44.0469 -1.42188 31.7812 -1.42188
Q19.5312 -1.42188 13.0625 8.26562
Q6.59375 17.9688 6.59375 36.375
Q6.59375 54.8281 13.0625 64.5156
Q19.5312 74.2188 31.7812 74.2188" id="BitstreamVeraSans-Roman-30"/>
      </defs>
      <g transform="translate(255.2765625 473.198125)scale(0.12 -0.12)">
       <use xlink:href="#BitstreamVeraSans-Roman-30"/>
      </g>
     </g>
    </g>
    <g id="xtick_5">
     <g id="line2d_9">
      <g>
       <use style="stroke:#000000;stroke-width:0.5;" x="323.4" xlink:href="#m93b0483c22" y="460.08"/>
      </g>
     </g>
     <g id="line2d_10">
      <g>
       <use style="stroke:#000000;stroke-width:0.5;" x="323.4" xlink:href="#m741efc42ff" y="51.12"/>
      </g>
     </g>
     <g id="text_5">
      <!-- 1 -->
      <g transform="translate(320.795625 473.198125)scale(0.12 -0.12)">
       <use xlink:href="#BitstreamVeraSans-Roman-31"/>
      </g>
     </g>
    </g>
    <g id="xtick_6">
     <g id="line2d_11">
      <g>
       <use style="stroke:#000000;stroke-width:0.5;" x="388.5" xlink:href="#m93b0483c22" y="460.08"/>
      </g>
     </g>
     <g id="line2d_12">
      <g>
       <use style="stroke:#000000;stroke-width:0.5;" x="388.5" xlink:href="#m741efc42ff" y="51.12"/>
      </g>
     </g>
     <g id="text_6">
      <!-- 2 -->
      <g transform="translate(385.723125 473.198125)scale(0.12 -0.12)">
       <use xlink:href="#BitstreamVeraSans-Roman-32"/>
      </g>
     </g>
    </g>
    <g id="xtick_7">
     <g id="line2d_13">
      <g>
       <use style="stroke:#000000;stroke-width:0.5;" x="453.6" xlink:href="#m93b0483c22" y="460.08"/>
      </g>
     </g>
     <g id="line2d_14">
      <g>
       <use style="stroke:#000000;stroke-width:0.5;" x="453.6" xlink:href="#m741efc42ff" y="51.12"/>
      </g>
     </g>
     <g id="text_7">
      <!-- 3 -->
      <g transform="translate(450.7209375 473.198125)scale(0.12 -0.12)">
       <use xlink:href="#BitstreamVeraSans-Roman-33"/>
      </g>
     </g>
    </g>
   </g>
   <g id="matplotlib.axis_2">
    <g id="ytick_1">
     <g id="line2d_15">
      <defs>
       <path d="
M0 0
L4 0" id="m728421d6d4" style="stroke:#000000;stroke-width:0.5;"/>
      </defs>
      <g>
       <use style="stroke:#000000;stroke-width:0.5;" x="63.0" xlink:href="#m728421d6d4" y="450.9"/>
      </g>
     </g>
     <g id="line2d_16">
      <defs>
       <path d="
M0 0
L-4 0" id="mcb0005524f" style="stroke:#000000;stroke-width:0.5;"/>
      </defs>
      <g>
       <use style="stroke:#000000;stroke-width:0.5;" x="453.6" xlink:href="#mcb0005524f" y="450.9"/>
      </g>
     </g>
     <g id="text_8">
      <!-- 3 -->
      <g transform="translate(43.5425 454.21125)scale(0.12 -0.12)">
       <use xlink:href="#BitstreamVeraSans-Roman-2212"/>
       <use x="83.7890625" xlink:href="#BitstreamVeraSans-Roman-33"/>
      </g>
     </g>
    </g>
    <g id="ytick_2">
     <g id="line2d_17">
      <g>
       <use style="stroke:#000000;stroke-width:0.5;" x="63.0" xlink:href="#m728421d6d4" y="385.8"/>
      </g>
     </g>
     <g id="line2d_18">
      <g>
       <use style="stroke:#000000;stroke-width:0.5;" x="453.6" xlink:href="#mcb0005524f" y="385.8"/>
      </g>
     </g>
     <g id="text_9">
      <!-- 2 -->
      <g transform="translate(43.7825 389.11125)scale(0.12 -0.12)">
       <use xlink:href="#BitstreamVeraSans-Roman-2212"/>
       <use x="83.7890625" xlink:href="#BitstreamVeraSans-Roman-32"/>
      </g>
     </g>
    </g>
    <g id="ytick_3">
     <g id="line2d_19">
      <g>
       <use style="stroke:#000000;stroke-width:0.5;" x="63.0" xlink:href="#m728421d6d4" y="320.7"/>
      </g>
     </g>
     <g id="line2d_20">
      <g>
       <use style="stroke:#000000;stroke-width:0.5;" x="453.6" xlink:href="#mcb0005524f" y="320.7"/>
      </g>
     </g>
     <g id="text_10">
      <!-- 1 -->
      <g transform="translate(43.68875 324.01125)scale(0.12 -0.12)">
       <use xlink:href="#BitstreamVeraSans-Roman-2212"/>
       <use x="83.7890625" xlink:href="#BitstreamVeraSans-Roman-31"/>
      </g>
     </g>
    </g>
    <g id="ytick_4">
     <g id="line2d_21">
      <g>
       <use style="stroke:#000000;stroke-width:0.5;" x="63.0" xlink:href="#m728421d6d4" y="255.6"/>
      </g>
     </g>
     <g id="line2d_22">
      <g>
       <use style="stroke:#000000;stroke-width:0.5;" x="453.6" xlink:href="#mcb0005524f" y="255.6"/>
      </g>
     </g>
     <g id="text_11">
      <!-- 0 -->
      <g transform="translate(52.953125 258.91125)scale(0.12 -0.12)">
       <use xlink:href="#BitstreamVeraSans-Roman-30"/>
      </g>
     </g>
    </g>
    <g id="ytick_5">
     <g id="line2d_23">
      <g>
       <use style="stroke:#000000;stroke-width:0.5;" x="63.0" xlink:href="#m728421d6d4" y="190.5"/>
      </g>
     </g>
     <g id="line2d_24">
      <g>
       <use style="stroke:#000000;stroke-width:0.5;" x="453.6" xlink:href="#mcb0005524f" y="190.5"/>
      </g>
     </g>
     <g id="text_12">
      <!-- 1 -->
      <g transform="translate(53.79125 193.81125)scale(0.12 -0.12)">
       <use xlink:href="#BitstreamVeraSans-Roman-31"/>
      </g>
     </g>
    </g>
    <g id="ytick_6">
     <g id="line2d_25">
      <g>
       <use style="stroke:#000000;stroke-width:0.5;" x="63.0" xlink:href="#m728421d6d4" y="125.4"/>
      </g>
     </g>
     <g id="line2d_26">
      <g>
       <use style="stroke:#000000;stroke-width:0.5;" x="453.6" xlink:href="#mcb0005524f" y="125.4"/>
      </g>
     </g>
     <g id="text_13">
      <!-- 2 -->
      <g transform="translate(53.44625 128.71125)scale(0.12 -0.12)">
       <use xlink:href="#BitstreamVeraSans-Roman-32"/>
      </g>
     </g>
    </g>
    <g id="ytick_7">
     <g id="line2d_27">
      <g>
       <use style="stroke:#000000;stroke-width:0.5;" x="63.0" xlink:href="#m728421d6d4" y="60.3"/>
      </g>
     </g>
     <g id="line2d_28">
      <g>
       <use style="stroke:#000000;stroke-width:0.5;" x="453.6" xlink:href="#mcb0005524f" y="60.3"/>
      </g>
     </g>
     <g id="text_14">
      <!-- 3 -->
      <g transform="translate(53.241875 63.61125)scale(0.12 -0.12)">
       <use xlink:href="#BitstreamVeraSans-Roman-33"/>
      </g>
     </g>
    </g>
   </g>
  </g>
 </g>
 <defs>
  <clipPath id="pc517c4227e">
   <rect height="408.96" width="390.6" x="63.0" y="51.12"/>
  </clipPath>
 </defs>
</svg>
